<?xml version="1.0" standalone="no"?>
<!DOCTYPE svg PUBLIC "-//W3C//DTD SVG 20010904//EN"
 "http://www.w3.org/TR/2001/REC-SVG-20010904/DTD/svg10.dtd">
<svg version="1.0" xmlns="http://www.w3.org/2000/svg"
 width="512.000000pt" height="512.000000pt" viewBox="0 0 512.000000 512.000000"
 preserveAspectRatio="xMidYMid meet">

<g transform="translate(0.000000,512.000000) scale(0.100000,-0.100000)"
fill="#fb000f" stroke="none">
<path d="M1360 4022 c-641 -367 -1170 -670 -1177 -675 -8 -5 0 -28 29 -80 23
-39 42 -73 43 -75 1 -1 513 289 1136 645 624 356 1148 649 1164 651 25 3 235
-113 1169 -647 626 -358 1140 -650 1141 -649 1 2 20 36 43 76 l41 72 -22 14
c-12 8 -543 311 -1179 675 -901 514 -1165 661 -1190 660 -25 0 -334 -173
-1198 -667z"/>
<path d="M1495 3701 l-1060 -607 -3 -1332 -2 -1332 170 0 170 0 0 1173 0 1172
23 40 c13 22 40 49 62 62 l40 23 1665 0 1665 0 40 -23 c22 -13 49 -40 62 -62
l23 -40 0 -1172 0 -1173 170 0 170 0 -2 1332 -3 1332 -1064 608 c-585 334
-1064 608 -1065 607 0 0 -478 -274 -1061 -608z m827 -153 c57 -44 71 -93 67
-240 -4 -119 -5 -126 -33 -162 -56 -74 -77 -78 -409 -74 l-294 3 -40 27 c-63
41 -73 74 -73 231 0 123 2 137 23 168 12 18 38 44 57 57 34 23 34 23 350 20
l317 -3 35 -27z m1179 9 c18 -12 44 -38 56 -56 21 -31 23 -45 23 -168 0 -155
-13 -195 -77 -234 -37 -24 -43 -24 -330 -27 -332 -4 -353 0 -409 73 -28 37
-29 43 -32 163 -5 167 12 214 93 256 25 13 78 16 336 16 302 0 307 0 340 -23z"/>
<path d="M1710 3325 l0 -85 255 0 255 0 0 85 0 85 -255 0 -255 0 0 -85z"/>
<path d="M2900 3325 l0 -85 255 0 255 0 0 85 0 85 -255 0 -255 0 0 -85z"/>
<path d="M940 2475 l0 -255 1620 0 1620 0 0 255 0 255 -1620 0 -1620 0 0 -255z
m2955 60 c38 -37 37 -88 -1 -122 l-25 -23 -1309 0 -1309 0 -25 23 c-38 34 -39
85 -1 122 l24 25 1311 0 1311 0 24 -25z"/>
<path d="M940 1240 l0 -810 85 0 85 0 0 269 c0 166 4 281 11 298 14 38 57 83
96 99 20 9 70 14 133 14 l100 0 0 272 c0 255 1 274 21 315 14 29 35 52 64 69
l43 25 314 -5 c377 -5 286 -5 643 1 198 3 312 1 337 -6 44 -14 93 -67 107
-118 6 -22 11 -146 11 -295 l0 -256 113 -6 c61 -3 123 -6 137 -5 294 7 612 9
638 4 40 -7 101 -59 118 -102 11 -24 14 -98 14 -303 l0 -270 85 0 85 0 0 810
0 810 -1620 0 -1620 0 0 -810z"/>
<path d="M1620 1365 l0 -255 255 0 255 0 0 255 0 255 -85 0 -85 0 0 -90 c0
-83 -2 -93 -25 -115 -16 -17 -35 -25 -57 -25 -66 1 -88 39 -88 149 l0 81 -85
0 -85 0 0 -255z"/>
<path d="M2300 1365 l0 -255 260 0 260 0 0 255 0 255 -84 0 -84 0 -4 -90 c-4
-77 -7 -93 -28 -115 -17 -18 -34 -25 -60 -25 -26 0 -43 7 -60 25 -21 22 -24
38 -28 115 l-4 90 -84 0 -84 0 0 -255z"/>
<path d="M1280 685 l0 -255 255 0 255 0 0 255 0 255 -85 0 -85 0 0 -89 c0 -80
-3 -93 -24 -117 -32 -38 -90 -38 -123 1 -20 23 -23 37 -23 116 l0 89 -85 0
-85 0 0 -255z"/>
<path d="M1960 685 l0 -255 255 0 255 0 0 255 0 255 -85 0 -85 0 0 -93 c0 -84
-2 -96 -22 -114 -32 -29 -53 -34 -88 -21 -44 15 -60 53 -60 148 l0 80 -85 0
-85 0 0 -255z"/>
<path d="M2650 685 l0 -255 255 0 255 0 0 255 0 255 -85 0 -85 0 0 -80 c0 -95
-16 -133 -60 -148 -35 -13 -56 -8 -87 21 -21 18 -23 30 -23 114 l0 93 -85 0
-85 0 0 -255z"/>
<path d="M3330 685 l0 -255 255 0 255 0 0 255 0 255 -85 0 -85 0 0 -89 c0 -79
-3 -93 -23 -116 -33 -39 -91 -39 -123 -1 -21 24 -24 37 -24 117 l0 89 -85 0
-85 0 0 -255z"/>
</g>
</svg>
