<?xml version="1.0" standalone="no"?>
<!DOCTYPE svg PUBLIC "-//W3C//DTD SVG 20010904//EN"
 "http://www.w3.org/TR/2001/REC-SVG-20010904/DTD/svg10.dtd">
<svg version="1.0" xmlns="http://www.w3.org/2000/svg"
 width="512.000000pt" height="512.000000pt" viewBox="0 0 512.000000 512.000000"
 preserveAspectRatio="xMidYMid meet">

<g transform="translate(0.000000,512.000000) scale(0.100000,-0.100000)"
fill="#3e4097" stroke="none">
<path d="M2475 5043 c-331 -313 -790 -548 -1263 -647 -211 -44 -498 -76 -688
-76 l-72 0 -7 -437 c-17 -971 24 -1474 160 -1949 98 -340 243 -638 442 -907
89 -119 351 -384 473 -478 274 -211 569 -372 923 -505 l117 -44 118 44 c353
133 648 294 922 505 122 94 384 359 473 478 199 269 344 567 442 907 136 475
177 978 160 1949 l-7 437 -72 0 c-191 0 -477 32 -691 77 -471 98 -921 329
-1262 647 -44 42 -83 76 -85 76 -1 -1 -39 -35 -83 -77z m805 -2038 l155 -155
-525 -525 -525 -525 -350 350 -350 350 158 157 157 158 193 -193 192 -192 365
365 c201 201 367 365 370 365 3 0 75 -70 160 -155z"/>
</g>
</svg>
