<?xml version="1.0" encoding="UTF-8"?>
<svg version="1.1" xmlns="http://www.w3.org/2000/svg" width="512" height="512">
<path d="M0 0 C1.12649963 0.30870136 1.12649963 0.30870136 2.27575684 0.62363911 C4.76430368 1.30852754 7.24795354 2.00968324 9.73193359 2.7109375 C11.52058187 3.20668155 13.30952016 3.70138026 15.09872437 4.19511414 C19.93659252 5.53311422 24.77045613 6.88508649 29.60375977 8.23946762 C34.69749327 9.6640615 39.79492748 11.07528241 44.89208984 12.48754883 C53.37064162 14.83812499 61.84727304 17.19550574 70.32275391 19.55712891 C82.406937 22.92337029 94.4977486 26.26527739 106.59130859 29.59765625 C107.54153522 29.8595084 108.49176186 30.12136055 109.47078323 30.39114761 C113.25161521 31.43296125 117.03247496 32.47467393 120.81340218 33.51614189 C125.26418084 34.74220094 129.71478008 35.96890212 134.16485596 37.19750977 C134.99892251 37.42773834 135.83298906 37.65796692 136.69233036 37.89517212 C138.36137958 38.35637386 140.03021582 38.818347 141.69883633 39.28109741 C145.88404306 40.44065138 150.07229277 41.58559886 154.26899719 42.70288086 C162.35390004 44.87021001 170.33937843 47.14965786 178.25218487 49.88693333 C216.42721788 63.03105711 253.16488129 62.86415664 293.04144633 62.31353575 C307.11756739 62.12082062 321.19488887 62.06187452 335.27212912 62.00993526 C340.18981732 61.98921332 345.10631294 61.94194345 350.02352893 61.87114453 C353.04898221 61.83038038 356.07443829 61.80514679 359.10008049 61.78321266 C360.49984521 61.76936814 361.89956072 61.74851535 363.2991066 61.72015572 C365.20616247 61.68220398 367.11369471 61.67098247 369.02110291 61.66116333 C370.61968596 61.6394189 370.61968596 61.6394189 372.25056362 61.61723518 C375.70212686 62.20448337 376.86318472 63.3764397 379.00537109 66.0859375 C379.51330566 68.05859375 379.51330566 68.05859375 379.52294922 70.1484375 C379.53555786 70.93605469 379.5481665 71.72367187 379.56115723 72.53515625 C379.54901184 73.79779297 379.54901184 73.79779297 379.53662109 75.0859375 C379.540448 75.95863281 379.5442749 76.83132812 379.54821777 77.73046875 C379.55093599 79.57292842 379.54358104 81.41542674 379.52685547 83.2578125 C379.50544357 86.07639684 379.52665911 88.89243235 379.55224609 91.7109375 C379.5496028 93.50260979 379.54447779 95.29428049 379.53662109 97.0859375 C379.54471802 97.92769531 379.55281494 98.76945312 379.56115723 99.63671875 C379.54224426 100.81814453 379.54224426 100.81814453 379.52294922 102.0234375 C379.51976685 102.71308594 379.51658447 103.40273437 379.51330566 104.11328125 C378.75852142 107.04462308 377.33766607 108.19311459 375.00537109 110.0859375 C372.20180893 110.57812881 372.20180893 110.57812881 368.90570068 110.56695557 C367.65490723 110.57245422 366.40411377 110.57795288 365.11541748 110.58361816 C363.73205182 110.56946251 362.34869004 110.55492328 360.96533203 110.54003906 C359.5066328 110.5389106 358.0479313 110.53954441 356.5892334 110.54180908 C352.63071984 110.54295724 348.67269062 110.51943183 344.71428967 110.49151325 C340.5769871 110.46651641 336.43967356 110.46415896 332.30230713 110.45941162 C324.46832123 110.44697677 316.63455848 110.41414835 308.80067086 110.37401366 C299.88179504 110.32931174 290.9629086 110.3073129 282.04394865 110.28723192 C263.69760389 110.24541604 245.35156507 110.17205743 227.00537109 110.0859375 C227.00537109 120.9759375 227.00537109 131.8659375 227.00537109 143.0859375 C228.98537109 143.7459375 230.96537109 144.4059375 233.00537109 145.0859375 C237.73594588 148.56727312 241.84466653 153.22023406 243.00537109 159.0859375 C243.81209065 167.53632483 243.557722 173.85573313 239.00537109 181.0859375 C238.32561032 182.41264301 237.65558551 183.74450415 237.00537109 185.0859375 C238.26027344 186.06820312 238.26027344 186.06820312 239.54052734 187.0703125 C243.36740132 190.06885397 247.18681858 193.07681055 251.00537109 196.0859375 C251.7046875 196.63588379 252.40400391 197.18583008 253.12451172 197.75244141 C255.1921322 199.38047775 257.25550121 201.01375723 259.31787109 202.6484375 C259.96957275 203.16051758 260.62127441 203.67259766 261.29272461 204.20019531 C265.89098213 207.85715958 265.89098213 207.85715958 267.00537109 210.0859375 C267.57409147 217.1380702 267.57409147 217.1380702 265.50537109 220.5859375 C262.05308006 222.65731212 258.89271198 222.71541139 255.00537109 222.0859375 C252.49624191 220.59539528 250.65346719 219.2898813 248.50537109 217.3984375 C247.62957397 216.66935181 247.62957397 216.66935181 246.73608398 215.92553711 C245.47991805 214.87903579 244.23016912 213.82479272 242.98632812 212.76367188 C240.21430342 210.41595758 237.38674881 208.13950543 234.56005859 205.8581543 C232.53523051 204.22302156 230.51724258 202.57986345 228.50146484 200.93359375 C225.68296223 198.63390862 222.85071984 196.35238612 220.00537109 194.0859375 C217.23881692 195.37702131 214.95575042 196.7924179 212.60693359 198.73828125 C211.97013672 199.26164063 211.33333984 199.785 210.67724609 200.32421875 C210.00177734 200.88496094 209.32630859 201.44570312 208.63037109 202.0234375 C207.18583634 203.21058242 205.74051016 204.39676492 204.29443359 205.58203125 C203.5715918 206.17483887 202.84875 206.76764648 202.10400391 207.37841797 C199.1020224 209.82093294 196.05793729 212.20715977 193.00537109 214.5859375 C187.95649851 218.52734804 182.96773493 222.5361923 178.00537109 226.5859375 C172.48197425 231.09353723 166.91352674 235.53436392 161.29443359 239.921875 C156.14124494 243.95581906 151.06867287 248.08519169 145.99926758 252.22363281 C140.79982926 256.46044752 135.54597018 260.62324533 130.25732422 264.74804688 C127.54006837 266.81117905 127.54006837 266.81117905 125.00537109 269.0859375 C187.04537109 269.0859375 249.08537109 269.0859375 313.00537109 269.0859375 C303.02771963 260.58424786 303.02771963 260.58424786 292.81787109 252.3984375 C291.65362167 251.4898228 290.48956069 250.58096658 289.32568359 249.671875 C288.76913086 249.23842773 288.21257812 248.80498047 287.63916016 248.35839844 C285.15123296 246.42070021 282.66835007 244.47702062 280.19287109 242.5234375 C279.40267578 241.90339844 278.61248047 241.28335938 277.79833984 240.64453125 C274.95564372 238.17342939 275.0068272 237.10399323 274.69287109 233.2109375 C274.75196482 230.25625097 274.93972145 229.19535357 276.50537109 226.5859375 C279.98277079 224.49949768 283.0999769 224.34586618 287.00537109 225.0859375 C289.88455701 226.65261781 292.20103804 228.71301338 294.63037109 230.8984375 C296.03822001 232.10403946 297.44709215 233.30844748 298.85693359 234.51171875 C299.55463867 235.11709473 300.25234375 235.7224707 300.97119141 236.34619141 C303.90791986 238.85784851 306.94809432 241.22383613 310.00537109 243.5859375 C315.76412608 248.07567469 321.4303464 252.67236111 327.08178711 257.29614258 C332.5010678 261.71477735 338.0320872 265.96608908 343.62646484 270.16015625 C346.00537109 272.0859375 346.00537109 272.0859375 347.00537109 274.0859375 C347.58141146 281.22883804 347.58141146 281.22883804 345.59558105 284.18358612 C341.63602423 287.09163933 337.93117976 286.63888143 333.13623047 286.59387207 C332.12291405 286.60011203 331.10959763 286.606352 330.06557465 286.61278105 C326.65985555 286.62877431 323.25484588 286.61608163 319.84912109 286.60351562 C317.41169821 286.60893391 314.97427861 286.6160549 312.53686523 286.62475586 C306.59767865 286.64112808 300.65867726 286.63869552 294.71949577 286.6271053 C289.8931398 286.6180762 285.06684051 286.61684469 280.24047852 286.62120056 C279.55388578 286.62181349 278.86729304 286.62242643 278.15989447 286.62305793 C276.76514751 286.62433682 275.37040057 286.62563367 273.97565365 286.6269483 C260.89334241 286.63835782 247.81114323 286.62523461 234.72885036 286.60374683 C223.50065531 286.58587547 212.27262566 286.58897948 201.04443359 286.60742188 C188.00933355 286.62882207 174.97433177 286.63725915 161.93921661 286.62497282 C160.54956565 286.62369861 159.15991467 286.62244112 157.77026367 286.62120056 C157.08650712 286.62058346 156.40275058 286.61996636 155.69827414 286.61933056 C150.87703184 286.61587509 146.0558518 286.62171021 141.23461914 286.63111877 C134.74705249 286.64350072 128.25972508 286.63470064 121.77218628 286.61154175 C119.38728354 286.60624022 117.00235456 286.60779294 114.61746216 286.61659241 C111.36945282 286.62747407 108.12245601 286.61387278 104.87451172 286.59387207 C103.44864872 286.6072564 103.44864872 286.6072564 101.99398041 286.62091112 C95.66911052 286.54502407 95.66911052 286.54502407 92.42370605 284.30028534 C90.71702116 281.63575678 90.48247921 279.32037168 90.37646484 276.18359375 C92.0988752 270.43865983 99.4036494 266.16507749 103.94287109 262.4609375 C104.69431396 261.84484619 105.44575684 261.22875488 106.2199707 260.59399414 C111.35266441 256.39915544 116.53683026 252.27572914 121.76489258 248.20068359 C126.22507769 244.71872634 130.62203437 241.16401108 135.00537109 237.5859375 C140.52870766 233.07826536 146.09721706 228.63750983 151.71630859 224.25 C156.18974084 220.74817295 160.60394663 217.17771071 165.00537109 213.5859375 C171.68520357 208.13723325 178.43220011 202.78257618 185.22607422 197.47705078 C188.44912875 194.9571599 191.66415347 192.42704433 194.88037109 189.8984375 C196.06523454 188.9674067 197.25012722 188.0364131 198.43505859 187.10546875 C199.28326172 186.43902344 200.13146484 185.77257812 201.00537109 185.0859375 C199.80155661 182.59232179 198.55108388 180.40450667 197.00537109 178.0859375 C196.46824629 171.31816499 196.46824629 171.31816499 198.06787109 167.6484375 C200.98819145 165.29334044 203.29999305 165.14982333 207.00537109 165.0859375 C210.04179308 166.42761233 211.74581552 167.79289089 213.94287109 170.2734375 C215.93964752 172.36157413 215.93964752 172.36157413 219.06787109 172.5234375 C221.94138481 172.2869191 221.94138481 172.2869191 223.88037109 170.9609375 C225.5339164 168.20502866 225.39902678 166.23518298 225.00537109 163.0859375 C222.32949851 159.64191222 219.11496678 159.04720528 215.06396484 157.9296875 C213.00537109 157.0859375 213.00537109 157.0859375 211.00537109 154.0859375 C211.00537109 139.5659375 211.00537109 125.0459375 211.00537109 110.0859375 C145.00537109 110.0859375 79.00537109 110.0859375 11.00537109 110.0859375 C11.00537109 226.2459375 11.00537109 342.4059375 11.00537109 462.0859375 C15.95537109 462.0859375 20.90537109 462.0859375 26.00537109 462.0859375 C32.75926965 464.33723702 36.96919308 468.22802509 41.00537109 474.0859375 C43.86805469 480.08319428 43.37352442 486.12697851 43.38037109 492.6484375 C43.40486328 493.88013672 43.42935547 495.11183594 43.45458984 496.38085938 C43.45845703 497.56357422 43.46232422 498.74628906 43.46630859 499.96484375 C43.47452637 501.0432251 43.48274414 502.12160645 43.49121094 503.23266602 C42.85341618 506.9783481 42.10254217 507.8694899 39.00537109 510.0859375 C35.69770631 510.69140938 32.42260313 510.63205385 29.06787109 510.60351562 C27.55507568 510.61402954 27.55507568 510.61402954 26.01171875 510.62475586 C22.67598995 510.64236968 19.34110861 510.6307006 16.00537109 510.6171875 C13.68896318 510.61988143 11.37255638 510.62376301 9.05615234 510.62878418 C4.20057411 510.63468384 -0.65470986 510.62610088 -5.51025391 510.60742188 C-11.73827537 510.58463246 -17.96560736 510.59775298 -24.19360352 510.62171173 C-28.97710375 510.63615682 -33.76044018 510.63156955 -38.54394531 510.62120056 C-40.84049562 510.61852973 -43.13706073 510.6218155 -45.43359375 510.63111877 C-48.64184031 510.64126277 -51.84896597 510.62581233 -55.05712891 510.60351562 C-56.00894043 510.61161255 -56.96075195 510.61970947 -57.94140625 510.62805176 C-64.35416006 510.54536751 -64.35416006 510.54536751 -67.58337402 508.22894287 C-69.45555448 505.38601718 -69.5114304 503.46261433 -69.52587891 500.0703125 C-69.53361328 498.31654297 -69.53361328 498.31654297 -69.54150391 496.52734375 C-69.52603516 495.30917969 -69.51056641 494.09101563 -69.49462891 492.8359375 C-69.51009766 491.63324219 -69.52556641 490.43054688 -69.54150391 489.19140625 C-69.50508052 480.89598043 -68.54996888 475.14312466 -63.02978516 468.84375 C-62.05332031 468.03550781 -62.05332031 468.03550781 -61.05712891 467.2109375 C-60.40873047 466.65664063 -59.76033203 466.10234375 -59.09228516 465.53125 C-51.62648145 460.38721392 -47.05123957 462.0859375 -36.99462891 462.0859375 C-36.99462891 345.9259375 -36.99462891 229.7659375 -36.99462891 110.0859375 C-42.27462891 110.0859375 -47.55462891 110.0859375 -52.99462891 110.0859375 C-52.94822266 112.06078125 -52.90181641 114.035625 -52.85400391 116.0703125 C-52.81648903 118.65883907 -52.78008857 121.24738196 -52.74462891 123.8359375 C-52.71111328 125.13789062 -52.67759766 126.43984375 -52.64306641 127.78125 C-52.62373047 129.65683594 -52.62373047 129.65683594 -52.60400391 131.5703125 C-52.57258301 133.29846191 -52.57258301 133.29846191 -52.54052734 135.06152344 C-53.10465656 138.81874531 -54.05569427 139.74815034 -56.99462891 142.0859375 C-59.57470703 142.59387207 -59.57470703 142.59387207 -62.52587891 142.60351562 C-63.63382812 142.61612427 -64.74177734 142.62873291 -65.88330078 142.64172363 C-67.6709082 142.62957825 -67.6709082 142.62957825 -69.49462891 142.6171875 C-71.33637695 142.62292786 -71.33637695 142.62292786 -73.21533203 142.62878418 C-75.8110435 142.63150592 -78.40678227 142.62412661 -81.00244141 142.60742188 C-84.9796249 142.58601825 -88.95500172 142.60721713 -92.93212891 142.6328125 C-95.45296623 142.63016927 -97.97380244 142.62504441 -100.49462891 142.6171875 C-101.68636719 142.62528442 -102.87810547 142.63338135 -104.10595703 142.64172363 C-105.76788086 142.62281067 -105.76788086 142.62281067 -107.46337891 142.60351562 C-108.43726562 142.60033325 -109.41115234 142.59715088 -110.41455078 142.59387207 C-113.73824288 141.93954378 -114.93400673 140.72702294 -116.99462891 138.0859375 C-117.44873047 135.06152344 -117.44873047 135.06152344 -117.38525391 131.5703125 C-117.37236328 130.31992188 -117.35947266 129.06953125 -117.34619141 127.78125 C-117.31267578 126.47929687 -117.27916016 125.17734375 -117.24462891 123.8359375 C-117.22658203 122.51851563 -117.20853516 121.20109375 -117.18994141 119.84375 C-117.14279162 116.59041442 -117.07698934 113.33854125 -116.99462891 110.0859375 C-117.81447266 110.13234375 -118.63431641 110.17875 -119.47900391 110.2265625 C-120.55666016 110.26265625 -121.63431641 110.29875 -122.74462891 110.3359375 C-123.81197266 110.38234375 -124.87931641 110.42875 -125.97900391 110.4765625 C-128.99462891 110.0859375 -128.99462891 110.0859375 -131.35205078 108.6328125 C-133.78860161 104.85485498 -133.56829679 101.49570896 -133.52587891 97.0859375 C-133.52970581 96.21324219 -133.53353271 95.34054688 -133.53747559 94.44140625 C-133.54019381 92.59894658 -133.53283885 90.75644826 -133.51611328 88.9140625 C-133.49470138 86.09547816 -133.51591692 83.27944265 -133.54150391 80.4609375 C-133.53886061 78.66926521 -133.5337356 76.87759451 -133.52587891 75.0859375 C-133.53397583 74.24417969 -133.54207275 73.40242188 -133.55041504 72.53515625 C-133.49190991 68.88054836 -133.35915628 66.6831395 -131.42871094 63.52050781 C-128.66372289 61.89091205 -126.79877906 61.86066311 -123.63638306 62.03009033 C-110.56103302 62.66414488 -101.87318172 55.57449178 -91.61962891 48.3359375 C-89.71802597 47.03299495 -87.81400551 45.73357443 -85.90771484 44.4375 C-81.9392715 41.73214924 -77.98494779 39.00782951 -74.04052734 36.26757812 C-65.11650621 30.07737619 -56.0873284 24.04334812 -47.07147217 17.98815918 C-44.29558233 16.12022476 -41.52431422 14.24565794 -38.75488281 12.36816406 C-37.88938812 11.78174133 -37.02389343 11.1953186 -36.13217163 10.59112549 C-34.53183946 9.50624271 -32.93218739 8.42035562 -31.33340454 7.33319092 C-29.90796322 6.36763563 -28.47753996 5.40938371 -27.04162598 4.45947266 C-25.67301582 3.54113516 -24.32443338 2.59225151 -22.99743652 1.61474609 C-22.34392212 1.15535645 -21.69040771 0.6959668 -21.01708984 0.22265625 C-20.45697205 -0.18895752 -19.89685425 -0.60057129 -19.31976318 -1.0246582 C-13.05463912 -3.42117711 -6.23070675 -1.79151851 0 0 Z M-0.99462891 18.0859375 C0.39550662 26.68013082 2.39197578 35.09804492 4.51928711 43.53271484 C5.07533184 45.74056133 5.62365142 47.95023532 6.17138672 50.16015625 C6.52314667 51.5652178 6.87534348 52.97017007 7.22802734 54.375 C7.54521729 55.64037598 7.86240723 56.90575195 8.18920898 58.20947266 C8.71733278 60.9603126 8.71733278 60.9603126 10.00537109 62.0859375 C11.89098627 62.18248477 13.78026565 62.20780991 15.66835022 62.20619202 C17.51311195 62.20825401 17.51311195 62.20825401 19.3951416 62.21035767 C20.77050805 62.20681806 22.14587426 62.20318324 23.52124023 62.19946289 C24.95979307 62.19918102 26.39834605 62.19933874 27.8368988 62.1999054 C31.75408252 62.20019339 35.67123589 62.19429634 39.58841252 62.18733144 C43.67770946 62.18109824 47.76700703 62.18049413 51.85630798 62.17930603 C59.60529507 62.17619261 67.35426812 62.16797909 75.10324901 62.15795654 C83.92293318 62.14679572 92.74261801 62.14128503 101.56230748 62.13626111 C119.71000332 62.12579648 137.85768608 62.10819684 156.00537109 62.0859375 C152.78482619 60.42225665 149.71254815 59.34016838 146.21142578 58.37207031 C145.02558395 58.04203003 143.83974213 57.71198975 142.6179657 57.37194824 C141.30441574 57.01090176 139.99084169 56.6499429 138.67724609 56.2890625 C137.28630709 55.90370479 135.8954659 55.5179939 134.50471497 55.13195801 C130.71498977 54.08121402 126.92383266 53.0357252 123.13237381 51.99125671 C119.14908814 50.8930991 115.16704828 49.79044102 111.18481445 48.68847656 C102.60779808 46.31613904 94.02892674 43.95055928 85.449646 41.58642578 C79.89189246 40.05486835 74.33460269 38.52163217 68.77734375 36.98828125 C58.60496596 34.18177985 48.43178104 31.37821653 38.25801086 28.57676697 C35.56131605 27.83413233 32.86470084 27.09120909 30.16809082 26.3482666 C25.9256814 25.17963021 21.6828808 24.01242467 17.43976402 22.84635925 C15.87127582 22.41512408 14.30290585 21.98345859 12.73465919 21.55134583 C10.59679106 20.9623882 8.45849398 20.3750156 6.32006836 19.78808594 C5.11826431 19.4575824 3.91646027 19.12707886 2.67823792 18.78656006 C0.3046788 18.04367786 0.3046788 18.04367786 -0.99462891 18.0859375 Z M-27.99462891 26.0859375 C-34.0963354 30.1057778 -40.19778877 34.12600207 -46.29907227 38.14648438 C-48.37160611 39.51213124 -50.44419636 40.8776925 -52.5168457 42.24316406 C-55.50828911 44.21396352 -58.49952472 46.18507801 -61.49072266 48.15625 C-62.40671738 48.75962189 -63.3227121 49.36299377 -64.26646423 49.98464966 C-66.00587837 51.13107152 -67.74447936 52.27872838 -69.48214722 53.42779541 C-71.20107827 54.56222435 -72.92352832 55.69133424 -74.6489563 56.81585693 C-75.47467133 57.35728333 -76.30038635 57.89870972 -77.15112305 58.45654297 C-77.89165421 58.9392868 -78.63218536 59.42203064 -79.39515686 59.91940308 C-79.92298264 60.30435944 -80.45080841 60.6893158 -80.99462891 61.0859375 C-80.99462891 61.4159375 -80.99462891 61.7459375 -80.99462891 62.0859375 C-66.14462891 62.0859375 -51.29462891 62.0859375 -35.99462891 62.0859375 C-33.61892923 54.95883848 -31.57168898 47.97483166 -29.74462891 40.7109375 C-29.46361328 39.63199219 -29.18259766 38.55304687 -28.89306641 37.44140625 C-28.63267578 36.40886719 -28.37228516 35.37632813 -28.10400391 34.3125 C-27.86649414 33.38002441 -27.62898438 32.44754883 -27.38427734 31.48681641 C-26.78200407 28.95027725 -26.78200407 28.95027725 -27.99462891 26.0859375 Z M-13.99462891 43.0859375 C-15.06142914 46.97533199 -16.0935812 50.87311205 -17.11962891 54.7734375 C-17.42255859 55.87623047 -17.72548828 56.97902344 -18.03759766 58.11523438 C-18.31474609 59.18193359 -18.59189453 60.24863281 -18.87744141 61.34765625 C-19.13928223 62.32694092 -19.40112305 63.30622559 -19.67089844 64.31518555 C-20.24196114 69.20281046 -17.84543492 72.56280164 -15.20947266 76.51171875 C-14.67902344 77.30771484 -14.14857422 78.10371094 -13.60205078 78.92382812 C-12.77543945 80.14875977 -12.77543945 80.14875977 -11.93212891 81.3984375 C-11.3771875 82.23439453 -10.82224609 83.07035156 -10.25048828 83.93164062 C-8.17812068 87.04819509 -8.17812068 87.04819509 -5.99462891 90.0859375 C-5.66462891 90.0859375 -5.33462891 90.0859375 -4.99462891 90.0859375 C-3.71411424 73.58152625 -7.51567344 58.90012182 -11.99462891 43.0859375 C-12.65462891 43.0859375 -13.31462891 43.0859375 -13.99462891 43.0859375 Z M-116.99462891 78.0859375 C-116.99462891 83.3659375 -116.99462891 88.6459375 -116.99462891 94.0859375 C-90.59462891 94.0859375 -64.19462891 94.0859375 -36.99462891 94.0859375 C-36.99462891 88.8059375 -36.99462891 83.5259375 -36.99462891 78.0859375 C-63.39462891 78.0859375 -89.79462891 78.0859375 -116.99462891 78.0859375 Z M11.00537109 78.0859375 C11.00537109 83.3659375 11.00537109 88.6459375 11.00537109 94.0859375 C17.8722485 93.14839775 17.8722485 93.14839775 23.28271484 89.9609375 C24.20761719 89.33703125 25.13251953 88.713125 26.08544922 88.0703125 C27.02839844 87.41546875 27.97134766 86.760625 28.94287109 86.0859375 C29.91289062 85.43109375 30.88291016 84.77625 31.88232422 84.1015625 C35.48853664 81.65588653 35.48853664 81.65588653 39.00537109 79.0859375 C39.00537109 78.7559375 39.00537109 78.4259375 39.00537109 78.0859375 C29.76537109 78.0859375 20.52537109 78.0859375 11.00537109 78.0859375 Z M95.00537109 78.0859375 C98.78762149 81.11173781 102.57798068 84.0690762 106.50537109 86.8984375 C107.06095703 87.31802734 107.61654297 87.73761719 108.18896484 88.16992188 C111.49572354 90.56432514 111.49572354 90.56432514 115.43969727 90.84838867 C118.06028347 90.06961898 119.93176951 89.11064712 122.21240234 87.6171875 C123.3387207 86.88435547 123.3387207 86.88435547 124.48779297 86.13671875 C125.25671875 85.62496094 126.02564453 85.11320312 126.81787109 84.5859375 C127.60613281 84.07417969 128.39439453 83.56242187 129.20654297 83.03515625 C132.147093 81.11934739 132.147093 81.11934739 135.00537109 79.0859375 C135.00537109 78.7559375 135.00537109 78.4259375 135.00537109 78.0859375 C121.80537109 78.0859375 108.60537109 78.0859375 95.00537109 78.0859375 Z M191.00537109 78.0859375 C194.78762149 81.11173781 198.57798068 84.0690762 202.50537109 86.8984375 C203.06095703 87.31802734 203.61654297 87.73761719 204.18896484 88.16992188 C207.49572354 90.56432514 207.49572354 90.56432514 211.43969727 90.84838867 C214.06028347 90.06961898 215.93176951 89.11064712 218.21240234 87.6171875 C219.3387207 86.88435547 219.3387207 86.88435547 220.48779297 86.13671875 C221.25671875 85.62496094 222.02564453 85.11320312 222.81787109 84.5859375 C223.60613281 84.07417969 224.39439453 83.56242187 225.20654297 83.03515625 C228.147093 81.11934739 228.147093 81.11934739 231.00537109 79.0859375 C231.00537109 78.7559375 231.00537109 78.4259375 231.00537109 78.0859375 C217.80537109 78.0859375 204.60537109 78.0859375 191.00537109 78.0859375 Z M287.00537109 78.0859375 C290.78762149 81.11173781 294.57798068 84.0690762 298.50537109 86.8984375 C299.06095703 87.31802734 299.61654297 87.73761719 300.18896484 88.16992188 C303.49572354 90.56432514 303.49572354 90.56432514 307.43969727 90.84838867 C310.06028347 90.06961898 311.93176951 89.11064712 314.21240234 87.6171875 C315.3387207 86.88435547 315.3387207 86.88435547 316.48779297 86.13671875 C317.25671875 85.62496094 318.02564453 85.11320312 318.81787109 84.5859375 C319.60613281 84.07417969 320.39439453 83.56242187 321.20654297 83.03515625 C324.147093 81.11934739 324.147093 81.11934739 327.00537109 79.0859375 C327.00537109 78.7559375 327.00537109 78.4259375 327.00537109 78.0859375 C313.80537109 78.0859375 300.60537109 78.0859375 287.00537109 78.0859375 Z M352.48583984 81.33203125 C351.46425781 82.00427734 350.44267578 82.67652344 349.39013672 83.36914062 C348.33503906 84.08005859 347.27994141 84.79097656 346.19287109 85.5234375 C345.1184375 86.23048828 344.04400391 86.93753906 342.93701172 87.66601562 C338.92805443 90.31406419 338.92805443 90.31406419 335.00537109 93.0859375 C335.00537109 93.4159375 335.00537109 93.7459375 335.00537109 94.0859375 C344.24537109 94.0859375 353.48537109 94.0859375 363.00537109 94.0859375 C363.00537109 88.8059375 363.00537109 83.5259375 363.00537109 78.0859375 C357.72326348 78.0859375 356.67983141 78.5488934 352.48583984 81.33203125 Z M60.67724609 83.67578125 C59.87802734 84.21267578 59.07880859 84.74957031 58.25537109 85.30273438 C57.43037109 85.87056641 56.60537109 86.43839844 55.75537109 87.0234375 C54.91490234 87.58740234 54.07443359 88.15136719 53.20849609 88.73242188 C50.06464621 90.85036077 50.06464621 90.85036077 47.00537109 93.0859375 C47.00537109 93.4159375 47.00537109 93.7459375 47.00537109 94.0859375 C60.20537109 94.0859375 73.40537109 94.0859375 87.00537109 94.0859375 C83.21366358 91.05257149 79.4041385 88.13480768 75.44287109 85.3359375 C74.87890625 84.92472656 74.31494141 84.51351562 73.73388672 84.08984375 C68.7026068 80.54735192 65.74977581 80.24151141 60.67724609 83.67578125 Z M156.67724609 83.67578125 C155.87802734 84.21267578 155.07880859 84.74957031 154.25537109 85.30273438 C153.43037109 85.87056641 152.60537109 86.43839844 151.75537109 87.0234375 C150.91490234 87.58740234 150.07443359 88.15136719 149.20849609 88.73242188 C146.06464621 90.85036077 146.06464621 90.85036077 143.00537109 93.0859375 C143.00537109 93.4159375 143.00537109 93.7459375 143.00537109 94.0859375 C156.20537109 94.0859375 169.40537109 94.0859375 183.00537109 94.0859375 C179.21366358 91.05257149 175.4041385 88.13480768 171.44287109 85.3359375 C170.87890625 84.92472656 170.31494141 84.51351562 169.73388672 84.08984375 C164.7026068 80.54735192 161.74977581 80.24151141 156.67724609 83.67578125 Z M252.67724609 83.67578125 C251.87802734 84.21267578 251.07880859 84.74957031 250.25537109 85.30273438 C249.43037109 85.87056641 248.60537109 86.43839844 247.75537109 87.0234375 C246.91490234 87.58740234 246.07443359 88.15136719 245.20849609 88.73242188 C242.06464621 90.85036077 242.06464621 90.85036077 239.00537109 93.0859375 C239.00537109 93.4159375 239.00537109 93.7459375 239.00537109 94.0859375 C252.20537109 94.0859375 265.40537109 94.0859375 279.00537109 94.0859375 C275.21366358 91.05257149 271.4041385 88.13480768 267.44287109 85.3359375 C266.87890625 84.92472656 266.31494141 84.51351562 265.73388672 84.08984375 C260.7026068 80.54735192 257.74977581 80.24151141 252.67724609 83.67578125 Z M-20.99462891 98.0859375 C-20.99462891 111.2859375 -20.99462891 124.4859375 -20.99462891 138.0859375 C-17.96882859 134.30368711 -15.01149021 130.51332791 -12.18212891 126.5859375 C-11.76253906 126.03035156 -11.34294922 125.47476563 -10.91064453 124.90234375 C-8.51624127 121.59558505 -8.51624127 121.59558505 -8.23217773 117.65161133 C-9.01094743 115.03102512 -9.96991928 113.15953909 -11.46337891 110.87890625 C-11.95193359 110.12802734 -12.44048828 109.37714844 -12.94384766 108.60351562 C-13.45560547 107.83458984 -13.96736328 107.06566406 -14.49462891 106.2734375 C-15.00638672 105.48517578 -15.51814453 104.69691406 -16.04541016 103.88476562 C-17.96121901 100.94421559 -17.96121901 100.94421559 -19.99462891 98.0859375 C-20.32462891 98.0859375 -20.65462891 98.0859375 -20.99462891 98.0859375 Z M-100.99462891 110.0859375 C-100.99462891 115.3659375 -100.99462891 120.6459375 -100.99462891 126.0859375 C-90.43462891 126.0859375 -79.87462891 126.0859375 -68.99462891 126.0859375 C-68.99462891 120.8059375 -68.99462891 115.5259375 -68.99462891 110.0859375 C-79.55462891 110.0859375 -90.11462891 110.0859375 -100.99462891 110.0859375 Z M-5.99462891 146.0859375 C-8.17950135 148.87791155 -10.12667747 151.84275948 -12.11962891 154.7734375 C-12.98394531 155.99836914 -12.98394531 155.99836914 -13.86572266 157.24804688 C-14.40583984 158.04404297 -14.94595703 158.84003906 -15.50244141 159.66015625 C-16.00404785 160.38807373 -16.5056543 161.11599121 -17.02246094 161.8659668 C-18.28629936 164.75197453 -17.96143739 166.11849399 -16.99462891 169.0859375 C-15.9150791 171.24699741 -15.9150791 171.24699741 -14.52587891 173.29296875 C-14.03732422 174.04384766 -13.54876953 174.79472656 -13.04541016 175.56835938 C-12.53365234 176.33728516 -12.02189453 177.10621094 -11.49462891 177.8984375 C-10.98287109 178.68669922 -10.47111328 179.47496094 -9.94384766 180.28710938 C-8.0280388 183.22765941 -8.0280388 183.22765941 -5.99462891 186.0859375 C-5.66462891 186.0859375 -5.33462891 186.0859375 -4.99462891 186.0859375 C-4.99462891 172.8859375 -4.99462891 159.6859375 -4.99462891 146.0859375 C-5.32462891 146.0859375 -5.65462891 146.0859375 -5.99462891 146.0859375 Z M-20.99462891 194.0859375 C-20.99462891 207.2859375 -20.99462891 220.4859375 -20.99462891 234.0859375 C-17.96882859 230.30368711 -15.01149021 226.51332791 -12.18212891 222.5859375 C-11.76253906 222.03035156 -11.34294922 221.47476563 -10.91064453 220.90234375 C-8.51624127 217.59558505 -8.51624127 217.59558505 -8.23217773 213.65161133 C-9.01094743 211.03102512 -9.96991928 209.15953909 -11.46337891 206.87890625 C-11.95193359 206.12802734 -12.44048828 205.37714844 -12.94384766 204.60351562 C-13.45560547 203.83458984 -13.96736328 203.06566406 -14.49462891 202.2734375 C-15.00638672 201.48517578 -15.51814453 200.69691406 -16.04541016 199.88476562 C-17.96121901 196.94421559 -17.96121901 196.94421559 -19.99462891 194.0859375 C-20.32462891 194.0859375 -20.65462891 194.0859375 -20.99462891 194.0859375 Z M-5.99462891 242.0859375 C-8.17950135 244.87791155 -10.12667747 247.84275948 -12.11962891 250.7734375 C-12.98394531 251.99836914 -12.98394531 251.99836914 -13.86572266 253.24804688 C-14.40583984 254.04404297 -14.94595703 254.84003906 -15.50244141 255.66015625 C-16.00404785 256.38807373 -16.5056543 257.11599121 -17.02246094 257.8659668 C-18.28629936 260.75197453 -17.96143739 262.11849399 -16.99462891 265.0859375 C-15.9150791 267.24699741 -15.9150791 267.24699741 -14.52587891 269.29296875 C-14.03732422 270.04384766 -13.54876953 270.79472656 -13.04541016 271.56835938 C-12.53365234 272.33728516 -12.02189453 273.10621094 -11.49462891 273.8984375 C-10.98287109 274.68669922 -10.47111328 275.47496094 -9.94384766 276.28710938 C-8.0280388 279.22765941 -8.0280388 279.22765941 -5.99462891 282.0859375 C-5.66462891 282.0859375 -5.33462891 282.0859375 -4.99462891 282.0859375 C-4.99462891 268.8859375 -4.99462891 255.6859375 -4.99462891 242.0859375 C-5.32462891 242.0859375 -5.65462891 242.0859375 -5.99462891 242.0859375 Z M-20.99462891 290.0859375 C-20.99462891 303.2859375 -20.99462891 316.4859375 -20.99462891 330.0859375 C-17.96882859 326.30368711 -15.01149021 322.51332791 -12.18212891 318.5859375 C-11.76253906 318.03035156 -11.34294922 317.47476562 -10.91064453 316.90234375 C-8.51624127 313.59558505 -8.51624127 313.59558505 -8.23217773 309.65161133 C-9.01094743 307.03102512 -9.96991928 305.15953909 -11.46337891 302.87890625 C-11.95193359 302.12802734 -12.44048828 301.37714844 -12.94384766 300.60351562 C-13.45560547 299.83458984 -13.96736328 299.06566406 -14.49462891 298.2734375 C-15.00638672 297.48517578 -15.51814453 296.69691406 -16.04541016 295.88476562 C-17.96121901 292.94421559 -17.96121901 292.94421559 -19.99462891 290.0859375 C-20.32462891 290.0859375 -20.65462891 290.0859375 -20.99462891 290.0859375 Z M-5.99462891 338.0859375 C-8.17950135 340.87791155 -10.12667747 343.84275948 -12.11962891 346.7734375 C-12.98394531 347.99836914 -12.98394531 347.99836914 -13.86572266 349.24804688 C-14.40583984 350.04404297 -14.94595703 350.84003906 -15.50244141 351.66015625 C-16.00404785 352.38807373 -16.5056543 353.11599121 -17.02246094 353.8659668 C-18.28629936 356.75197453 -17.96143739 358.11849399 -16.99462891 361.0859375 C-15.9150791 363.24699741 -15.9150791 363.24699741 -14.52587891 365.29296875 C-14.03732422 366.04384766 -13.54876953 366.79472656 -13.04541016 367.56835938 C-12.53365234 368.33728516 -12.02189453 369.10621094 -11.49462891 369.8984375 C-10.98287109 370.68669922 -10.47111328 371.47496094 -9.94384766 372.28710938 C-8.0280388 375.22765941 -8.0280388 375.22765941 -5.99462891 378.0859375 C-5.66462891 378.0859375 -5.33462891 378.0859375 -4.99462891 378.0859375 C-4.99462891 364.8859375 -4.99462891 351.6859375 -4.99462891 338.0859375 C-5.32462891 338.0859375 -5.65462891 338.0859375 -5.99462891 338.0859375 Z M-20.99462891 386.0859375 C-20.99462891 399.2859375 -20.99462891 412.4859375 -20.99462891 426.0859375 C-17.96882859 422.30368711 -15.01149021 418.51332791 -12.18212891 414.5859375 C-11.76253906 414.03035156 -11.34294922 413.47476562 -10.91064453 412.90234375 C-8.51624127 409.59558505 -8.51624127 409.59558505 -8.23217773 405.65161133 C-9.01094743 403.03102512 -9.96991928 401.15953909 -11.46337891 398.87890625 C-11.95193359 398.12802734 -12.44048828 397.37714844 -12.94384766 396.60351562 C-13.45560547 395.83458984 -13.96736328 395.06566406 -14.49462891 394.2734375 C-15.00638672 393.48517578 -15.51814453 392.69691406 -16.04541016 391.88476562 C-17.96121901 388.94421559 -17.96121901 388.94421559 -19.99462891 386.0859375 C-20.32462891 386.0859375 -20.65462891 386.0859375 -20.99462891 386.0859375 Z M-5.99462891 434.0859375 C-8.65749747 437.71624955 -11.08261149 441.51316355 -13.55712891 445.2734375 C-14.26804687 446.32853516 -14.97896484 447.38363281 -15.71142578 448.47070312 C-16.38367188 449.49228516 -17.05591797 450.51386719 -17.74853516 451.56640625 C-18.37058838 452.50379639 -18.9926416 453.44118652 -19.63354492 454.40698242 C-21.37209282 457.32806665 -21.37209282 457.32806665 -20.99462891 462.0859375 C-15.71462891 462.0859375 -10.43462891 462.0859375 -4.99462891 462.0859375 C-4.99462891 452.8459375 -4.99462891 443.6059375 -4.99462891 434.0859375 C-5.32462891 434.0859375 -5.65462891 434.0859375 -5.99462891 434.0859375 Z M-50.99462891 481.0859375 C-53.77523072 485.5096222 -52.99462891 488.44718381 -52.99462891 494.0859375 C-26.59462891 494.0859375 -0.19462891 494.0859375 27.00537109 494.0859375 C27.25850354 486.27875839 27.25850354 486.27875839 24.00537109 480.0859375 C20.17366018 478.10333407 16.93474257 477.82906739 12.65795898 477.8112793 C11.39637466 477.80174728 10.13479034 477.79221527 8.8349762 477.78239441 C7.46599296 477.78265586 6.09700971 477.783593 4.72802734 477.78515625 C3.31465022 477.78126584 1.90127425 477.77693046 0.48789978 477.77217102 C-2.47010086 477.76472271 -5.42798212 477.76499 -8.38598633 477.77026367 C-12.16658459 477.7760573 -15.94669277 477.75912366 -19.72721004 477.735919 C-22.64497204 477.72114926 -25.56261687 477.72031432 -28.48040962 477.72342873 C-29.87379489 477.72291717 -31.26718701 477.71771052 -32.66053581 477.70761681 C-34.61292622 477.69520784 -36.5654161 477.7040075 -38.51782227 477.71362305 C-39.6263707 477.71299362 -40.73491913 477.7123642 -41.87705994 477.7117157 C-45.48513057 478.14481556 -47.89268726 479.21925751 -50.99462891 481.0859375 Z " fill="#3e4097" transform="translate(132.99462890625,1.9140625)"/>
<path d="M0 0 C1.0358499 -0.00453111 2.07169979 -0.00906223 3.13893908 -0.01373065 C6.61494396 -0.02640556 10.09079278 -0.02475226 13.56681824 -0.02310181 C16.05700889 -0.02908512 18.54719769 -0.03589021 21.03738403 -0.04345703 C27.10272426 -0.05930654 33.16800297 -0.0655663 39.23335818 -0.06668179 C44.16452639 -0.06763259 49.09568178 -0.07174448 54.02684593 -0.07808304 C68.0125186 -0.09569401 81.9981606 -0.10492217 95.98384444 -0.10342209 C97.11449655 -0.10330222 97.11449655 -0.10330222 98.26799011 -0.10317993 C99.40002535 -0.10305729 99.40002535 -0.10305729 100.55492999 -0.10293217 C112.7839286 -0.10211938 125.012804 -0.12125553 137.24176697 -0.14945666 C149.80319052 -0.17819552 162.36455401 -0.1919964 174.92601126 -0.19026911 C181.97638031 -0.18960554 189.02662021 -0.19508337 196.07695961 -0.21662521 C202.70816413 -0.2367568 209.33914261 -0.23615305 215.97037697 -0.22159195 C218.40359902 -0.2194989 220.83683801 -0.22423411 223.27003098 -0.23631287 C226.59318381 -0.25174044 229.91539299 -0.24247258 233.23852539 -0.22705078 C234.20011293 -0.23733791 235.16170046 -0.24762503 236.15242702 -0.25822389 C243.31266066 -0.18485614 248.62069837 1.47284886 254.05192566 6.23226929 C254.59075378 6.88324585 255.12958191 7.53422241 255.68473816 8.20492554 C256.23903503 8.85332397 256.79333191 9.50172241 257.36442566 10.16976929 C261.84385913 16.67100111 261.48437544 23.6388347 260.80973816 31.26742554 C259.13924122 37.88597671 254.36462436 42.52438698 248.80973816 46.26742554 C247.48454125 46.63176334 246.15151446 46.96989363 244.80973816 47.26742554 C244.81342533 47.99703491 244.8171125 48.72664429 244.82091141 49.47836304 C244.90932713 67.24805977 244.97547921 85.01771248 245.01698685 102.7875824 C245.03759423 111.38104156 245.06567982 119.97435371 245.11149597 128.56771851 C245.15141974 136.05948169 245.17718423 143.55113838 245.18609214 151.04300499 C245.19129755 155.00832685 245.20349374 158.97334408 245.23265839 162.93856812 C245.25991532 166.6748775 245.26816262 170.4107583 245.26216888 174.14715767 C245.2637849 176.16386013 245.28525373 178.18051648 245.30741882 180.19709778 C245.2680857 188.88269347 244.23667298 194.29939574 238.43473816 201.01742554 C231.66262886 206.82209065 226.91925805 208.41651692 218.15075684 208.41459656 C217.25545657 208.41827325 216.3601563 208.42194993 215.43772572 208.42573804 C212.42541227 208.43678711 209.41313331 208.4406208 206.40080261 208.44442749 C204.24587901 208.45069122 202.09095649 208.45733794 199.93603516 208.46434021 C194.07223005 208.4817584 188.20843311 208.49230425 182.34460855 208.50054574 C178.68192862 208.50569426 175.01925124 208.51177007 171.3565731 208.51805687 C159.89937082 208.53711141 148.44217499 208.55134188 136.9849599 208.55966884 C123.75506584 208.56944259 110.52533903 208.59576477 97.29550391 208.63616973 C87.07289624 208.66632006 76.85033653 208.6811367 66.62768525 208.68444985 C60.52071002 208.68680159 54.41391343 208.69577835 48.30698586 208.72091103 C42.5605824 208.74417757 36.81447536 208.74843051 31.06803703 208.73814964 C28.96054728 208.73765383 26.853043 208.74398762 24.74559784 208.75770569 C21.86458956 208.77540767 18.98464697 208.76832649 16.1036377 208.75517273 C15.27297816 208.76614198 14.44231863 208.77711122 13.58648759 208.78841287 C6.50163262 208.71051383 1.41056442 206.51359367 -3.94026184 201.89242554 C-8.81463902 196.20565217 -11.31709331 191.98213585 -11.31051636 184.47782898 C-11.31189102 183.27048096 -11.31326569 182.06313293 -11.31468201 180.81919861 C-11.31114289 179.4794309 -11.30750808 178.13966345 -11.30378723 176.79989624 C-11.30350519 175.39060468 -11.30366342 173.98131296 -11.30422974 172.57202148 C-11.30451705 168.74379599 -11.29863089 164.91560173 -11.29165578 161.08738351 C-11.28541136 157.08751855 -11.28481758 153.0876529 -11.28363037 149.08778381 C-11.28052027 141.5124014 -11.2723112 133.93703339 -11.26228088 126.36165732 C-11.25110978 117.73781186 -11.24560678 109.11396571 -11.24058545 100.49011481 C-11.23012834 82.74921021 -11.21253509 65.00831903 -11.19026184 47.26742554 C-12.13877014 46.96796021 -13.08727844 46.66849487 -14.06452942 46.35995483 C-19.72582452 44.38117677 -22.98558007 40.17159995 -26.12776184 35.20492554 C-28.55693099 28.49434576 -28.56617669 19.37422956 -25.69026184 12.82992554 C-19.52284882 2.62406413 -11.2518844 -0.03599103 0 0 Z M-9.19026184 19.26742554 C-10.61068005 22.10826195 -10.50478456 24.12219831 -10.19026184 27.26742554 C-7.95819753 30.11523173 -6.64033186 31.1174022 -3.19026184 32.26742554 C-1.0030679 32.36494708 1.18702652 32.40080362 3.37638855 32.40545654 C4.3816123 32.40968846 4.3816123 32.40968846 5.40714359 32.41400588 C7.65723886 32.42235243 9.90728492 32.42369015 12.15739441 32.42514038 C13.76871377 32.42980843 15.38003182 32.43495198 16.99134827 32.4405365 C20.46335222 32.45181816 23.93534758 32.46025189 27.40736389 32.46665573 C32.89446724 32.47732754 38.38150876 32.4975689 43.86857605 32.51977539 C59.47230711 32.58173142 75.07603427 32.63575829 90.67985535 32.66879272 C99.2959899 32.6871139 107.9120207 32.71601545 116.52807903 32.75679743 C121.08945 32.7779044 125.65069004 32.79332995 130.21211243 32.79560471 C134.50001312 32.79774565 138.78764088 32.81355786 143.07545853 32.83999443 C144.6512667 32.8472093 146.22710787 32.84927785 147.80292892 32.84589195 C149.94997462 32.8420147 152.09614105 32.85639332 154.24308777 32.87542725 C156.04718361 32.88039247 156.04718361 32.88039247 157.88772583 32.88545799 C160.80973816 33.26742554 160.80973816 33.26742554 162.69525146 34.67083168 C164.08469819 36.6613284 164.21216529 37.8538376 164.18473816 40.26742554 C164.19247253 40.94805054 164.20020691 41.62867554 164.20817566 42.32992554 C163.67333811 44.93070419 162.9335775 45.67115536 160.80973816 47.26742554 C158.00428486 47.65218639 158.00428486 47.65218639 154.52661133 47.66615295 C153.2098793 47.6786911 151.89314728 47.69122925 150.53651428 47.70414734 C149.0739591 47.70297322 147.61140413 47.70151404 146.14884949 47.69979858 C144.61147267 47.70881293 143.07410307 47.71913934 141.53674316 47.73068237 C137.35934924 47.75831722 133.18209144 47.76754564 129.00461793 47.77353644 C124.64034241 47.7829033 120.27616926 47.80910526 115.91195679 47.83354187 C107.64599017 47.87725716 99.38004336 47.90577319 91.11399621 47.92886525 C81.7041316 47.95589002 72.2943697 47.99980316 62.88457835 48.04515398 C43.52635246 48.13807226 24.16809942 48.20972005 4.80973816 48.26742554 C4.71626446 65.89596136 4.64574416 83.52441975 4.60248947 101.15314674 C4.58187104 109.33862216 4.5537643 117.52394353 4.50798035 125.70932007 C4.46809043 132.84435199 4.44230011 139.97927233 4.43338418 147.11441267 C4.42817303 150.89188219 4.41594031 154.66903254 4.38681793 158.44639969 C4.35961448 162.00377941 4.35130292 165.56070927 4.35730743 169.11818314 C4.35568685 171.04223628 4.33418976 172.96624071 4.3120575 174.89016724 C4.28372276 183.42880416 4.28372276 183.42880416 8.80973816 190.26742554 C12.73837321 192.58459868 16.40010885 192.51044376 20.89494324 192.49447632 C21.58817688 192.49476837 22.28141052 192.49506042 22.99565125 192.49536133 C25.2736539 192.4939745 27.55132431 192.4784442 29.82926941 192.46273804 C31.41395896 192.4590056 32.99865082 192.45615972 34.58334351 192.4541626 C38.74428229 192.44654431 42.90508037 192.42691142 47.06596375 192.40475464 C51.31582232 192.38425725 55.56570373 192.37515257 59.81559753 192.36508179 C68.14704215 192.34366374 76.47837263 192.30954969 84.80973816 192.26742554 C84.8152066 191.11016968 84.8152066 191.11016968 84.82078552 189.92953491 C84.85876833 182.63254075 84.91573638 175.33605135 84.9936409 168.03938293 C85.03302654 164.28872007 85.06525819 160.53828884 85.08073425 156.78744507 C85.09596035 153.162626 85.1305091 149.53844411 85.17804718 145.91390991 C85.19280015 144.53619956 85.20077566 143.15839821 85.20162201 141.78060913 C85.21257932 132.8812349 85.54175315 126.21332315 91.55583191 119.24398804 C92.11399597 118.79797241 92.67216003 118.35195679 93.24723816 117.89242554 C94.08061707 117.20019897 94.08061707 117.20019897 94.93083191 116.49398804 C101.111617 112.45913041 107.41022008 112.89510945 114.56486511 112.89682007 C116.60633102 112.89245951 118.64560896 112.85613688 120.68669128 112.81820679 C129.2911153 112.7927122 135.14428275 113.24144374 141.83317566 119.01351929 C142.27919128 119.57168335 142.72520691 120.12984741 143.18473816 120.70492554 C143.87696472 121.53830444 143.87696472 121.53830444 144.58317566 122.38851929 C147.40484341 126.71088294 148.06706352 130.50165162 148.12858582 135.61825562 C148.15839035 137.50965019 148.15839035 137.50965019 148.188797 139.43925476 C148.20067152 140.80515366 148.21233449 142.1710544 148.22380066 143.53695679 C148.24252267 144.94229761 148.26209685 146.34762732 148.28248596 147.75294495 C148.33370433 151.44028148 148.37338482 155.12765441 148.41062927 158.81515503 C148.45073375 162.58253916 148.5017966 166.3497732 148.55192566 170.11703491 C148.64856291 177.5003953 148.73300635 184.8838286 148.80973816 192.26742554 C157.96332573 192.33702357 167.11682181 192.39028646 176.27061653 192.42286205 C180.52138255 192.43849897 184.77196716 192.45970098 189.02262878 192.4937439 C193.12695467 192.52640806 197.23110635 192.5442934 201.33555222 192.55205727 C202.89921179 192.55758814 204.46286214 192.56838866 206.0264473 192.58461571 C208.22150818 192.6064844 210.4158549 192.60938861 212.61100769 192.60800171 C214.48298325 192.61799446 214.48298325 192.61799446 216.39277649 192.62818909 C220.25179024 192.22075358 222.5666379 191.38940478 225.80973816 189.26742554 C228.50068912 185.59198184 229.1830263 183.024446 229.17050171 178.50306702 C229.1746257 177.35186874 229.17874969 176.20067047 229.18299866 175.0145874 C229.17221283 173.76086334 229.161427 172.50713928 229.15031433 171.21542358 C229.14946763 169.87480183 229.14994405 168.53417869 229.15164185 167.19355774 C229.15250155 163.56161584 229.13488007 159.929972 229.11391997 156.29809928 C229.09514891 152.49978893 229.0934024 148.70147153 229.08984375 144.90312195 C229.08052453 137.7137813 229.05591247 130.52457773 229.02579528 123.33529741 C228.9922474 115.14914133 228.97576429 106.96297867 228.96070898 98.77677095 C228.92936276 81.94024227 228.87660472 65.10385141 228.80973816 48.26742554 C227.49255798 48.25284302 226.17537781 48.2382605 224.81828308 48.22323608 C219.93714578 48.1653184 215.05647298 48.08808518 210.17570496 48.00497437 C208.0621748 47.97169426 205.9485551 47.94367201 203.83488464 47.92098999 C200.7987701 47.88750081 197.76347841 47.8351879 194.72770691 47.77914429 C193.78074448 47.77275436 192.83378204 47.76636444 191.85812378 47.75978088 C190.97743729 47.73998672 190.09675079 47.72019257 189.18937683 47.69979858 C188.41438339 47.68869553 187.63938995 47.67759247 186.84091187 47.66615295 C184.29427074 47.16623725 183.39395405 46.28580974 181.80973816 44.26742554 C181.41130066 42.32992554 181.41130066 42.32992554 181.43473816 40.26742554 C181.42700378 39.58680054 181.41926941 38.90617554 181.41130066 38.20492554 C181.93733385 35.6469602 182.76324124 34.87251569 184.80973816 33.26742554 C187.10424805 32.8888855 187.10424805 32.8888855 189.82853699 32.88265991 C190.85002335 32.87254883 191.8715097 32.86243774 192.9239502 32.85202026 C194.02708054 32.8550415 195.13021088 32.85806274 196.26676941 32.86117554 C197.40248886 32.85033936 198.53820831 32.83950317 199.70834351 32.82833862 C203.34636605 32.79399954 206.98407468 32.77847138 210.62223816 32.76742554 C215.39988407 32.75285665 220.17682875 32.71914338 224.95426941 32.67367554 C226.05132706 32.67669678 227.1483847 32.67971802 228.27868652 32.68283081 C233.82605478 32.62842439 238.07764159 32.52798887 242.80973816 29.26742554 C244.23015637 26.42658912 244.12426088 24.41265276 243.80973816 21.26742554 C241.57767385 18.41961935 240.25980817 17.41744888 236.80973816 16.26742554 C235.44524668 16.17597327 234.07673632 16.13835008 232.7091856 16.13599777 C231.45175376 16.13023605 231.45175376 16.13023605 230.16891927 16.12435794 C229.24792292 16.12522442 228.32692657 16.1260909 227.37802124 16.12698364 C226.39963879 16.12401252 225.42125635 16.1210414 224.41322595 16.11798024 C221.11985102 16.109277 217.82651237 16.10778362 214.53312683 16.10629272 C212.17791669 16.10166572 209.82270729 16.09664122 207.46749878 16.09124756 C200.38968273 16.07674003 193.31187446 16.07073798 186.23404619 16.06585205 C182.90104861 16.06327463 179.56805235 16.0594844 176.23505592 16.05573273 C165.15599691 16.04354015 154.07693984 16.03324078 142.99787426 16.02985764 C142.28876229 16.02963807 141.57965033 16.0294185 140.84905012 16.02919228 C139.78283443 16.02886487 139.78283443 16.02886487 138.69507903 16.02853084 C137.25470173 16.02808737 135.81432444 16.02764081 134.37394714 16.02719116 C133.65946997 16.02696973 132.94499279 16.0267483 132.20886479 16.02652016 C120.63153094 16.02257207 109.05426003 16.00511767 97.47695049 15.98183164 C85.5913536 15.95811846 73.70578829 15.9456558 61.82016736 15.94448972 C55.14656231 15.94357294 48.47302807 15.93750174 41.7994442 15.9196701 C35.52286564 15.90322583 29.24644292 15.90101625 22.96985054 15.90980911 C20.6647945 15.91058143 18.35973021 15.90621133 16.05469513 15.89635086 C12.9104118 15.88368798 9.7666851 15.88947763 6.62240601 15.89993286 C5.70810182 15.89187646 4.79379764 15.88382005 3.85178727 15.87551951 C-1.23201703 15.91511417 -4.80273232 16.39753426 -9.19026184 19.26742554 Z M102.80973816 131.26742554 C100.9486559 134.91842419 100.56432974 137.90946043 100.58268738 141.97567749 C100.58283844 143.09646194 100.5829895 144.2172464 100.58314514 145.37199402 C100.59346771 146.57111923 100.60379028 147.77024445 100.61442566 149.00570679 C100.61725555 150.24161057 100.62008545 151.47751434 100.6230011 152.75086975 C100.63228598 156.02407551 100.65023183 159.29708198 100.67240906 162.57022095 C100.69292999 165.91523402 100.70184548 169.26025579 100.71208191 172.60531616 C100.7324176 179.15951092 100.77157063 185.71321329 100.80973816 192.26742554 C111.36973816 192.26742554 121.92973816 192.26742554 132.80973816 192.26742554 C132.87864621 184.40169908 132.93837186 176.53702204 132.97453308 168.67123413 C132.98791366 165.99592833 133.01007201 163.32110405 133.03605652 160.64584351 C133.072489 156.79828802 133.08947644 152.95105968 133.10270691 149.10336304 C133.11819077 147.90939911 133.13367462 146.71543518 133.14962769 145.48529053 C133.20866135 137.43846504 133.20866135 137.43846504 129.80973816 130.26742554 C125.79959994 127.78700136 121.46551606 127.93360113 116.87223816 127.95492554 C116.18194519 127.93881226 115.49165222 127.92269897 114.78044128 127.90609741 C110.05427363 127.90161763 106.72468673 128.58939067 102.80973816 131.26742554 Z " fill="#3e4097" transform="translate(235.1902618408203,303.7325744628906)"/>
<path d="M0 0 C0.87269531 -0.0038269 1.74539063 -0.00765381 2.64453125 -0.01159668 C4.48699092 -0.0143149 6.32948924 -0.00695994 8.171875 0.00976562 C10.99045934 0.03117752 13.80649485 0.00996199 16.625 -0.015625 C18.41667229 -0.01298171 20.20834299 -0.00785669 22 0 C22.84175781 -0.00809692 23.68351562 -0.01619385 24.55078125 -0.02453613 C28.13136419 0.03278396 30.39761762 0.18098442 33.52929688 2.00195312 C35.73374916 5.79314264 35.57275697 9.21617695 35.53125 13.53125 C35.5350769 14.40394531 35.53890381 15.27664063 35.54284668 16.17578125 C35.5455649 18.01824092 35.53820994 19.86073924 35.52148438 21.703125 C35.50007248 24.52170934 35.52128801 27.33774485 35.546875 30.15625 C35.54423171 31.94792229 35.53910669 33.73959299 35.53125 35.53125 C35.53934692 36.37300781 35.54744385 37.21476562 35.55578613 38.08203125 C35.49846604 41.66261419 35.35026558 43.92886762 33.52929688 47.06054688 C29.73810736 49.26499916 26.31507305 49.10400697 22 49.0625 C21.12730469 49.0663269 20.25460937 49.07015381 19.35546875 49.07409668 C17.51300908 49.0768149 15.67051076 49.06945994 13.828125 49.05273438 C11.00954066 49.03132248 8.19350515 49.05253801 5.375 49.078125 C3.58332771 49.07548171 1.79165701 49.07035669 0 49.0625 C-0.84175781 49.07059692 -1.68351562 49.07869385 -2.55078125 49.08703613 C-6.13136419 49.02971604 -8.39761762 48.88151558 -11.52929688 47.06054688 C-13.73374916 43.26935736 -13.57275697 39.84632305 -13.53125 35.53125 C-13.5350769 34.65855469 -13.53890381 33.78585937 -13.54284668 32.88671875 C-13.5455649 31.04425908 -13.53820994 29.20176076 -13.52148438 27.359375 C-13.50007248 24.54079066 -13.52128801 21.72475515 -13.546875 18.90625 C-13.54423171 17.11457771 -13.53910669 15.32290701 -13.53125 13.53125 C-13.53934692 12.68949219 -13.54744385 11.84773438 -13.55578613 10.98046875 C-13.49846604 7.39988581 -13.35026558 5.13363238 -11.52929688 2.00195312 C-7.73810736 -0.20249916 -4.31507305 -0.04150697 0 0 Z M3 16.53125 C3 21.81125 3 27.09125 3 32.53125 C8.28 32.53125 13.56 32.53125 19 32.53125 C19 27.25125 19 21.97125 19 16.53125 C13.72 16.53125 8.44 16.53125 3 16.53125 Z " fill="#3e4097" transform="translate(413,367.46875)"/>
<path d="M0 0 C0.87269531 -0.0038269 1.74539063 -0.00765381 2.64453125 -0.01159668 C4.48699092 -0.0143149 6.32948924 -0.00695994 8.171875 0.00976562 C10.99045934 0.03117752 13.80649485 0.00996199 16.625 -0.015625 C18.41667229 -0.01298171 20.20834299 -0.00785669 22 0 C22.84175781 -0.00809692 23.68351562 -0.01619385 24.55078125 -0.02453613 C28.13136419 0.03278396 30.39761762 0.18098442 33.52929688 2.00195312 C35.73374916 5.79314264 35.57275697 9.21617695 35.53125 13.53125 C35.5350769 14.40394531 35.53890381 15.27664063 35.54284668 16.17578125 C35.5455649 18.01824092 35.53820994 19.86073924 35.52148438 21.703125 C35.50007248 24.52170934 35.52128801 27.33774485 35.546875 30.15625 C35.54423171 31.94792229 35.53910669 33.73959299 35.53125 35.53125 C35.53934692 36.37300781 35.54744385 37.21476562 35.55578613 38.08203125 C35.49846604 41.66261419 35.35026558 43.92886762 33.52929688 47.06054688 C29.73810736 49.26499916 26.31507305 49.10400697 22 49.0625 C21.12730469 49.0663269 20.25460937 49.07015381 19.35546875 49.07409668 C17.51300908 49.0768149 15.67051076 49.06945994 13.828125 49.05273438 C11.00954066 49.03132248 8.19350515 49.05253801 5.375 49.078125 C3.58332771 49.07548171 1.79165701 49.07035669 0 49.0625 C-0.84175781 49.07059692 -1.68351562 49.07869385 -2.55078125 49.08703613 C-6.13136419 49.02971604 -8.39761762 48.88151558 -11.52929688 47.06054688 C-13.73374916 43.26935736 -13.57275697 39.84632305 -13.53125 35.53125 C-13.5350769 34.65855469 -13.53890381 33.78585937 -13.54284668 32.88671875 C-13.5455649 31.04425908 -13.53820994 29.20176076 -13.52148438 27.359375 C-13.50007248 24.54079066 -13.52128801 21.72475515 -13.546875 18.90625 C-13.54423171 17.11457771 -13.53910669 15.32290701 -13.53125 13.53125 C-13.53934692 12.68949219 -13.54744385 11.84773438 -13.55578613 10.98046875 C-13.49846604 7.39988581 -13.35026558 5.13363238 -11.52929688 2.00195312 C-7.73810736 -0.20249916 -4.31507305 -0.04150697 0 0 Z M3 16.53125 C3 21.81125 3 27.09125 3 32.53125 C8.28 32.53125 13.56 32.53125 19 32.53125 C19 27.25125 19 21.97125 19 16.53125 C13.72 16.53125 8.44 16.53125 3 16.53125 Z " fill="#3e4097" transform="translate(269,367.46875)"/>
</svg>
