<?xml version="1.0" encoding="UTF-8"?>
<svg version="1.1" xmlns="http://www.w3.org/2000/svg" width="512" height="512">
<path d="M0 0 C47.52 0 95.04 0 144 0 C144 50.58931947 144 50.58931947 137.66919136 64.08649635 C125.48125204 90.76623968 127.03569606 119.09722711 127.50646973 147.79022217 C127.59979067 153.93379653 127.60511847 160.07779633 127.6183883 166.22196162 C127.65035036 180.14953693 127.79004698 194.07406583 128 208 C133.28 208 138.56 208 144 208 C144 244.96 144 281.92 144 320 C149.28 320 154.56 320 160 320 C159.99111755 318.51883698 159.98223511 317.03767395 159.9730835 315.5116272 C159.8919006 301.53444927 159.83174712 287.55730214 159.79275131 273.57995033 C159.77216949 266.39451216 159.74413342 259.20925057 159.69824219 252.02392578 C159.65823943 245.75756244 159.63253538 239.49132706 159.62364602 233.22483957 C159.61845378 229.90998159 159.60421047 226.59557263 159.57707977 223.28081131 C159.54792775 219.57061561 159.54404911 215.86117121 159.54589844 212.15087891 C159.53151733 211.06474304 159.51713623 209.97860718 159.50231934 208.85955811 C159.55249823 199.51994275 161.81374318 191.47278508 168.296875 184.53125 C175.45987205 178.09112421 182.86734831 175.65149282 192.375 175.875 C193.11105469 175.88402344 193.84710938 175.89304688 194.60546875 175.90234375 C196.4037888 175.92569856 198.20193911 175.96156164 200 176 C199.95359375 174.90042969 199.9071875 173.80085937 199.859375 172.66796875 C199.49187056 160.33770572 200.80087716 150.82987722 209.02734375 141.06640625 C217.22300879 132.48124426 226.17459608 127.95345507 238.1328125 127.48242188 C240.79924666 127.45625906 243.45914555 127.45085402 246.125 127.46875 C247.56266542 127.46604685 249.00032903 127.46215764 250.43798828 127.45715332 C253.4334474 127.45129676 256.42842548 127.45969513 259.42382812 127.47851562 C263.23310657 127.50130375 267.04125716 127.48815969 270.85049438 127.46422577 C273.81396745 127.44966244 276.77718003 127.45442142 279.74066162 127.46473694 C281.14386128 127.46737529 282.54708583 127.46423826 283.95025635 127.45481873 C297.08292343 127.38597158 307.32873771 129.76750953 317 139 C325.97951194 148.40626102 328.45105734 157.83250358 328.20483398 170.51367188 C328.15031341 172.34290975 328.07716672 174.17157746 328 176 C329.03898437 175.95359375 330.07796875 175.9071875 331.1484375 175.859375 C342.15253784 175.51322609 351.05597486 176.43966048 359.46875 184.296875 C365.16991957 190.63797177 368.27946693 197.59858607 368.19772339 206.19023132 C368.18845573 208.0214579 368.18845573 208.0214579 368.17900085 209.88967896 C368.16223054 211.22943229 368.14536645 212.56918445 368.12841797 213.90893555 C368.11806234 215.33037107 368.10876699 216.75181465 368.10044861 218.17326355 C368.08148874 221.22781958 368.05735062 224.28227631 368.02987289 227.3367672 C367.98872367 232.17517424 367.97356596 237.01344346 367.96463013 241.852005 C367.96301467 242.6702142 367.96139921 243.48842339 367.9597348 244.3314268 C367.95649767 246.00424372 367.95332794 247.67706078 367.95022416 249.34987795 C367.92844443 260.60762853 367.89044623 271.86458468 367.77734375 283.12182617 C367.70115014 290.72487565 367.66781952 298.32680432 367.68324578 305.93023711 C367.68970208 309.94848297 367.67472185 313.96401709 367.60717392 317.98175621 C367.54388164 321.76605087 367.53746235 325.54634756 367.57289314 329.33096504 C367.57745957 331.36517806 367.52277298 333.39926049 367.4657135 335.43267822 C367.58386041 342.05860433 368.40945563 346.10146776 373.14808571 350.72238714 C375.67696571 352.95470115 378.29467389 354.98187994 381 357 C382.66910568 358.33027884 384.33666863 359.66250821 386 361 C387.03178756 356.59732828 387.31845245 352.20778926 387.5690918 347.70793152 C387.61824328 346.87625924 387.66739477 346.04458696 387.7180357 345.18771249 C387.88177044 342.40291369 388.04047646 339.61785118 388.19921875 336.83276367 C388.31565886 334.83516155 388.43241682 332.83757794 388.54946899 330.8400116 C388.80085053 326.53875753 389.05002786 322.23738339 389.29751587 317.93590355 C389.68902763 311.13228876 390.08571325 304.3289817 390.4831543 297.52571106 C391.25459577 284.30830974 392.02084986 271.0906102 392.78648376 257.8728714 C393.76060939 241.05909275 394.73677904 224.24543444 395.71818638 207.43207914 C396.1126353 200.67137518 396.50438057 193.91052161 396.89401245 187.1495384 C397.13715257 182.93935888 397.38247519 178.72930855 397.62836838 174.51928902 C397.7417678 172.56989264 397.85425355 170.62044286 397.96574783 168.67093658 C398.11834774 166.0048149 398.27423711 163.33890451 398.4309082 160.67301941 C398.49555283 159.52245923 398.49555283 159.52245923 398.56150341 158.3486554 C398.62626606 157.26346902 398.62626606 157.26346902 398.69233704 156.15635967 C398.72786839 155.54240422 398.76339975 154.92844877 398.80000782 154.2958886 C399.09985032 150.85372918 399.5714359 147.42851278 400 144 C421.12 144 442.24 144 464 144 C466.31331767 172.91647084 466.31331767 172.91647084 467.13729858 187.11431885 C467.19814007 188.15713264 467.25898155 189.19994644 467.32166672 190.27436066 C467.38454502 191.35300133 467.44742332 192.431642 467.51220703 193.54296875 C467.65021495 195.8768642 467.7884462 198.21074646 467.92687988 200.5446167 C468.29695929 206.7954652 468.66377614 213.04650093 469.02979517 219.29758835 C469.37599802 225.20371186 469.72434444 231.10970875 470.07252882 237.01571572 C470.80279052 249.40467825 471.52985422 261.79382681 472.2557715 274.18304455 C472.87746034 284.79210124 473.50194016 295.4009907 474.12841797 306.00976562 C474.85929331 318.38642963 475.58838888 330.76319638 476.3148793 343.1401186 C476.69829122 349.67212111 477.08240741 356.2040801 477.4683876 362.7359314 C477.83030011 368.86242331 478.18962588 374.98906161 478.54696655 381.11582184 C478.6782795 383.36002148 478.8104859 385.60416905 478.94366074 387.84825897 C479.1255406 390.91554769 479.30415499 393.9830101 479.48196411 397.05053711 C479.53507315 397.93331424 479.58818218 398.81609137 479.64290059 399.72561932 C479.95354995 405.16003998 480.04544523 410.55655241 480 416 C485.28 416 490.56 416 496 416 C496 442.4 496 468.8 496 496 C332.32 496 168.64 496 0 496 C0 400.96 0 305.92 0 208 C5.28 208 10.56 208 16 208 C16.22023749 193.39190918 16.35447777 178.78545618 16.38603115 164.17567921 C16.4026729 157.38586199 16.44744897 150.59881295 16.55883789 143.80981445 C17.32435731 101.70890974 17.32435731 101.70890974 5.26280212 61.80952454 C-3.79981009 40.65095347 0 25.78850928 0 0 Z M16 16 C16 21.28 16 26.56 16 32 C52.96 32 89.92 32 128 32 C128 26.72 128 21.44 128 16 C91.04 16 54.08 16 16 16 Z M20 48 C22.9404343 58.78159242 26.46603779 69.39811338 30 80 C57.72 80 85.44 80 114 80 C120.7669811 64.28674156 120.7669811 64.28674156 124 48 C89.68 48 55.36 48 20 48 Z M32 96 C32 132.96 32 169.92 32 208 C58.4 208 84.8 208 112 208 C112 171.04 112 134.08 112 96 C85.6 96 59.2 96 32 96 Z M221.75 153.4375 C217.12720519 159.11038136 215.93194804 164.96424102 215.9765625 172.19921875 C215.98429688 173.45347656 215.99203125 174.70773438 216 176 C217.03898438 176.02578125 218.07796875 176.0515625 219.1484375 176.078125 C230.23538824 176.47741494 239.89591362 177.70744649 248 186 C254.14753079 194.27091189 255.29895166 201.56067 255.31884766 211.69677734 C255.32889328 212.86808197 255.3389389 214.0393866 255.34928894 215.2461853 C255.3801265 219.10943115 255.39715799 222.97260766 255.4140625 226.8359375 C255.43277368 229.51780199 255.45225104 232.19964995 255.4727478 234.88150024 C255.51946433 241.21364181 255.55624281 247.54580025 255.58942068 253.87802565 C255.62769255 261.08969086 255.67708937 268.30126657 255.72740483 275.51285625 C255.83061861 290.34183571 255.91951862 305.17087945 256 320 C261.28 320 266.56 320 272 320 C272.00364563 318.51883698 272.00729126 317.03767395 272.01104736 315.5116272 C272.04803272 301.53427536 272.1056092 287.55712464 272.18390274 273.57995033 C272.22362785 266.39460526 272.25605331 259.20936867 272.27099609 252.02392578 C272.28404667 245.75743898 272.31109744 239.49119153 272.35461307 233.22483957 C272.37715219 229.91007339 272.39082628 226.59566383 272.39188385 223.28081131 C272.39425755 219.57047158 272.42137266 215.8610583 272.45410156 212.15087891 C272.44655602 210.52167511 272.44655602 210.52167511 272.43885803 208.85955811 C272.57015849 199.20091939 274.98487432 190.85569101 282 184 C289.04133593 178.76637764 295.69216575 176.75183187 304.375 176.375 C305.47908203 176.31699219 305.47908203 176.31699219 306.60546875 176.2578125 C308.40327406 176.16442002 310.20160108 176.0811629 312 176 C312.10958829 167.32426049 311.73916706 159.98006805 306 153 C297.41187841 144.47322214 288.9168239 143.84515765 277.23046875 143.83203125 C276.19489334 143.82870285 275.15931793 143.82537445 274.09236145 143.82194519 C271.90622398 143.81689433 269.72007884 143.81453629 267.53393555 143.81469727 C264.20934175 143.81251434 260.8850819 143.79434857 257.56054688 143.77539062 C255.42968863 143.77245552 253.29882881 143.77047151 251.16796875 143.76953125 C250.18330124 143.76234573 249.19863373 143.75516022 248.18412781 143.74775696 C237.45131537 143.78285009 229.22076084 145.15665666 221.75 153.4375 Z M416 160 C414.20564319 182.06117227 412.8658346 204.13690832 411.57599211 226.23232484 C411.27457666 231.38826504 410.97067898 236.54405906 410.66714478 241.69987488 C410.15961345 250.32708443 409.65391711 258.95439997 409.14941406 267.58178711 C408.56660206 277.54801183 407.98106082 287.51407336 407.39405382 297.48005182 C406.82668807 307.11327986 406.26098378 316.74660473 405.69612503 326.37998009 C405.45659317 330.46481936 405.2165229 334.54962646 404.97602463 338.63440895 C404.69393341 343.42720027 404.41331025 348.22007536 404.13382912 353.01301956 C404.03113236 354.77027122 403.92793872 356.52749391 403.82421303 358.28468513 C403.68283414 360.68119366 403.543258 363.0778006 403.40414429 365.47444153 C403.3627081 366.16974954 403.3212719 366.86505755 403.27858007 367.5814355 C402.38448057 374.29295984 402.38448057 374.29295984 404.765625 380.0703125 C405.99539063 381.08738281 405.99539063 381.08738281 407.25 382.125 C408.1575 382.89585937 409.065 383.66671875 410 384.4609375 C410.99 385.29882812 411.98 386.13671875 413 387 C415.1016263 388.89700816 417.17583359 390.8230536 419.25 392.75 C422.21196411 395.48781548 424.8489916 397.90767733 428.296875 400.015625 C431 403 431 403 432 416 C442.23 416 452.46 416 463 416 C462.21221925 391.65189594 460.7449245 367.35061473 459.30645943 343.03381228 C458.94628561 336.93768161 458.58877291 330.84139473 458.23083496 324.74513245 C457.63086023 314.53383475 457.02872503 304.3226662 456.42529297 294.11157227 C455.72869649 282.3234766 455.03570448 270.53517307 454.34456968 258.74675602 C453.67663301 247.35561597 453.00605143 235.96463307 452.33430481 224.57371712 C452.0495542 219.74425392 451.76574622 214.91473672 451.48271179 210.08517265 C451.14995157 204.40900781 450.81487829 198.73298408 450.47803307 193.05706024 C450.35508295 190.97905514 450.23292453 188.90100302 450.11162758 186.82290077 C449.94561098 183.98091633 449.77669015 181.13911849 449.60705566 178.29734802 C449.5600683 177.48139913 449.51308093 176.66545025 449.4646697 175.82477564 C449.14334432 170.51016236 448.58963191 165.30668721 448 160 C437.44 160 426.88 160 416 160 Z M180.0625 197.75 C174.57033058 206.40432757 176 213.44087605 176 224 C197.12 224 218.24 224 240 224 C240.93024551 209.88362747 240.93024551 209.88362747 235.7109375 197.421875 C228.69663339 190.89519631 219.21580483 191.65703442 210.29443359 191.68432617 C208.13717897 191.68748218 205.98130409 191.66399439 203.82421875 191.63867188 C190.82615791 191.38296662 190.82615791 191.38296662 180.0625 197.75 Z M292.0625 197.75 C286.57033058 206.40432757 288 213.44087605 288 224 C309.12 224 330.24 224 352 224 C352.93024551 209.88362747 352.93024551 209.88362747 347.7109375 197.421875 C340.69663339 190.89519631 331.21580483 191.65703442 322.29443359 191.68432617 C320.13717897 191.68748218 317.98130409 191.66399439 315.82421875 191.63867188 C302.82615791 191.38296662 302.82615791 191.38296662 292.0625 197.75 Z M16 224 C16 308.48 16 392.96 16 480 C21.28 480 26.56 480 32 480 C31.95697754 477.7302832 31.91395508 475.46056641 31.86962891 473.12207031 C31.73708542 465.58249232 31.68272676 458.04376447 31.66578102 450.50308609 C31.65315592 445.9350358 31.61506211 441.37029312 31.51660156 436.80322266 C31.42235524 432.38650208 31.3978358 427.97415964 31.41953659 423.55654144 C31.41592557 421.88040787 31.3881265 420.20412878 31.33458328 418.52884674 C30.95127472 405.80733327 30.95127472 405.80733327 34.36043549 401.13581848 C37.6400838 397.67252931 41.33049172 394.87924226 45.264431 392.20276642 C47.82166194 390.43058018 50.18096444 388.43651093 52.5625 386.4375 C53.44035156 385.72464844 54.31820312 385.01179687 55.22265625 384.27734375 C58.34396367 381.71795946 61.4245003 379.11406209 64.5 376.5 C69.34954051 372.37892208 74.25160964 368.33008517 79.1875 364.3125 C82.31799666 361.73853608 85.41172461 359.12430914 88.5 356.5 C93.34680862 352.38135042 98.24530731 348.33399201 103.1796875 344.3203125 C106.87364533 341.28123916 110.51761989 338.18480397 114.14648438 335.06835938 C114.64728516 334.64103516 115.14808594 334.21371094 115.6640625 333.7734375 C116.14981247 333.33579575 116.63556244 332.89815399 117.1360321 332.44725037 C119 331 119 331 121.2636261 329.99098206 C124.42332232 328.33254854 125.97072738 326.9718372 128 324 C129.75702384 316.71945823 129.04407642 308.86600168 128.87890625 301.44140625 C128.86566428 299.46287307 128.85648846 297.48430836 128.85144043 295.5057373 C128.80436248 288.19084228 128.67870965 280.87662338 128.5625 273.5625 C128.376875 257.206875 128.19125 240.85125 128 224 C91.04 224 54.08 224 16 224 Z M176 240 C176 250.56 176 261.12 176 272 C197.12 272 218.24 272 240 272 C240 261.44 240 250.88 240 240 C218.88 240 197.76 240 176 240 Z M288 240 C288 250.56 288 261.12 288 272 C309.12 272 330.24 272 352 272 C352 261.44 352 250.88 352 240 C330.88 240 309.76 240 288 240 Z M176 288 C176 298.56 176 309.12 176 320 C197.12 320 218.24 320 240 320 C240 309.44 240 298.88 240 288 C218.88 288 197.76 288 176 288 Z M288 288 C288 298.56 288 309.12 288 320 C291.733125 319.979375 295.46625 319.95875 299.3125 319.9375 C302.94332339 319.94472482 306.57383068 319.96560526 310.20458984 319.98779297 C312.72053495 319.99588491 315.23656782 319.98986288 317.75244141 319.96923828 C321.37778357 319.94200163 324.99977522 319.96615688 328.625 320 C330.30203003 319.97087524 330.30203003 319.97087524 332.01293945 319.94116211 C338.0341224 320.05140332 341.28189695 320.61172015 345.5859375 325 C346.18196777 325.721875 346.77799805 326.44375 347.39208984 327.1875 C348.96666439 329.26656586 348.96666439 329.26656586 352 330 C352 316.14 352 302.28 352 288 C330.88 288 309.76 288 288 288 Z M129 345 C127.24441791 346.47665783 125.47712289 347.93978688 123.6875 349.375 C119.5802647 352.70018062 115.52516173 356.07662633 111.5 359.5 C106.65060094 363.62124182 101.74838629 367.66991814 96.8125 371.6875 C93.68200302 374.26146418 90.58828722 376.87570424 87.5 379.5 C81.06679312 384.96627293 74.54406998 390.31895106 67.984375 395.6328125 C66.63827931 396.73359169 65.31522148 397.86251115 64 399 C64 399.33 64 399.66 64 400 C87.33079903 400.16358099 110.66150339 400.2869903 133.9927597 400.3626852 C144.82609741 400.39876721 155.65907862 400.44795281 166.4921875 400.52807617 C175.93524748 400.59788518 185.37804926 400.64301679 194.82136011 400.65861946 C199.82086305 400.66773896 204.81962741 400.68914381 209.81889343 400.7401104 C214.52716286 400.78772021 219.23439144 400.80226162 223.94287872 400.79175377 C225.66823743 400.79367528 227.3936319 400.80754357 229.11878204 400.83443832 C239.71715869 401.2683141 239.71715869 401.2683141 248.8848877 396.63734436 C249.95299435 395.45100863 250.9942104 394.23960944 252 393 C253.076186 391.9864807 254.16522225 390.98620742 255.2734375 390.0078125 C256.30812276 389.04776993 257.3419683 388.08682162 258.375 387.125 C263.03833223 382.8013584 267.73696176 378.52181547 272.47265625 374.27734375 C275.33082203 371.70190225 278.16710261 369.10314236 281 366.5 C284.64927171 363.14706883 288.31169598 359.81001643 292 356.5 C295.78578437 353.09952163 299.5561511 349.68292403 303.3125 346.25 C304.76076172 344.92742187 304.76076172 344.92742187 306.23828125 343.578125 C308.88565783 341.10674092 311.4456901 338.56690327 314 336 C291.35574676 335.78955648 268.71165525 335.6309519 246.06662178 335.53369045 C235.55156854 335.48732533 225.03712365 335.42413823 214.52246094 335.32104492 C205.35552044 335.23120866 196.18902059 335.17324517 187.0216521 335.15320355 C182.16940868 335.14149173 177.31842562 335.11406105 172.46658707 335.04842949 C167.89436783 334.98708473 163.32392112 334.96854567 158.75132942 334.98203087 C157.07837203 334.97956605 155.40535198 334.96181069 153.73275185 334.92715073 C142.71744998 334.71019261 136.49743777 336.28032119 129 345 Z M331.3671875 343.25390625 C330.64273438 343.94419922 329.91828125 344.63449219 329.171875 345.34570312 C328.03492188 346.44301758 328.03492188 346.44301758 326.875 347.5625 C321.95938049 352.275458 317.01567827 356.91399805 311.86669922 361.37182617 C309.06543614 363.81514601 306.3452435 366.34227133 303.625 368.875 C298.96166777 373.1986416 294.26303824 377.47818453 289.52734375 381.72265625 C286.66917739 384.29809827 283.83295206 386.89691663 281 389.5 C265.73047339 403.52422594 265.73047339 403.52422594 262.80389404 405.43037415 C258.82070446 408.29919205 256.36430721 410.46527582 255.20585632 415.34550476 C254.95865104 419.47841584 254.98560244 423.52222339 255.12109375 427.65625 C255.13790491 429.16935419 255.15070425 430.68250777 255.15968323 432.19567871 C255.19385447 436.15570172 255.28207774 440.11269701 255.38201904 444.0715332 C255.49080972 448.83342922 255.53169092 453.59634472 255.58409882 458.35913086 C255.6710312 465.57485188 255.84354916 472.78394648 256 480 C266.56 480 277.12 480 288 480 C288 453.6 288 427.2 288 400 C319.68 400 351.36 400 384 400 C384 426.4 384 452.8 384 480 C394.56 480 405.12 480 416 480 C416.46674096 468.28088098 416.46674096 468.28088098 416.78125 456.56054688 C416.87631416 451.76553105 416.98769668 446.9754774 417.20703125 442.18432617 C418.81383406 423.53323488 418.81383406 423.53323488 412.6484375 406.71533203 C409.46662251 403.42589098 405.99902767 400.83676286 402.1312561 398.40924072 C398.44777287 395.97362796 395.25258622 392.97398425 392 390 C391.41586838 389.46719421 390.83173676 388.93438843 390.22990417 388.38543701 C388.68806927 386.97253827 387.15558277 385.55007495 385.625 384.125 C380.96166777 379.8013584 376.26303824 375.52181547 371.52734375 371.27734375 C368.66917758 368.7019019 365.83293383 366.10310304 363 363.5 C358.51166178 359.37718256 354.0026418 355.27886071 349.4609375 351.21484375 C347.70574898 349.63517408 345.9621699 348.04256519 344.2265625 346.44140625 C343.32679688 345.61511719 342.42703125 344.78882813 341.5 343.9375 C340.6853125 343.18339844 339.870625 342.42929687 339.03125 341.65234375 C335.45894077 338.74640758 334.32686588 340.40817439 331.3671875 343.25390625 Z M48 416 C48 437.12 48 458.24 48 480 C111.36 480 174.72 480 240 480 C240 458.88 240 437.76 240 416 C176.64 416 113.28 416 48 416 Z M304 416 C304 437.12 304 458.24 304 480 C325.12 480 346.24 480 368 480 C368 458.88 368 437.76 368 416 C346.88 416 325.76 416 304 416 Z M432 432 C432 447.84 432 463.68 432 480 C447.84 480 463.68 480 480 480 C480 464.16 480 448.32 480 432 C464.16 432 448.32 432 432 432 Z " fill="#3e4097" transform="translate(8,8)"/>
<path d="M0 0 C3.774375 0.061875 3.774375 0.061875 7.625 0.125 C7.625 5.405 7.625 10.685 7.625 16.125 C5.60375 16.3725 3.5825 16.62 1.5 16.875 C-5.23325872 17.92158261 -8.70585081 19.09996426 -13.25 24.25 C-14.93984251 28.56848642 -15.03460983 32.5517052 -14.375 37.125 C-12.1815619 41.59311466 -9.88794863 44.03363356 -5.375 46.125 C-1.21409495 47.17739062 2.83227878 47.32201574 7.11328125 47.44140625 C7.81647995 47.46218735 8.51967865 47.48296844 9.2441864 47.50437927 C11.47519817 47.56940115 13.70632069 47.62853776 15.9375 47.6875 C17.45639134 47.73073036 18.97527177 47.77434605 20.49414062 47.81835938 C24.20431558 47.92575384 27.91458277 48.02517767 31.625 48.125 C31.625 53.405 31.625 58.685 31.625 64.125 C29.95477783 64.14481934 28.28455566 64.16463867 26.5637207 64.18505859 C20.36695275 64.26113067 14.17041911 64.34984616 7.97387695 64.44238281 C5.2919486 64.48174536 2.61002158 64.51634236 -0.07202148 64.546875 C-3.92710682 64.59253953 -7.78183969 64.65053299 -11.63671875 64.7109375 C-12.83584396 64.72248871 -14.03496918 64.73403992 -15.27043152 64.74594116 C-16.39121597 64.76581085 -17.51200043 64.78568054 -18.66674805 64.80615234 C-20.14234444 64.82613785 -20.14234444 64.82613785 -21.64775085 64.8465271 C-24.5764957 65.14557424 -26.74718112 65.80846374 -29.375 67.125 C-30.77435013 69.92370027 -30.62765405 72.02998792 -30.375 75.125 C-28.52157225 77.68449546 -27.43743607 78.10418798 -24.375 79.125 C-21.63352839 79.2247179 -18.91672301 79.26868023 -16.17504883 79.2668457 C-15.33890045 79.27032013 -14.50275208 79.27379456 -13.64126587 79.27737427 C-11.82427956 79.28472813 -10.00728428 79.29007549 -8.19028664 79.29366493 C-5.31035221 79.30083523 -2.43058768 79.31650721 0.44929504 79.33500671 C8.63812902 79.38744152 16.82687099 79.43542561 25.01586914 79.45092773 C30.0250987 79.46103211 35.03390212 79.49042111 40.04296303 79.53224754 C41.94821252 79.54452972 43.85352228 79.5496839 45.75881004 79.54744911 C48.43235793 79.54508542 51.10469275 79.56734369 53.77807617 79.5949707 C54.55811508 79.58836929 55.33815399 79.58176788 56.14183044 79.57496643 C62.72610173 79.68609564 67.89896524 81.73615769 72.8671875 86.08984375 C73.40601563 86.74082031 73.94484375 87.39179687 74.5 88.0625 C75.05429687 88.71089844 75.60859375 89.35929687 76.1796875 90.02734375 C79.52394724 94.88103964 79.89246376 99.1664569 79.75 104.9375 C79.70875 107.309375 79.6675 109.68125 79.625 112.125 C74.345 112.125 69.065 112.125 63.625 112.125 C63.20182292 109.35807292 62.77864583 106.59114583 62.35546875 103.82421875 C61.57728758 100.94869368 60.97998656 99.88696331 58.625 98.125 C54.86058649 96.8701955 51.34642253 96.9805304 47.42504883 96.9831543 C46.58890045 96.97967987 45.75275208 96.97620544 44.89126587 96.97262573 C43.07427956 96.96527187 41.25728428 96.95992451 39.44028664 96.95633507 C36.56035221 96.94916477 33.68058768 96.93349279 30.80070496 96.91499329 C22.61187098 96.86255848 14.42312901 96.81457439 6.23413086 96.79907227 C1.2249013 96.78896789 -3.78390212 96.75957889 -8.79296303 96.71775246 C-10.69821252 96.70547028 -12.60352228 96.7003161 -14.50881004 96.70255089 C-17.18235793 96.70491458 -19.85469275 96.68265631 -22.52807617 96.6550293 C-23.30811508 96.66163071 -24.08815399 96.66823212 -24.89183044 96.67503357 C-31.47610173 96.56390436 -36.64896524 94.51384231 -41.6171875 90.16015625 C-42.15601563 89.50917969 -42.69484375 88.85820313 -43.25 88.1875 C-43.80429687 87.53910156 -44.35859375 86.89070313 -44.9296875 86.22265625 C-49.40912097 79.72142443 -49.04963728 72.75359083 -48.375 65.125 C-46.69754334 58.47887423 -41.9584931 53.86459371 -36.375 50.125 C-33.98926977 49.11409736 -31.93950962 48.60584555 -29.375 48.125 C-29.87 47.135 -30.365 46.145 -30.875 45.125 C-33.85986309 37.09871742 -33.67902827 26.56524251 -30.75 18.5625 C-26.63060013 9.97801636 -20.38698789 4.61420415 -11.6484375 0.99609375 C-7.66122305 -0.06494303 -4.09702301 -0.09555492 0 0 Z " fill="#3e4097" transform="translate(352.375,23.875)"/>
<path d="M0 0 C12.21390048 -0.41403052 22.04039202 -0.50885556 31.46875 8.296875 C37.93178072 15.48534795 40.10700038 22.50614854 40 32 C40.91700684 31.97905273 41.83401367 31.95810547 42.77880859 31.93652344 C46.22683035 31.86778054 49.67410935 31.81792848 53.12255859 31.78027344 C54.60640048 31.76033019 56.09016555 31.7331651 57.57373047 31.69824219 C68.93193044 31.43783841 78.76914153 32.17176898 87.46875 40.296875 C94.86241291 48.52043885 96.58190067 57.23445635 96.3125 68.01171875 C95.83817365 76.39741331 92.22530477 83.402937 86 89 C78.99440587 94.26820678 72.07581109 96.11644738 63.48828125 97.33984375 C60.65973705 98.09027384 59.66156069 98.6069346 58 101 C57.20837507 103.72486722 57.20837507 103.72486722 56.8125 106.6875 C56.544375 108.440625 56.27625 110.19375 56 112 C50.72 112 45.44 112 40 112 C39.37988561 94.63679695 39.37988561 94.63679695 44 89 C49.7301511 82.99470595 54.65908422 80.16912451 62.9375 79.125 C69.00721747 78.16309146 72.75009229 76.54989541 76.875 71.875 C78.56484251 67.55651358 78.65960983 63.5732948 78 59 C75.8065619 54.53188534 73.51294863 52.09136644 69 50 C64.30457962 48.75005279 59.58810057 48.77858448 54.76171875 48.68359375 C53.44056816 48.6524221 53.44056816 48.6524221 52.09272766 48.62062073 C49.29106121 48.55546063 46.48930443 48.49639679 43.6875 48.4375 C41.78319394 48.39428285 39.87889688 48.35066756 37.97460938 48.30664062 C33.31649782 48.19981377 28.65829578 48.0984526 24 48 C23.94231445 46.9059082 23.88462891 45.81181641 23.82519531 44.68457031 C23.74308597 43.23240786 23.66071539 41.78026017 23.578125 40.328125 C23.54090332 39.60898926 23.50368164 38.88985352 23.46533203 38.14892578 C23.07744024 31.49391962 22.41336739 25.61448134 17.75 20.5625 C12.14862622 17.37990126 6.29760672 16.66290597 0 16 C0 10.72 0 5.44 0 0 Z " fill="#3e4097" transform="translate(408,24)"/>
<path d="M0 0 C15.84 0 31.68 0 48 0 C48 26.4 48 52.8 48 80 C32.16 80 16.32 80 0 80 C0 53.6 0 27.2 0 0 Z M16 16 C16 31.84 16 47.68 16 64 C21.28 64 26.56 64 32 64 C32 48.16 32 32.32 32 16 C26.72 16 21.44 16 16 16 Z " fill="#3e4097" transform="translate(56,120)"/>
<path d="M0 0 C5.28 0 10.56 0 16 0 C16 5.28 16 10.56 16 16 C10.72 16 5.44 16 0 16 C0 10.72 0 5.44 0 0 Z " fill="#3e4097" transform="translate(72,344)"/>
<path d="M0 0 C5.28 0 10.56 0 16 0 C16 5.28 16 10.56 16 16 C10.72 16 5.44 16 0 16 C0 10.72 0 5.44 0 0 Z " fill="#3e4097" transform="translate(40,344)"/>
<path d="M0 0 C5.28 0 10.56 0 16 0 C16 5.28 16 10.56 16 16 C10.72 16 5.44 16 0 16 C0 10.72 0 5.44 0 0 Z " fill="#3e4097" transform="translate(104,312)"/>
<path d="M0 0 C5.28 0 10.56 0 16 0 C16 5.28 16 10.56 16 16 C10.72 16 5.44 16 0 16 C0 10.72 0 5.44 0 0 Z " fill="#3e4097" transform="translate(72,312)"/>
<path d="M0 0 C5.28 0 10.56 0 16 0 C16 5.28 16 10.56 16 16 C10.72 16 5.44 16 0 16 C0 10.72 0 5.44 0 0 Z " fill="#3e4097" transform="translate(40,312)"/>
<path d="M0 0 C5.28 0 10.56 0 16 0 C16 5.28 16 10.56 16 16 C10.72 16 5.44 16 0 16 C0 10.72 0 5.44 0 0 Z " fill="#3e4097" transform="translate(104,280)"/>
<path d="M0 0 C5.28 0 10.56 0 16 0 C16 5.28 16 10.56 16 16 C10.72 16 5.44 16 0 16 C0 10.72 0 5.44 0 0 Z " fill="#3e4097" transform="translate(72,280)"/>
<path d="M0 0 C5.28 0 10.56 0 16 0 C16 5.28 16 10.56 16 16 C10.72 16 5.44 16 0 16 C0 10.72 0 5.44 0 0 Z " fill="#3e4097" transform="translate(40,280)"/>
<path d="M0 0 C5.28 0 10.56 0 16 0 C16 5.28 16 10.56 16 16 C10.72 16 5.44 16 0 16 C0 10.72 0 5.44 0 0 Z " fill="#3e4097" transform="translate(104,248)"/>
<path d="M0 0 C5.28 0 10.56 0 16 0 C16 5.28 16 10.56 16 16 C10.72 16 5.44 16 0 16 C0 10.72 0 5.44 0 0 Z " fill="#3e4097" transform="translate(72,248)"/>
<path d="M0 0 C5.28 0 10.56 0 16 0 C16 5.28 16 10.56 16 16 C10.72 16 5.44 16 0 16 C0 10.72 0 5.44 0 0 Z " fill="#3e4097" transform="translate(40,248)"/>
<path d="M0 0 C5.28 0 10.56 0 16 0 C16 5.28 16 10.56 16 16 C10.72 16 5.44 16 0 16 C0 10.72 0 5.44 0 0 Z " fill="#3e4097" transform="translate(376,24)"/>
</svg>
