<?xml version="1.0" standalone="no"?>
<!DOCTYPE svg PUBLIC "-//W3C//DTD SVG 20010904//EN"
 "http://www.w3.org/TR/2001/REC-SVG-20010904/DTD/svg10.dtd">
<svg version="1.0" xmlns="http://www.w3.org/2000/svg"
 width="512.000000pt" height="512.000000pt" viewBox="0 0 512.000000 512.000000"
 preserveAspectRatio="xMidYMid meet">

<g transform="translate(0.000000,512.000000) scale(0.100000,-0.100000)"
fill="#fb000f" stroke="none">
<path d="M2410 5114 c-258 -33 -485 -123 -681 -271 -255 -192 -430 -459 -504
-767 -36 -150 -45 -289 -45 -737 l0 -405 -49 -17 c-132 -48 -313 -191 -406
-322 -59 -82 -119 -211 -147 -315 -23 -85 -23 -87 -23 -785 0 -771 -2 -739 65
-913 84 -220 292 -428 512 -512 179 -69 84 -65 1428 -65 1120 0 1220 1 1282
17 362 93 613 344 706 706 15 60 17 136 17 767 l0 700 -23 85 c-49 177 -133
320 -263 446 -88 85 -164 135 -279 185 l-85 37 -5 513 -6 514 -28 104 c-50
187 -125 346 -229 488 -197 267 -510 464 -840 528 -80 16 -328 28 -397 19z
m351 -468 c52 -13 120 -35 151 -49 207 -92 387 -281 469 -492 58 -150 61 -172
66 -662 l5 -453 -901 0 -901 0 0 378 c0 424 9 556 46 675 96 308 352 542 667
611 106 24 289 20 398 -8z m971 -2137 c170 -37 307 -170 353 -344 22 -87 22
-1238 0 -1334 -42 -175 -181 -313 -353 -350 -75 -16 -2269 -16 -2344 0 -89 19
-158 58 -229 129 -70 70 -109 139 -128 228 -7 36 -11 252 -11 660 0 651 1 659
52 769 28 62 139 173 203 203 27 13 72 29 100 36 69 17 2279 19 2357 3z"/>
<path d="M2462 1462 c-63 -23 -117 -64 -154 -118 -103 -152 -39 -370 131 -447
65 -30 179 -29 241 1 68 33 112 74 145 133 27 49 30 63 30 144 0 99 -15 140
-76 209 -70 81 -212 115 -317 78z"/>
</g>
</svg>
