<?xml version="1.0" encoding="UTF-8"?>
<svg version="1.1" xmlns="http://www.w3.org/2000/svg" width="512" height="512">
<path d="M0 0 C1.14404297 -0.0112793 2.28808594 -0.02255859 3.46679688 -0.03417969 C5.34334961 -0.0220343 5.34334961 -0.0220343 7.2578125 -0.00964355 C8.59180465 -0.01506511 9.9257908 -0.02218797 11.25976562 -0.03088379 C14.87966598 -0.04911656 18.49911024 -0.04205017 22.11901855 -0.02936745 C25.9074832 -0.01923938 29.69590882 -0.02863258 33.484375 -0.03491211 C39.84642548 -0.04218911 46.20829022 -0.03259956 52.5703125 -0.0135498 C59.92541387 0.00821921 67.28007173 0.00116786 74.63516235 -0.02085543 C80.95036617 -0.03900805 87.26543648 -0.04156848 93.58065796 -0.03110075 C97.35234853 -0.02486499 101.12383064 -0.02403225 104.89550781 -0.0372467 C108.44153603 -0.04880278 111.98699253 -0.04078487 115.53295898 -0.01766968 C117.45490737 -0.00985857 119.37690412 -0.02174065 121.29882812 -0.03417969 C123.01489258 -0.01726074 123.01489258 -0.01726074 124.765625 0 C125.75965332 0.0015081 126.75368164 0.0030162 127.77783203 0.00457001 C131.1061981 0.64771553 132.30068099 1.88696317 134.3828125 4.50793457 C134.83691406 6.79797363 134.83691406 6.79797363 134.7734375 9.27355957 C134.76054687 10.1630127 134.74765625 11.05246582 134.734375 11.96887207 C134.68410156 13.34945801 134.68410156 13.34945801 134.6328125 14.75793457 C134.61476563 15.69379395 134.59671875 16.62965332 134.578125 17.59387207 C134.53106923 19.89960472 134.46534963 22.20324402 134.3828125 24.50793457 C136.34287231 24.46865845 136.34287231 24.46865845 138.3425293 24.42858887 C143.19717238 24.33799133 148.05174095 24.28065012 152.90698242 24.23327637 C155.0070452 24.20815406 157.10702073 24.17404999 159.20678711 24.1307373 C162.2279209 24.06998586 165.24789746 24.04170194 168.26953125 24.01965332 C169.20617111 23.99384689 170.14281097 23.96804047 171.10783386 23.94145203 C175.61405049 23.93951934 177.6771885 23.95524763 181.31713867 26.80627441 C181.99881104 27.69782227 182.6804834 28.58937012 183.3828125 29.50793457 C183.93662598 30.1369165 184.49043945 30.76589844 185.06103516 31.41394043 C185.5513623 32.01085693 186.04168945 32.60777344 186.546875 33.22277832 C187.38605469 34.24190308 187.38605469 34.24190308 188.2421875 35.28161621 C188.82484375 35.99567627 189.4075 36.70973633 190.0078125 37.44543457 C190.92433594 38.56389771 190.92433594 38.56389771 191.859375 39.70495605 C202.7967009 53.09321136 202.7967009 53.09321136 207.01513672 58.79135132 C208.33294012 60.53134441 208.33294012 60.53134441 209.91390991 61.93717957 C216.46466224 68.73716799 215.21104756 77.85541076 215.109375 86.64855957 C215.10833655 88.42116291 215.10937676 90.19376856 215.11239624 91.96636963 C215.11221742 95.66840309 215.09148336 99.3695597 215.05517578 103.07141113 C215.00966798 107.81524258 215.00874299 112.55780214 215.02221107 117.30179214 C215.02889201 120.95643417 215.01563065 124.61078621 214.99595261 128.26537323 C214.98826048 130.01485426 214.98594728 131.76436755 214.9891243 133.51386261 C214.98986613 135.95554724 214.96462295 138.39559725 214.93212891 140.83703613 C214.93708374 141.55814575 214.94203857 142.27925537 214.94714355 143.0222168 C214.87468987 146.43315276 214.60349266 148.22105715 212.49734497 150.95898438 C209.91375938 152.85152822 208.57414453 152.97601584 205.3984375 152.89855957 C204.46386719 152.88566895 203.52929688 152.87277832 202.56640625 152.85949707 C201.11427734 152.80922363 201.11427734 152.80922363 199.6328125 152.75793457 C198.64925781 152.7398877 197.66570312 152.72184082 196.65234375 152.70324707 C194.22817467 152.65617583 191.80599191 152.59044199 189.3828125 152.50793457 C188.98642578 153.61781738 188.98642578 153.61781738 188.58203125 154.75012207 C186.21017501 160.20461884 182.26626125 164.27792722 177.3203125 167.50793457 C170.57999852 169.84112018 161.49337794 169.88550239 154.9453125 167.00793457 C149.35801027 163.63628667 144.96343067 158.83040723 143.3828125 152.50793457 C118.9628125 152.50793457 94.5428125 152.50793457 69.3828125 152.50793457 C68.7228125 154.15793457 68.0628125 155.80793457 67.3828125 157.50793457 C63.82785631 162.62932264 59.74683382 167.34981762 53.3828125 168.50793457 C45.49051711 169.25195764 37.81952336 169.68029151 31.3828125 164.50793457 C27.53125656 160.83692031 24.54874695 157.76593609 23.3828125 152.50793457 C22.52526367 152.52888184 21.66771484 152.5498291 20.78417969 152.57141113 C17.59362778 152.63969984 14.40344904 152.6897897 11.21240234 152.72766113 C9.8330457 152.74774099 8.45377381 152.77501123 7.07470703 152.80969238 C5.08924271 152.85836274 3.10314996 152.87879875 1.1171875 152.89855957 C-0.07680664 152.91950684 -1.27080078 152.9404541 -2.50097656 152.96203613 C-6.33773853 152.40293418 -7.25611988 151.52650474 -9.6171875 148.50793457 C-10.09820557 145.74908447 -10.09820557 145.74908447 -10.07128906 142.54602051 C-10.07098694 141.34507751 -10.07068481 140.14413452 -10.07037354 138.90679932 C-10.04972839 137.6150177 -10.02908325 136.32323608 -10.0078125 134.99230957 C-10.00034821 133.65282028 -9.99465616 132.31332005 -9.99066162 130.97381592 C-9.97541963 127.45542021 -9.93615168 123.93768942 -9.8918457 120.41955566 C-9.85086114 116.82671096 -9.8326439 113.23375837 -9.8125 109.64074707 C-9.76965479 102.59617891 -9.6993176 95.55217021 -9.6171875 88.50793457 C-4.3371875 88.50793457 0.9428125 88.50793457 6.3828125 88.50793457 C6.3828125 104.34793457 6.3828125 120.18793457 6.3828125 136.50793457 C11.9928125 136.50793457 17.6028125 136.50793457 23.3828125 136.50793457 C24.0428125 134.85793457 24.7028125 133.20793457 25.3828125 131.50793457 C28.93776869 126.3865465 33.01879118 121.66605152 39.3828125 120.50793457 C47.27510789 119.7639115 54.94610164 119.33557763 61.3828125 124.50793457 C65.33620877 128.27601539 68.04115595 131.14130836 69.3828125 136.50793457 C85.5528125 136.50793457 101.7228125 136.50793457 118.3828125 136.50793457 C118.3828125 96.90793457 118.3828125 57.30793457 118.3828125 16.50793457 C81.4228125 16.50793457 44.4628125 16.50793457 6.3828125 16.50793457 C6.3828125 19.14793457 6.3828125 21.78793457 6.3828125 24.50793457 C1.1028125 24.50793457 -4.1771875 24.50793457 -9.6171875 24.50793457 C-9.72515056 21.25704677 -9.80448045 18.00974278 -9.8671875 14.75793457 C-9.90070313 13.83754395 -9.93421875 12.91715332 -9.96875 11.96887207 C-9.98164063 11.07941895 -9.99453125 10.18996582 -10.0078125 9.27355957 C-10.02875977 8.45661621 -10.04970703 7.63967285 -10.07128906 6.79797363 C-8.98145961 1.30195199 -5.10294367 0.00774199 0 0 Z M134.3828125 40.50793457 C134.3828125 72.18793457 134.3828125 103.86793457 134.3828125 136.50793457 C142.72526286 137.51565698 142.72526286 137.51565698 145.3984375 134.67980957 C145.80578125 133.88059082 146.213125 133.08137207 146.6328125 132.25793457 C149.85258651 126.60780773 153.16004471 123.58511199 159.3828125 121.50793457 C167.21838183 120.7028462 174.98496305 120.40453373 181.3828125 125.50793457 C184.89279767 128.89987091 187.19229472 132.12689902 189.3828125 136.50793457 C192.3528125 136.50793457 195.3228125 136.50793457 198.3828125 136.50793457 C198.3828125 118.02793457 198.3828125 99.54793457 198.3828125 80.50793457 C181.40483499 80.29787629 181.40483499 80.29787629 164.42651367 80.11999512 C162.30125146 80.08771645 160.17600545 80.05434434 158.05078125 80.01965332 C156.94335571 80.01340942 155.83593018 80.00716553 154.69494629 80.00073242 C153.63956665 79.98079224 152.58418701 79.96085205 151.49682617 79.94030762 C150.57971359 79.92920456 149.66260101 79.9181015 148.71769714 79.90666199 C145.91821738 79.42859583 145.01590625 78.80839915 143.3828125 76.50793457 C143.05171727 73.71652695 142.89423572 71.13576769 142.87109375 68.33996582 C142.85314255 67.54515305 142.83519135 66.75034027 142.81669617 65.93144226 C142.7625428 63.39449356 142.72868222 60.8577335 142.6953125 58.32043457 C142.66214376 56.59970516 142.62765451 54.87900067 142.59179688 53.1583252 C142.50681377 48.94166435 142.44002708 44.72505993 142.3828125 40.50793457 C139.7428125 40.50793457 137.1028125 40.50793457 134.3828125 40.50793457 Z M158.3828125 40.50793457 C158.3828125 48.42793457 158.3828125 56.34793457 158.3828125 64.50793457 C168.2828125 64.50793457 178.1828125 64.50793457 188.3828125 64.50793457 C186.40068063 61.20438145 184.71122862 58.52492415 182.31640625 55.62512207 C181.4646582 54.58678223 181.4646582 54.58678223 180.59570312 53.52746582 C180.00982422 52.81977051 179.42394531 52.1120752 178.8203125 51.38293457 C177.65116996 49.96463051 176.48315479 48.54539618 175.31640625 47.12512207 C174.80134521 46.50234375 174.28628418 45.87956543 173.75561523 45.23791504 C172.5519128 43.72103163 171.45696116 42.11915755 170.3828125 40.50793457 C166.4228125 40.50793457 162.4628125 40.50793457 158.3828125 40.50793457 Z M41.0078125 139.13293457 C38.89574744 142.21979889 38.77086105 143.83622587 39.3828125 147.50793457 C40.8828125 150.00793457 40.8828125 150.00793457 43.3828125 151.50793457 C47.0545212 152.11988602 48.67094818 151.99499963 51.7578125 149.88293457 C53.86987756 146.79607025 53.99476395 145.17964327 53.3828125 141.50793457 C51.8828125 139.00793457 51.8828125 139.00793457 49.3828125 137.50793457 C45.7111038 136.89598312 44.09467682 137.02086951 41.0078125 139.13293457 Z M161.0078125 139.13293457 C158.89574744 142.21979889 158.77086105 143.83622587 159.3828125 147.50793457 C160.8828125 150.00793457 160.8828125 150.00793457 163.3828125 151.50793457 C167.0545212 152.11988602 168.67094818 151.99499963 171.7578125 149.88293457 C173.86987756 146.79607025 173.99476395 145.17964327 173.3828125 141.50793457 C171.8828125 139.00793457 171.8828125 139.00793457 169.3828125 137.50793457 C165.7111038 136.89598312 164.09467682 137.02086951 161.0078125 139.13293457 Z " fill="#3e4097" transform="translate(153.6171875,7.4920654296875)"/>
<path d="M0 0 C8.0055684 7.78920169 11.57825594 16.5964073 11.75 27.625 C11.67410422 38.61921536 8.19251209 47.36998791 0.3125 55.25 C1.27929688 55.27578125 2.24609375 55.3015625 3.2421875 55.328125 C13.767583 55.78665708 22.75897045 57.05436862 30.78125 64.546875 C37.17361654 71.65675207 39.61440891 79.06514512 39.60302734 88.57861328 C39.60974457 89.3923642 39.61646179 90.20611511 39.62338257 91.04452515 C39.64229793 93.71985055 39.64628265 96.39492451 39.6484375 99.0703125 C39.65486701 100.93545636 39.66159548 102.80059921 39.66860962 104.66574097 C39.68056407 108.5677118 39.68429204 112.46959419 39.68310547 116.37158203 C39.68290171 121.37316342 39.71027025 126.37418022 39.74464989 131.37562752 C39.76686888 135.22405613 39.77094465 139.07234739 39.76988602 142.92083359 C39.77224697 144.76524691 39.78109822 146.60966373 39.79655075 148.45401382 C39.8161216 151.02980718 39.81040971 153.60436301 39.79833984 156.18017578 C39.80957886 156.94183044 39.82081787 157.70348511 39.83239746 158.48822021 C39.79290418 161.80067783 39.66779039 163.79598783 37.59470558 166.4451046 C34.89758691 168.5781364 33.69884521 168.75208816 30.30273438 168.75793457 C29.29331787 168.76921387 28.28390137 168.78049316 27.24389648 168.79211426 C25.59176147 168.77996887 25.59176147 168.77996887 23.90625 168.76757812 C22.7416626 168.7745874 21.5770752 168.78159668 20.37719727 168.78881836 C16.52205667 168.80644432 12.66764826 168.79475841 8.8125 168.78125 C6.13736047 168.78394357 3.46224331 168.78781853 0.78710938 168.79284668 C-4.8216955 168.80012197 -10.43028963 168.79053871 -16.0390625 168.77148438 C-22.52167907 168.74971557 -29.00379242 168.75676705 -35.48639679 168.77879 C-41.05426589 168.79694759 -46.62198359 168.79950066 -52.18987274 168.78903532 C-55.5144567 168.78280222 -58.83875252 168.78353198 -62.16333008 168.79518127 C-65.86965157 168.80531748 -69.57500107 168.78988485 -73.28125 168.76757812 C-74.38267334 168.77567505 -75.48409668 168.78377197 -76.61889648 168.79211426 C-77.62831299 168.78083496 -78.63772949 168.76955566 -79.67773438 168.75793457 C-80.55377319 168.75642647 -81.42981201 168.75491837 -82.33239746 168.75336456 C-85.50606926 168.07504424 -86.70841759 166.77581969 -88.6875 164.25 C-89.08230469 161.44971892 -89.23507912 159.04247621 -89.20507812 156.24365234 C-89.21559204 155.03792068 -89.21559204 155.03792068 -89.22631836 153.80783081 C-89.24392204 151.15018138 -89.23226096 148.49359784 -89.21875 145.8359375 C-89.22144583 143.98230791 -89.225329 142.12867969 -89.23034668 140.27505493 C-89.23624626 136.38619551 -89.22766993 132.49770343 -89.20898438 128.60888672 C-89.18628988 123.64588541 -89.19925432 118.68375393 -89.22327423 113.72078514 C-89.23780152 109.88922707 -89.23309298 106.05787144 -89.22276306 102.22630692 C-89.2201099 100.39803589 -89.22331544 98.569746 -89.23268127 96.74149704 C-89.28088005 84.67912916 -89.09431198 74.10034919 -80.390625 64.78125 C-73.45672448 58.54710091 -66.06908398 56.05553879 -56.8125 55.625 C-56.12414062 55.58632813 -55.43578125 55.54765625 -54.7265625 55.5078125 C-53.04726754 55.41451834 -51.36742233 55.33121762 -49.6875 55.25 C-50.26757812 54.63125 -50.26757812 54.63125 -50.859375 54 C-59.75011305 44.14096375 -61.54682883 34.5167614 -60.91845703 21.51025391 C-60.1281323 13.7757651 -56.25398147 6.56345958 -50.6875 1.25 C-33.91720922 -11.56503352 -17.2986959 -11.2642671 0 0 Z M-41.6875 17.8125 C-44.59354105 23.06916129 -44.75996671 28.42037741 -43.6875 34.25 C-41.47873835 39.48414291 -38.01546754 44.15875058 -32.80078125 46.65625 C-26.58121927 48.40370549 -19.96787388 48.44464544 -14.25 45.25 C-9.30863353 41.54655415 -6.27183409 37.52405513 -5.17578125 31.3828125 C-4.80024495 24.82344517 -5.86578861 20.29802894 -9.93359375 15.09765625 C-14.42854218 10.36244331 -18.06467453 9.01757927 -24.625 8.6875 C-32.27676774 8.984006 -37.11349737 11.70958284 -41.6875 17.8125 Z M-68.625 78 C-72.05790457 83.40942538 -72.93964832 88.58254817 -72.91455078 94.91967773 C-72.91430908 96.21820679 -72.91406738 97.51673584 -72.91381836 98.85461426 C-72.90375122 100.2142761 -72.8934183 101.573936 -72.8828125 102.93359375 C-72.88079834 104.18466919 -72.87878418 105.43574463 -72.87670898 106.72473145 C-72.86627872 111.37902515 -72.83835622 116.03326642 -72.8125 120.6875 C-72.77125 131.103125 -72.73 141.51875 -72.6875 152.25 C-41.0075 152.25 -9.3275 152.25 23.3125 152.25 C23.374375 141.875625 23.43625 131.50125 23.5 120.8125 C23.52731201 117.55318604 23.55462402 114.29387207 23.58276367 110.93579102 C23.59153091 108.33349986 23.59917429 105.73120456 23.60546875 103.12890625 C23.61330887 102.46406723 23.62114899 101.79922821 23.62922668 101.11424255 C24.01972468 88.69875692 24.01972468 88.69875692 19.03727722 77.67555237 C11.74379087 70.93459943 2.19668322 71.93850032 -7.0546875 71.94921875 C-8.45801926 71.94532469 -9.86134985 71.94098857 -11.26467896 71.93623352 C-14.19813873 71.92879778 -17.13147809 71.92904304 -20.06494141 71.93432617 C-23.80259092 71.94011421 -27.53974381 71.92319349 -31.27731133 71.8999815 C-34.17374497 71.88516557 -37.0700612 71.88438311 -39.96652603 71.88749123 C-41.34347643 71.88698185 -42.72043408 71.88181707 -44.09734726 71.87167931 C-57.49052206 71.53361434 -57.49052206 71.53361434 -68.625 78 Z " fill="#3e4097" transform="translate(464.6875,335.75)"/>
<path d="M0 0 C1.62944769 -0.02155526 3.25878036 -0.05562971 4.88769531 -0.10253906 C20.16863189 -0.53811861 20.16863189 -0.53811861 24.68896484 3.18237305 C26.69417507 5.36045817 28.08598006 7.66338376 29.20458984 10.4050293 C29.11177734 12.2922168 29.11177734 12.2922168 29.01708984 14.2175293 C29.36869366 17.54520826 30.14401157 18.35286467 32.73583984 20.5847168 C37.28108727 23.36597534 41.01922909 25.60990687 46.45458984 25.1003418 C48.47821532 24.51700078 50.48875883 23.88595846 52.48193359 23.20581055 C56.81707226 21.93076976 59.05240835 22.68688523 63.20458984 24.4050293 C69.15300874 28.51741387 72.40569026 33.82081269 76.07958984 39.9675293 C76.67255859 40.8937207 77.26552734 41.81991211 77.87646484 42.77416992 C82.00607401 49.64892251 83.3878955 55.40232631 82.20458984 63.4050293 C80.06151197 67.92930481 77.72353654 70.2644756 73.20458984 72.4050293 C72.54458984 72.4050293 71.88458984 72.4050293 71.20458984 72.4050293 C71.53458984 73.3950293 71.86458984 74.3850293 72.20458984 75.4050293 C72.29767529 77.06961603 72.33455169 78.73784926 72.32958984 80.4050293 C72.33216797 81.2712793 72.33474609 82.1375293 72.33740234 83.0300293 C72.20458984 85.4050293 72.20458984 85.4050293 71.20458984 88.4050293 C71.92646484 88.6319043 72.64833984 88.8587793 73.39208984 89.0925293 C77.28447614 90.90897624 80.26596471 93.52777902 82.20458984 97.4050293 C83.56470833 107.20826043 80.83883906 113.33468433 75.51708984 121.4050293 C74.89125 122.41436523 74.26541016 123.42370117 73.62060547 124.46362305 C70.18926109 129.87472737 67.09858477 134.45803183 61.20458984 137.4050293 C59.24909728 137.5276039 57.28888366 137.58055317 55.32958984 137.5925293 C54.28029297 137.60670898 53.23099609 137.62088867 52.14990234 137.63549805 C49.20458984 137.4050293 49.20458984 137.4050293 47.07177734 136.33081055 C45.2641565 135.22305322 45.2641565 135.22305322 43.30615234 135.62768555 C38.56669928 137.38075462 34.17560212 139.22308731 30.20458984 142.4050293 C29.17598736 144.97865197 28.90752831 147.17768637 28.64990234 149.9284668 C27.91213427 154.03149274 25.35304956 156.78531854 22.20458984 159.4050293 C18.63681007 160.59428922 15.36513496 160.58599512 11.64990234 160.6081543 C10.91134003 160.61385437 10.17277771 160.61955444 9.41183472 160.62542725 C7.85009183 160.63486575 6.28832914 160.64140666 4.7265625 160.64526367 C2.34518459 160.65496576 -0.03532859 160.68599708 -2.41650391 160.7175293 C-3.93603005 160.72406024 -5.45556234 160.72931035 -6.97509766 160.7331543 C-7.68358856 160.7455011 -8.39207947 160.7578479 -9.12203979 160.77056885 C-14.8367108 160.74499601 -17.89756123 159.19442971 -21.98291016 155.3425293 C-23.88915691 152.2530949 -23.95717908 151.02439039 -24.23291016 147.5300293 C-24.84924977 143.69374718 -25.52033146 142.62831494 -28.59619141 140.1315918 C-34.84245145 136.18219788 -34.84245145 136.18219788 -41.84228516 136.2097168 C-42.81681641 136.60416992 -43.79134766 136.99862305 -44.79541016 137.4050293 C-50.21455541 138.01186067 -55.11405808 138.12116074 -60.17041016 135.9675293 C-63.76486621 132.45865553 -66.1808043 128.67377355 -68.79541016 124.4050293 C-69.58560133 123.23647957 -70.3787737 122.06994232 -71.17431641 120.9050293 C-75.79708146 113.95420117 -78.83988137 108.62037496 -78.40478516 99.9909668 C-77.32314874 95.4009456 -75.47449811 92.91781 -71.73291016 90.0925293 C-68.79541016 88.4050293 -68.79541016 88.4050293 -66.79541016 88.4050293 C-67.12541016 87.4150293 -67.45541016 86.4250293 -67.79541016 85.4050293 C-67.8884956 83.74044256 -67.925372 82.07220933 -67.92041016 80.4050293 C-67.92298828 79.5387793 -67.92556641 78.6725293 -67.92822266 77.7800293 C-67.79541016 75.4050293 -67.79541016 75.4050293 -66.79541016 72.4050293 C-67.51728516 72.1781543 -68.23916016 71.9512793 -68.98291016 71.7175293 C-72.87529646 69.90108236 -75.85678502 67.28227957 -77.79541016 63.4050293 C-79.15552865 53.60179816 -76.42965937 47.47537426 -71.10791016 39.4050293 C-70.48207031 38.39569336 -69.85623047 37.38635742 -69.21142578 36.34643555 C-65.7800814 30.93533122 -62.68940508 26.35202676 -56.79541016 23.4050293 C-54.83991759 23.28245469 -52.87970397 23.22950542 -50.92041016 23.2175293 C-49.87111328 23.20334961 -48.82181641 23.18916992 -47.74072266 23.17456055 C-44.79541016 23.4050293 -44.79541016 23.4050293 -42.66259766 24.47924805 C-40.85497681 25.58700537 -40.85497681 25.58700537 -38.89697266 25.18237305 C-34.15751959 23.42930398 -29.76642243 21.58697128 -25.79541016 18.4050293 C-24.76680767 15.83140663 -24.49834862 13.63237223 -24.24072266 10.8815918 C-23.50295458 6.77856585 -20.94386988 4.02474006 -17.79541016 1.4050293 C-12.17792995 -0.46746411 -5.89098436 0.05854321 0 0 Z M-7.79541016 16.4050293 C-8.41416016 18.9728418 -8.41416016 18.9728418 -9.04541016 21.5925293 C-10.14116853 26.13992656 -11.49337182 29.04749452 -14.79541016 32.4050293 C-17.11596138 33.76029759 -19.3045847 34.92461666 -21.73291016 36.0300293 C-26.72298914 38.37626061 -26.72298914 38.37626061 -31.53759766 41.0612793 C-35.4726754 43.40326328 -39.00442562 43.81611785 -43.46728516 42.79174805 C-45.93564162 42.05612204 -48.36930605 41.2690543 -50.79541016 40.4050293 C-52.32892543 42.83533714 -53.84724518 45.27308033 -55.35791016 47.7175293 C-55.79554688 48.40782227 -56.23318359 49.09811523 -56.68408203 49.80932617 C-57.29799805 50.80996094 -57.29799805 50.80996094 -57.92431641 51.83081055 C-58.4977478 52.74987183 -58.4977478 52.74987183 -59.08276367 53.6875 C-60.09540247 55.59781985 -60.09540247 55.59781985 -58.79541016 58.4050293 C-57.58884766 58.8381543 -57.58884766 58.8381543 -56.35791016 59.2800293 C-53.79541016 60.4050293 -53.79541016 60.4050293 -52.54541016 62.8425293 C-52.17416016 64.1109668 -52.17416016 64.1109668 -51.79541016 65.4050293 C-51.46541016 66.3950293 -51.13541016 67.3850293 -50.79541016 68.4050293 C-50.50943993 72.48355639 -50.51770663 76.56760308 -50.48291016 80.6550293 C-50.45390625 81.77522461 -50.42490234 82.89541992 -50.39501953 84.04956055 C-50.34368331 90.73906474 -50.69236058 95.02117296 -54.79541016 100.4050293 C-57.54541016 102.3425293 -57.54541016 102.3425293 -59.79541016 103.4050293 C-58.4846665 107.86685365 -56.72475005 111.40121686 -54.17041016 115.2800293 C-53.53876953 116.24682617 -52.90712891 117.21362305 -52.25634766 118.2097168 C-51.77423828 118.93416992 -51.29212891 119.65862305 -50.79541016 120.4050293 C-50.17794922 120.16526367 -49.56048828 119.92549805 -48.92431641 119.6784668 C-42.59540991 117.46286787 -38.07356421 116.84010824 -31.79541016 119.4050293 C-29.19033896 120.79900655 -26.7052831 122.29781717 -24.22119141 123.8972168 C-21.99761902 125.27934069 -19.81056951 126.34963426 -17.42041016 127.4050293 C-13.51749098 129.33288252 -11.74473688 131.43140174 -9.79541016 135.4050293 C-9.13541016 138.3750293 -8.47541016 141.3450293 -7.79541016 144.4050293 C-1.19541016 144.4050293 5.40458984 144.4050293 12.20458984 144.4050293 C12.61708984 142.6931543 13.02958984 140.9812793 13.45458984 139.2175293 C14.55034822 134.67013203 15.90255151 131.76256408 19.20458984 128.4050293 C21.52514107 127.049761 23.71376439 125.88544194 26.14208984 124.7800293 C31.13216883 122.43379798 31.13216883 122.43379798 35.94677734 119.7487793 C39.88185508 117.40679531 43.41360531 116.99394074 47.87646484 118.01831055 C50.34482131 118.75393656 52.77848574 119.54100429 55.20458984 120.4050293 C56.74122468 118.16447791 58.25859688 115.91440657 59.76708984 113.6550293 C60.20472656 113.02081055 60.64236328 112.3865918 61.09326172 111.7331543 C63.53970004 108.28733556 63.53970004 108.28733556 63.97387695 104.24780273 C63.72001221 103.6396875 63.46614746 103.03157227 63.20458984 102.4050293 C62.40021484 102.0956543 61.59583984 101.7862793 60.76708984 101.4675293 C58.20458984 100.4050293 58.20458984 100.4050293 56.95458984 97.9675293 C56.70708984 97.1219043 56.45958984 96.2762793 56.20458984 95.4050293 C55.87458984 94.4150293 55.54458984 93.4250293 55.20458984 92.4050293 C54.91861962 88.32650221 54.92688632 84.24245552 54.89208984 80.1550293 C54.84858398 78.47473633 54.84858398 78.47473633 54.80419922 76.76049805 C54.752863 70.07099385 55.10154027 65.78888564 59.20458984 60.4050293 C61.95458984 58.4675293 61.95458984 58.4675293 64.20458984 57.4050293 C62.89384619 52.94320494 61.13392974 49.40884173 58.57958984 45.5300293 C57.94794922 44.56323242 57.31630859 43.59643555 56.66552734 42.6003418 C56.18341797 41.87588867 55.70130859 41.15143555 55.20458984 40.4050293 C54.58712891 40.64479492 53.96966797 40.88456055 53.33349609 41.1315918 C47.0045896 43.34719072 42.4827439 43.96995036 36.20458984 41.4050293 C33.60055265 40.01160534 31.11521863 38.51276987 28.63037109 36.91674805 C26.40827991 35.53196659 24.20928091 34.42420705 21.82958984 33.3425293 C18.26221554 31.56603443 16.21505437 29.962005 14.20458984 26.4050293 C13.31431696 23.07418075 12.75094642 19.81975791 12.20458984 16.4050293 C5.60458984 16.4050293 -0.99541016 16.4050293 -7.79541016 16.4050293 Z " fill="#3e4097" transform="translate(253.79541015625,207.594970703125)"/>
<path d="M0 0 C11.8912287 9.94283481 20.24351849 24.8565692 21.63818359 40.35058594 C22.51088427 53.98894287 21.23526504 67.17926131 13.5625 78.87109375 C11.22270786 81.74575408 11.22270786 81.74575408 11.55078125 84.05859375 C12.72034848 86.77899683 14.36184857 88.33475905 16.5 90.37109375 C17.23347656 91.0775 17.96695313 91.78390625 18.72265625 92.51171875 C19.57150391 93.30835938 19.57150391 93.30835938 20.4375 94.12109375 C22.72418248 93.01867209 24.68972282 91.93703926 26.75 90.43359375 C29.59947645 89.04198897 31.33253153 88.83225222 34.44586182 89.36672974 C38.79343321 91.01344019 41.7962926 94.74107631 44.9609375 98.0234375 C46.14110947 99.21278648 46.14110947 99.21278648 47.34512329 100.42616272 C49.84863642 102.95657242 52.33024412 105.50734625 54.8125 108.05859375 C56.50517932 109.77279978 58.1991758 111.48570625 59.89453125 113.19726562 C62.9808782 116.3257346 66.0655208 119.4556805 69.13037109 122.60522461 C70.05467422 123.55334267 70.05467422 123.55334267 70.99765015 124.52061462 C72.88020062 126.61318193 73.40758792 127.96405532 73.9375 130.74609375 C73.39182911 134.42937227 72.84806916 135.12213358 70.4296875 137.76953125 C69.79321289 138.46997559 69.15673828 139.17041992 68.50097656 139.89208984 C67.8200293 140.62766113 67.13908203 141.36323242 66.4375 142.12109375 C65.76944336 142.86053223 65.10138672 143.5999707 64.41308594 144.36181641 C62.32795304 146.64696797 60.2009208 148.88582418 58.0625 151.12109375 C57.35867187 151.89582031 56.65484375 152.67054688 55.9296875 153.46875 C55.22328125 154.19964844 54.516875 154.93054688 53.7890625 155.68359375 C53.16854004 156.34488281 52.54801758 157.00617188 51.90869141 157.6875 C48.048674 159.92678297 44.76727303 160.19596248 40.4375 159.12109375 C36.99348383 156.97158489 34.29230902 154.23873717 31.46484375 151.34375 C30.65632462 150.5438414 29.84780548 149.7439328 29.01478577 148.91978455 C27.31558832 147.22669706 25.62764594 145.52224786 23.95043945 143.80737305 C21.3828356 141.19157642 18.77076122 138.62726559 16.15039062 136.06445312 C14.502315 134.41042998 12.85703356 132.753617 11.21484375 131.09375 C10.43374741 130.33087173 9.65265106 129.56799347 8.84788513 128.78199768 C5.31248645 125.10567631 2.96459289 122.52507309 2.79516602 117.28295898 C3.06609759 112.59124056 5.14709373 110.32923986 8.4375 107.12109375 C5.1375 103.82109375 1.8375 100.52109375 -1.5625 97.12109375 C-3.82344044 98.25156397 -6.08336391 99.38408973 -8.33984375 100.5234375 C-24.59178281 108.41838441 -41.14181958 110.97000527 -58.5625 105.12109375 C-75.04748186 99.21602562 -86.27094723 88.67099849 -94.04296875 73.16796875 C-100.47339702 58.76079221 -101.4994103 43.11636732 -96.5625 28.07421875 C-90.06137804 11.56479062 -80.3199292 0.31786488 -64.5625 -7.87890625 C-42.58807124 -16.92413375 -19.22979159 -14.09989292 0 0 Z M-72.5625 20.12109375 C-74.94278363 23.30478548 -76.83000714 26.54746985 -78.5625 30.12109375 C-78.90152344 30.79269531 -79.24054688 31.46429688 -79.58984375 32.15625 C-83.29114446 41.00866967 -82.97779633 53.0892511 -79.9375 62.12109375 C-74.39862297 74.87788023 -65.51648627 83.90146144 -52.5625 89.12109375 C-41.64917542 93.21627056 -30.08528261 91.59493089 -19.5625 87.12109375 C-7.68064514 80.63397073 -0.21644173 71.03607352 4.046875 58.30078125 C6.29375893 45.76316892 4.3558492 34.2716026 -2.25 23.43359375 C-9.29365658 13.56541323 -19.28237482 6.59303764 -31.2890625 4.40234375 C-47.65454437 2.37774806 -61.42785886 8.22176201 -72.5625 20.12109375 Z M28.7109375 111.65234375 C27.77121094 112.626875 27.77121094 112.626875 26.8125 113.62109375 C26.18085938 114.27078125 25.54921875 114.92046875 24.8984375 115.58984375 C24.41632813 116.09515625 23.93421875 116.60046875 23.4375 117.12109375 C27.82192526 122.37284301 32.44592093 127.25331848 37.3125 132.05859375 C38.00085938 132.74244141 38.68921875 133.42628906 39.3984375 134.13085938 C41.07583511 135.79660839 42.75553791 137.45995595 44.4375 139.12109375 C45.61575358 138.21936907 46.77981577 137.29907873 47.9375 136.37109375 C48.5871875 135.860625 49.236875 135.35015625 49.90625 134.82421875 C51.88322515 133.00705079 51.88322515 133.00705079 51.4375 129.12109375 C49.71321589 126.81047427 49.71321589 126.81047427 47.3515625 124.57421875 C46.50335938 123.72988281 45.65515625 122.88554687 44.78125 122.015625 C43.8840625 121.14292969 42.986875 120.27023437 42.0625 119.37109375 C41.17304688 118.48292969 40.28359375 117.59476563 39.3671875 116.6796875 C34.62461612 110.71045976 34.62461612 110.71045976 28.7109375 111.65234375 Z " fill="#3e4097" transform="translate(106.5625,344.87890625)"/>
<path d="M0 0 C3.68069887 1.53643852 5.98775204 3.78150945 8.75 6.625 C9.54921875 7.44226563 10.3484375 8.25953125 11.171875 9.1015625 C11.77515625 9.72804688 12.3784375 10.35453125 13 11 C11.34422378 15.0323021 8.49973888 17.93362585 5.625 21.125 C-26.91385841 58.35805347 -42.56371198 108.17958167 -39.87548828 157.27392578 C-38.92079233 171.39915558 -35.96157546 185.18213506 -33 199 C-38.61201606 201.24480642 -44.07136283 202.83348574 -50 204 C-61.02510516 160.93338745 -61.15377241 117.12489007 -46 75 C-45.59273682 73.86280518 -45.59273682 73.86280518 -45.17724609 72.70263672 C-36.0688507 47.72119006 -22.44773192 25.94802995 -5 6 C-3.32248529 4.00873852 -1.66041668 2.00559291 0 0 Z " fill="#3e4097" transform="translate(105,111)"/>
<path d="M0 0 C4.21442635 1.58040988 6.68379065 4.71180066 9.5 8.0625 C10.02335937 8.68318359 10.54671875 9.30386719 11.0859375 9.94335938 C36.78044882 40.89356619 52.10038596 77.3488262 58 117 C58.15577515 118.01465332 58.15577515 118.01465332 58.31469727 119.04980469 C59.36368444 126.93939681 59.28545583 134.92927924 59.3125 142.875 C59.31578308 143.66303009 59.31906616 144.45106018 59.32244873 145.26296997 C59.34383167 161.21363635 59.35596033 179.15445897 53 194 C47.49191603 193.40984815 42.35121931 192.43336231 37 191 C37.4122031 186.24768524 37.84162245 181.52962322 38.75390625 176.84375 C47.790551 129.55362184 36.48185404 78.74643983 10.00708008 38.78076172 C4.24949488 30.32084409 -2.05860264 21.08732149 -9.875 14.39453125 C-11 13 -11 13 -10.8984375 11.0390625 C-9.82538522 8.60370038 -8.54407429 7.21310069 -6.625 5.375 C-6.01914062 4.78460938 -5.41328125 4.19421875 -4.7890625 3.5859375 C-3 2 -3 2 0 0 Z " fill="#3e4097" transform="translate(405,112)"/>
<path d="M0 0 C1.17441535 2.10016623 2.33964012 4.20458755 3.5 6.3125 C3.83386719 6.90740234 4.16773438 7.50230469 4.51171875 8.11523438 C6.06825114 10.95828844 7 12.70660988 7 16 C-43.80521543 41.34513575 -96.95930276 46.9724186 -152 33 C-151.41139757 30.34979514 -150.80512738 27.70594517 -150.1875 25.0625 C-150.02185547 24.30775391 -149.85621094 23.55300781 -149.68554688 22.77539062 C-149.22183377 20.82429587 -148.6192456 18.90744213 -148 17 C-144.6766371 15.89221237 -143.65689098 16.11654075 -140.34375 16.92578125 C-138.94817871 17.25412964 -138.94817871 17.25412964 -137.52441406 17.58911133 C-136.52635742 17.82782959 -135.52830078 18.06654785 -134.5 18.3125 C-89.44501615 28.54171259 -44.70032 21.44935381 -3.65380859 0.71508789 C-2 0 -2 0 0 0 Z " fill="#3e4097" transform="translate(349,424)"/>
<path d="M0 0 C8.34468007 4.97590182 13.53387008 11.86345977 16.109375 21.2578125 C17.10789012 32.35758522 16.45884702 41.9922991 9.359375 51.0703125 C3.70168013 57.1280464 -3.34488592 60.84888618 -11.625 61.59375 C-22.35447774 61.83515993 -31.19802606 60.58332943 -39.359375 52.9609375 C-46.75303791 44.73737365 -48.47252567 36.02335615 -48.203125 25.24609375 C-47.72879865 16.86039919 -44.11592977 9.8548755 -37.890625 4.2578125 C-27.15195714 -3.81766573 -12.32399863 -5.91386512 0 0 Z M-29.265625 20.8828125 C-31.46970393 25.46051489 -31.6877889 29.26333661 -30.890625 34.2578125 C-28.56093569 39.09639798 -25.72921048 41.92812319 -20.890625 44.2578125 C-15.89614911 45.0549764 -12.09332739 44.83689143 -7.515625 42.6328125 C-3.93154787 39.39007605 -1.29527259 36.79305354 -0.5078125 31.859375 C-0.25178581 26.17558256 -0.95435568 22.60842595 -4.890625 18.2578125 C-9.24123845 14.32154318 -12.80839506 13.61897331 -18.4921875 13.875 C-23.42586604 14.66246009 -26.02288855 17.29873537 -29.265625 20.8828125 Z " fill="#3e4097" transform="translate(271.890625,258.7421875)"/>
<path d="M0 0 C13.2 0 26.4 0 40 0 C40 5.28 40 10.56 40 16 C26.8 16 13.6 16 0 16 C0 10.72 0 5.44 0 0 Z " fill="#3e4097" transform="translate(136,72)"/>
<path d="M0 0 C13.2 0 26.4 0 40 0 C40 5.28 40 10.56 40 16 C26.8 16 13.6 16 0 16 C0 10.72 0 5.44 0 0 Z " fill="#3e4097" transform="translate(120,40)"/>
</svg>
