<?xml version="1.0" encoding="UTF-8"?>
<svg version="1.1" xmlns="http://www.w3.org/2000/svg" width="512" height="512">
<path d="M0 0 C0.93634781 -0.02042862 1.87269562 -0.04085724 2.8374176 -0.06190491 C4.82008564 -0.09525778 6.80297299 -0.11724479 8.78588867 -0.12866211 C11.77858849 -0.15976324 14.76142403 -0.27080068 17.75195312 -0.38476562 C29.53368872 -0.61481663 36.95396313 0.70102529 45.59985352 8.97290039 C46.51694092 9.8983667 47.43402832 10.82383301 48.37890625 11.77734375 C49.72601695 12.93114177 51.08294184 14.07377989 52.45703125 15.1953125 C53.51663925 16.11583 54.57403445 17.03890257 55.62890625 17.96484375 C60.32492379 22.03621288 65.08116861 25.99939438 69.95703125 29.85546875 C73.52778319 32.68903319 77.04769364 35.58351808 80.5703125 38.4765625 C82.48920734 40.04850834 84.41397349 41.61330715 86.34375 43.171875 C87.30410156 43.94917969 88.26445312 44.72648437 89.25390625 45.52734375 C90.11757813 46.2234375 90.98125 46.91953125 91.87109375 47.63671875 C96.49644799 51.58484044 99.82467342 54.99531818 102.296875 60.60546875 C103.08046387 62.36105103 103.08046387 62.36105103 103.87988281 64.15209961 C104.44225818 65.44376021 105.00442551 66.7355114 105.56640625 68.02734375 C106.17317061 69.39830334 106.78094661 70.76881556 107.38964844 72.13891602 C109.05065343 75.88661754 110.6964314 79.64081619 112.33807373 83.39703369 C114.10874028 87.44642236 115.88709894 91.49243421 117.6640625 95.5390625 C119.91207086 100.66012944 122.15856691 105.78184672 124.40063477 110.90551758 C130.91615863 125.78469912 137.56364371 140.60269056 144.25158691 155.40504456 C145.61392305 158.42161463 146.97396076 161.43921614 148.33312988 164.45721436 C149.06046884 166.07086767 149.78899059 167.68398817 150.51843262 169.29669189 C151.65004196 171.80034037 152.77670157 174.30616404 153.90234375 176.8125 C154.25164948 177.58275009 154.6009552 178.35300018 154.96084595 179.14659119 C157.37890625 184.54933327 157.37890625 184.54933327 157.37890625 186.77734375 C158.56967773 186.75639648 159.76044922 186.73544922 160.98730469 186.71386719 C165.40775514 186.64143413 169.82815321 186.59553203 174.24902344 186.55761719 C176.1618736 186.53750923 178.07466236 186.51021868 179.98730469 186.47558594 C182.73778436 186.42703126 185.48745102 186.40436717 188.23828125 186.38671875 C189.09258728 186.36607361 189.94689331 186.34542847 190.8270874 186.32415771 C196.68828039 186.32194567 196.68828039 186.32194567 199.71923828 188.32055664 C201.89927432 191.54763852 203.52245365 194.91986108 205.07421875 198.4765625 C205.41878113 199.24641479 205.76334351 200.01626709 206.11834717 200.80944824 C207.25585201 203.35735268 208.37992419 205.91094839 209.50390625 208.46484375 C210.30674203 210.27090604 211.11030303 212.07664611 211.91455078 213.88208008 C214.41638409 219.50781562 216.89941594 225.14173203 219.37890625 230.77734375 C219.95112915 232.07671875 219.95112915 232.07671875 220.53491211 233.40234375 C223.85500053 240.94163603 227.16855844 248.48377538 230.47167969 256.03051758 C235.76259037 268.11708476 241.09666455 280.18391485 246.4586792 292.23910522 C247.73900197 295.11882088 249.01740629 297.99938154 250.29541016 300.88012695 C253.92773768 309.06193422 257.5750586 317.23491562 261.30859375 325.37109375 C261.8852735 326.63607319 262.46162265 327.90120342 263.03759766 329.16650391 C264.05740933 331.4004516 265.08743061 333.62978348 266.13037109 335.85302734 C270.37873988 345.19255873 270.37873988 345.19255873 269.37890625 350.77734375 C267.83159828 352.93680143 267.83159828 352.93680143 265.37890625 354.77734375 C262.64729522 355.16944578 260.31905227 355.31529574 257.58895874 355.28070831 C256.79538286 355.28652208 256.00180699 355.29233584 255.18418336 355.29832578 C252.50838954 355.31299625 249.83350293 355.29900805 247.15771484 355.28527832 C245.22670203 355.28988445 243.29569272 355.29623543 241.36469078 355.3041873 C236.0454193 355.32094322 230.7264335 355.31260584 225.40716076 355.30024242 C219.67565628 355.29121982 213.94420212 355.30514776 208.21270752 355.31616211 C196.97958726 355.3339818 185.74657369 355.33009199 174.51344919 355.31851155 C165.38694792 355.30949105 156.26047662 355.30824722 147.13397217 355.31260681 C145.83679996 355.31321974 144.53962775 355.31383268 143.20314729 355.31446418 C140.56826034 355.31574304 137.9333734 355.31703989 135.29848647 355.31835455 C111.27588806 355.32944479 87.25334739 355.31792884 63.23075828 355.29698416 C41.29117742 355.27800108 19.35168942 355.27969956 -2.58789062 355.29882812 C-27.22527564 355.32023692 -51.86260451 355.32867172 -76.49999809 355.31637907 C-79.12538528 355.31510483 -81.75077247 355.31384734 -84.37615967 355.31260681 C-86.31395088 355.31168116 -86.31395088 355.31168116 -88.29088938 355.31073681 C-97.41018647 355.30727795 -106.52945068 355.31312377 -115.64874268 355.32252502 C-126.75673827 355.33372436 -137.86462075 355.33074851 -148.97260332 355.30940205 C-154.64393626 355.29886381 -160.31508036 355.29481696 -165.98641205 355.30799866 C-171.17271305 355.31987102 -176.35864922 355.31344551 -181.54491687 355.29208845 C-183.42641358 355.28760043 -185.30794078 355.28993756 -187.18941808 355.2995916 C-189.73710579 355.31166665 -192.28352596 355.29937226 -194.83114624 355.28070831 C-195.57032846 355.29007298 -196.30951068 355.29943764 -197.07109237 355.30908608 C-200.47046241 355.25893675 -202.31857055 355.00233505 -205.07943153 352.94903898 C-207.36825662 349.72483689 -207.09436482 347.6642406 -206.62109375 343.77734375 C-205.74805915 340.99714482 -204.5653948 338.4147937 -203.31640625 335.78515625 C-202.96618408 335.0195488 -202.61596191 334.25394135 -202.25512695 333.46513367 C-201.49564916 331.8084823 -200.73023277 330.15454321 -199.95953369 328.50308228 C-198.2946448 324.93476337 -196.65902069 321.35327408 -195.02145386 317.77235413 C-194.16541935 315.90103455 -193.30791646 314.03038603 -192.44900513 312.16038513 C-188.48282825 303.51659508 -184.6467169 294.81876442 -180.84277344 286.1026001 C-178.98127293 281.83745571 -177.11387166 277.57489841 -175.24609375 273.3125 C-174.68172607 272.02439423 -174.68172607 272.02439423 -174.10595703 270.71026611 C-169.68718004 260.6339804 -165.21855114 250.57989174 -160.74609375 240.52734375 C-160.1242923 239.12968781 -160.1242923 239.12968781 -159.4899292 237.70379639 C-157.38414323 232.97106516 -155.2776679 228.23864115 -153.17089844 223.50634766 C-149.32197832 214.85984552 -145.47935373 206.21054556 -141.63616943 197.56149292 C-140.38292156 194.74145845 -139.12927165 191.92160306 -137.87548828 189.10180664 C-134.27688346 181.00790554 -130.67975004 172.91337759 -127.09332275 164.81407166 C-125.61684889 161.47991484 -124.1390886 158.14632891 -122.66125488 154.81277466 C-121.97851356 153.27163896 -121.2964438 151.73020554 -120.6151123 150.18844604 C-118.63573292 145.70947535 -116.63951298 141.23886925 -114.62109375 136.77734375 C-114.03714844 135.47144287 -114.03714844 135.47144287 -113.44140625 134.13916016 C-111.66000343 130.33037593 -110.33875549 127.80252624 -106.62109375 125.77734375 C-103.650807 125.30823467 -100.70209125 125.28867567 -97.69921875 125.265625 C-96.83923279 125.2476738 -95.97924683 125.2297226 -95.09320068 125.21122742 C-92.35254791 125.15714337 -89.6120691 125.12323512 -86.87109375 125.08984375 C-85.01039247 125.05666896 -83.14971414 125.02217915 -81.2890625 124.98632812 C-76.73319847 124.90141806 -72.17738587 124.83459791 -67.62109375 124.77734375 C-67.18055664 123.77098877 -66.74001953 122.76463379 -66.28613281 121.7277832 C-56.56033959 99.51655143 -46.7931902 77.32435295 -36.90893555 55.18310547 C-32.95356619 46.31696865 -29.02967777 37.44042768 -25.19921875 28.51953125 C-24.18093089 26.16125101 -23.1617797 23.80334562 -22.14242554 21.44552612 C-21.21035999 19.27711429 -20.29312868 17.10283241 -19.3762207 14.92797852 C-18.81406087 13.62614199 -18.25119779 12.32460883 -17.6875 11.0234375 C-16.97509155 9.34785767 -16.97509155 9.34785767 -16.24829102 7.63842773 C-12.21539206 0.54742356 -7.54321267 0.11713341 0 0 Z M-2.62109375 15.77734375 C-11.72357995 35.89939925 -20.77320648 56.04185721 -29.62109375 76.27734375 C-35.90097559 90.63901022 -42.27598982 104.95400612 -48.73300171 119.23687744 C-55.50666464 134.22475015 -62.13678318 149.2731077 -68.69726562 164.35546875 C-74.50762872 177.69389679 -74.50762872 177.69389679 -77.41015625 183.859375 C-77.75900879 184.60421143 -78.10786133 185.34904785 -78.46728516 186.11645508 C-79.62109375 187.77734375 -79.62109375 187.77734375 -83.18359375 189.08984375 C-86.62109375 188.77734375 -86.62109375 188.77734375 -89.05859375 187.77734375 C-91.43182681 184.73960543 -90.92893983 182.57720005 -90.62109375 178.77734375 C-89.69748381 175.82976431 -88.43307408 173.08206067 -87.12109375 170.2890625 C-86.58838867 169.11244804 -86.58838867 169.11244804 -86.04492188 167.9120636 C-84.91588221 165.42385748 -83.76938414 162.94421656 -82.62109375 160.46484375 C-81.47613175 157.96624275 -80.33488223 155.46601923 -79.19726562 152.96406555 C-78.49002655 151.41147483 -77.77792566 149.86108789 -77.06054688 148.31315613 C-75.25740253 144.6956645 -75.25740253 144.6956645 -74.62109375 140.77734375 C-82.87109375 140.77734375 -91.12109375 140.77734375 -99.62109375 140.77734375 C-109.98060961 163.55219958 -120.24332539 186.36295971 -130.26904297 209.28686523 C-134.50581571 218.97226347 -138.77840396 228.63884176 -143.12109375 238.27734375 C-148.64707341 250.5436693 -154.05299482 262.86048984 -159.44433594 275.18643188 C-163.81476122 285.17404943 -168.21917365 295.14479248 -172.703125 305.08203125 C-173.11753342 306.00048325 -173.53194183 306.91893524 -173.95890808 307.86521912 C-175.95385576 312.28277691 -177.9538979 316.69796402 -179.9597168 321.1105957 C-180.68019176 322.7013274 -181.40065156 324.29206596 -182.12109375 325.8828125 C-182.44733231 326.59658051 -182.77357086 327.31034851 -183.10969543 328.04574585 C-183.41251938 328.71538361 -183.71534332 329.38502136 -184.02734375 330.07495117 C-184.28837891 330.64855881 -184.54941406 331.22216644 -184.81835938 331.81315613 C-185.88304808 334.41831226 -186.73112743 337.10744479 -187.62109375 339.77734375 C-147.69109375 339.77734375 -107.76109375 339.77734375 -66.62109375 339.77734375 C-60.02109375 324.92734375 -53.42109375 310.07734375 -46.62109375 294.77734375 C-43.15185494 292.46451788 -41.699038 292.35255789 -37.62109375 292.77734375 C-35.74609375 293.83984375 -35.74609375 293.83984375 -34.62109375 295.77734375 C-34.05108226 301.86741582 -35.60679212 305.9256946 -38.12109375 311.30078125 C-38.65379883 312.48095322 -38.65379883 312.48095322 -39.19726562 313.68496704 C-40.32634677 316.17985315 -41.47308632 318.66611793 -42.62109375 321.15234375 C-43.76513254 323.66164695 -44.90555187 326.17256443 -46.04492188 328.68399048 C-46.75359876 330.24256114 -47.46575294 331.79955611 -48.18164062 333.35482788 C-49.8705521 336.44860965 -49.8705521 336.44860965 -50.62109375 339.77734375 C3.49890625 339.77734375 57.61890625 339.77734375 113.37890625 339.77734375 C106.16602583 322.90691937 106.16602583 322.90691937 98.59375 306.22265625 C97.27740307 302.48947942 97.06476003 299.70658798 97.37890625 295.77734375 C98.50390625 293.83984375 98.50390625 293.83984375 100.37890625 292.77734375 C103.31640625 292.33984375 103.31640625 292.33984375 106.37890625 292.77734375 C118.71223958 305.11067708 122.32949364 323.82340994 129.37890625 339.77734375 C169.30890625 339.77734375 209.23890625 339.77734375 250.37890625 339.77734375 C244.96139246 326.52029358 244.96139246 326.52029358 239.21484375 313.421875 C238.86076447 312.64011398 238.50668518 311.85835297 238.14187622 311.05290222 C237.39672265 309.40772902 236.65045315 307.76306081 235.90307617 306.11889648 C230.11716165 293.38545935 224.39767837 280.62893708 218.87890625 267.77734375 C209.36422678 245.63700189 199.35043172 223.71469978 189.37890625 201.77734375 C181.12890625 201.77734375 172.87890625 201.77734375 164.37890625 201.77734375 C166.77195656 208.29634286 169.30443127 214.6678072 172.16015625 220.99609375 C172.65668701 222.09961182 173.15321777 223.20312988 173.66479492 224.34008789 C174.67361001 226.5701936 175.69185047 228.79606224 176.7199707 231.01733398 C177.19136475 232.06091064 177.66275879 233.1044873 178.1484375 234.1796875 C178.79196167 235.57948853 178.79196167 235.57948853 179.44848633 237.00756836 C180.49091401 240.11078066 180.62085152 242.52414136 180.37890625 245.77734375 C179.31640625 247.65234375 179.31640625 247.65234375 177.37890625 248.77734375 C171.3122362 249.42734411 171.3122362 249.42734411 168.88061523 247.73388672 C166.62450138 244.79444656 165.29465491 241.48353736 163.8515625 238.09765625 C163.51105362 237.31508453 163.17054474 236.53251282 162.81971741 235.72622681 C162.07850237 234.02076098 161.34049137 232.31389993 160.60528564 230.60583496 C159.01120077 226.90305058 157.40133828 223.20719507 155.7923584 219.51086426 C154.94368946 217.56092188 154.09580317 215.6106387 153.24865723 213.66003418 C148.72747293 203.25554402 144.1198337 192.89006286 139.50390625 182.52734375 C138.66698997 180.64676572 137.83015773 178.76615028 136.9934082 176.88549805 C135.30558116 173.09226733 133.61729832 169.29923996 131.92871094 165.50634766 C128.08010843 156.86055903 124.23771575 148.21201018 120.39480591 139.56369019 C118.31804823 134.89004669 116.24109422 130.21649046 114.1640625 125.54296875 C113.76321945 124.6410228 113.3623764 123.73907684 112.9493866 122.80979919 C110.61000743 117.54624801 108.26971099 112.28310594 105.92849731 107.02037048 C104.48005881 103.76442379 103.03195224 100.50832951 101.5838623 97.25222778 C100.92250037 95.76539332 100.26097 94.27863377 99.59924316 92.79196167 C98.98334433 91.40824149 98.36783138 90.02434949 97.75273132 88.64027405 C97.1636181 87.31647736 96.57268521 85.99348876 95.97981262 84.67137146 C94.46331899 81.27788158 92.9990299 77.87170305 91.59936523 74.42822266 C91.30173782 73.71040115 91.00411041 72.99257965 90.69746399 72.25300598 C90.13700261 70.89724942 89.58888983 69.53628401 89.05656433 68.16923523 C86.15159105 61.20949898 80.90161204 57.25090347 74.96728516 52.93847656 C72.66506809 51.25551555 70.46585113 49.45153336 68.25390625 47.65234375 C67.45597656 47.01941406 66.65804687 46.38648438 65.8359375 45.734375 C61.31105744 42.13029724 56.85097522 38.44657285 52.37890625 34.77734375 C50.54580463 33.27706058 48.71247198 31.77705967 46.87890625 30.27734375 C45.98429688 29.54515625 45.0896875 28.81296875 44.16796875 28.05859375 C42.20533392 26.45330139 40.24185959 24.84907985 38.27734375 23.24609375 C36.78074219 22.0240625 36.78074219 22.0240625 35.25390625 20.77734375 C34.34382812 20.03484375 33.43375 19.29234375 32.49609375 18.52734375 C31.4280901 17.64456583 30.35868394 16.75712144 29.37890625 15.77734375 C27.00322105 15.68894705 24.65681951 15.6620407 22.28125 15.6796875 C21.57239151 15.68110245 20.86353302 15.6825174 20.13319397 15.68397522 C17.86088913 15.68958932 15.5886815 15.70214412 13.31640625 15.71484375 C11.77929829 15.71985694 10.2421888 15.72442016 8.70507812 15.72851562 C4.92964983 15.73956333 1.15429454 15.75683734 -2.62109375 15.77734375 Z " fill="#fb000f" transform="translate(224.62109375,139.22265625)"/>
<path d="M0 0 C2.77281171 1.84631934 3.03198557 3.13613181 3.80859375 6.44140625 C4.02599801 7.81389609 4.23523459 9.18769759 4.4375 10.5625 C6.63692368 23.5051508 10.8605283 33.76252338 21.875 41.625 C25.11127674 44.0148659 25.88948749 44.69477496 27.3125 48.625 C26.91855995 52.87955252 26.08929877 54.06139873 23 57 C21.71262152 57.90198492 20.42054237 58.79728087 19.125 59.6875 C10.63945572 65.87027576 6.16925336 77.10975696 4.453125 87.22265625 C4.16487367 89.26774972 3.90626842 91.31740523 3.6875 93.37109375 C2.83656685 96.62494607 1.6094961 97.9239368 -1 100 C-4.8197152 100.73143483 -6.43413688 100.34723419 -9.75 98.3125 C-12.96508088 94.71079547 -12.85915891 90.09031044 -13.421875 85.484375 C-15.49738518 72.97521902 -22.05570788 63.7119692 -32.14453125 56.4453125 C-34.84159208 54.34444406 -34.97246998 53.18706872 -35.4765625 49.76171875 C-34.80950395 44.49633035 -32.36416405 43.00682686 -28.375 39.8125 C-18.09610248 30.85858652 -14.61259781 21.68486422 -12.46630859 8.40966797 C-11.44216693 2.48228104 -11.44216693 2.48228104 -9.10546875 -0.06640625 C-5.81291304 -1.52637066 -3.41894362 -0.87027656 0 0 Z M-5 36 C-6.1596692 37.55811964 -7.2773786 39.14756538 -8.375 40.75 C-10.52669798 43.88140728 -12.69762845 46.97725453 -15 50 C-14.52949219 50.51949219 -14.05898438 51.03898437 -13.57421875 51.57421875 C-10.29555335 55.24659552 -7.51808506 58.75901463 -5 63 C-4.34 63 -3.68 63 -3 63 C-1.5143751 61.08112225 -1.5143751 61.08112225 -0.0625 58.6875 C1.75569887 55.79977238 3.48648525 53.318436 6 51 C4.37879192 47.43503982 2.2405574 44.40991178 -0.0625 41.25 C-0.77535156 40.26515625 -1.48820312 39.2803125 -2.22265625 38.265625 C-2.80917969 37.51796875 -3.39570313 36.7703125 -4 36 C-4.33 36 -4.66 36 -5 36 Z " fill="#fb000f" transform="translate(423,202)"/>
<path d="M0 0 C1.0209375 -0.01160156 1.0209375 -0.01160156 2.0625 -0.0234375 C4.58857512 0.49603763 5.36163486 1.40807081 7 3.375 C7.59667969 5.25341797 7.59667969 5.25341797 7.921875 7.3671875 C8.05625977 8.14868164 8.19064453 8.93017578 8.32910156 9.73535156 C8.46799805 10.56518555 8.60689453 11.39501953 8.75 12.25 C11.15202965 24.8522987 15.52530855 34.46419746 26 42.375 C30.81520591 46.48798838 30.81520591 46.48798838 31.625 50.375 C30.66346366 54.99037441 27.84572097 57.01580799 24.1328125 59.75 C13.27822898 68.19714671 9.54593393 81.81297384 7.66015625 94.921875 C6.92032964 97.67105317 6.31002775 98.73493389 4 100.375 C2.0625 100.7734375 2.0625 100.7734375 0 100.75 C-1.0209375 100.76160156 -1.0209375 100.76160156 -2.0625 100.7734375 C-4.71844622 100.22725501 -5.45427767 99.62373307 -7 97.375 C-7.59868957 94.82695405 -8.0580501 92.39162929 -8.4375 89.8125 C-10.57129804 77.25602752 -14.63566845 66.79399871 -25.3125 59.0625 C-25.96863281 58.63324219 -26.62476562 58.20398438 -27.30078125 57.76171875 C-29.30251601 56.12811912 -30.0921732 54.78190489 -31 52.375 C-30.86059549 49.02929178 -30.55674509 47.06536391 -28.4375 44.4375 C-27.03078102 43.24719933 -25.61319508 42.06901999 -24.16796875 40.92578125 C-12.8870461 31.67240493 -9.38290336 19.98632165 -7.625 5.94140625 C-6.54095707 1.49005498 -4.53433417 -0.05152652 0 0 Z M-1 37.375 C-3.05301144 39.70602272 -3.05301144 39.70602272 -5.125 42.625 C-5.84945312 43.59953125 -6.57390625 44.5740625 -7.3203125 45.578125 C-9.34323191 48.40277223 -9.34323191 48.40277223 -9 52.375 C-7.25503776 55.25903711 -7.25503776 55.25903711 -5 58.125 C-3.88625 59.60226563 -3.88625 59.60226563 -2.75 61.109375 C-2.1725 61.85703125 -1.595 62.6046875 -1 63.375 C2.93677426 62.06274191 3.8271782 60.1788606 6.1875 56.8125 C6.90292969 55.80058594 7.61835937 54.78867188 8.35546875 53.74609375 C8.89816406 52.96363281 9.44085938 52.18117188 10 51.375 C8.45463516 48.06791925 6.57205999 45.12773101 4.5 42.125 C3.8915625 41.23296875 3.283125 40.3409375 2.65625 39.421875 C2.1096875 38.74640625 1.563125 38.0709375 1 37.375 C0.34 37.375 -0.32 37.375 -1 37.375 Z " fill="#fb000f" transform="translate(120,140.625)"/>
<path d="M0 0 C1.0209375 -0.01160156 1.0209375 -0.01160156 2.0625 -0.0234375 C4.71844622 0.52274499 5.45427767 1.12626693 7 3.375 C7.59868957 5.92304595 8.0580501 8.35837071 8.4375 10.9375 C10.5785877 23.53686896 14.68147183 33.91661082 25.3125 41.75 C25.96863281 42.19085938 26.62476563 42.63171875 27.30078125 43.0859375 C29.9995002 45.13324153 30.93303296 46.93493088 31.4375 50.25 C30.76113859 55.08115293 27.82913109 56.95150784 24.09765625 59.85546875 C13.08367336 68.75544341 9.49670902 81.47695033 7.625 95.02734375 C6.91575554 97.69144326 6.15212571 98.69464569 4 100.375 C0.79804736 101.55466676 -0.51483214 101.57809352 -3.6875 100.25 C-8.10565942 96.66770858 -8.40312792 91.57120589 -9.3125 86.1875 C-11.54877717 74.25536397 -16.81030394 64.57416137 -26.875 57.5 C-28.421875 56.448125 -28.421875 56.448125 -30 55.375 C-31.44430855 52.48638291 -31.37688506 50.57852299 -31 47.375 C-28.91357766 44.83217277 -26.60103029 42.86697237 -24.0625 40.7890625 C-13.0539803 31.57359714 -9.25214768 19.93530568 -7.58984375 5.87109375 C-6.54473874 1.44843081 -4.47577381 -0.05086107 0 0 Z M-1 37.375 C-3.05301144 39.70602272 -3.05301144 39.70602272 -5.125 42.625 C-5.84945312 43.59953125 -6.57390625 44.5740625 -7.3203125 45.578125 C-9.34323191 48.40277223 -9.34323191 48.40277223 -9 52.375 C-7.25503776 55.25903711 -7.25503776 55.25903711 -5 58.125 C-3.88625 59.60226563 -3.88625 59.60226563 -2.75 61.109375 C-2.1725 61.85703125 -1.595 62.6046875 -1 63.375 C2.93677426 62.06274191 3.8271782 60.1788606 6.1875 56.8125 C6.90292969 55.80058594 7.61835938 54.78867188 8.35546875 53.74609375 C8.89816406 52.96363281 9.44085938 52.18117188 10 51.375 C8.45463516 48.06791925 6.57205999 45.12773101 4.5 42.125 C3.8915625 41.23296875 3.283125 40.3409375 2.65625 39.421875 C2.1096875 38.74640625 1.563125 38.0709375 1 37.375 C0.34 37.375 -0.32 37.375 -1 37.375 Z " fill="#fb000f" transform="translate(256,17.625)"/>
<path d="M0 0 C1.0209375 -0.01160156 1.0209375 -0.01160156 2.0625 -0.0234375 C4.71844622 0.52274499 5.45427767 1.12626693 7 3.375 C7.59868957 5.92304595 8.0580501 8.35837071 8.4375 10.9375 C10.5785877 23.53686896 14.68147183 33.91661082 25.3125 41.75 C25.96863281 42.19085938 26.62476563 42.63171875 27.30078125 43.0859375 C29.9995002 45.13324153 30.93303296 46.93493088 31.4375 50.25 C30.76113859 55.08115293 27.82913109 56.95150784 24.09765625 59.85546875 C13.08367336 68.75544341 9.49670902 81.47695033 7.625 95.02734375 C6.91575554 97.69144326 6.15212571 98.69464569 4 100.375 C0.79804736 101.55466676 -0.51483214 101.57809352 -3.6875 100.25 C-8.10565942 96.66770858 -8.40312792 91.57120589 -9.3125 86.1875 C-11.54877717 74.25536397 -16.81030394 64.57416137 -26.875 57.5 C-28.421875 56.448125 -28.421875 56.448125 -30 55.375 C-31.44430855 52.48638291 -31.37688506 50.57852299 -31 47.375 C-28.92581697 44.84708943 -26.64924083 42.89225963 -24.09765625 40.859375 C-12.85844805 31.62639782 -9.37738761 19.94225306 -7.625 5.94140625 C-6.54095707 1.49005498 -4.53433417 -0.05152652 0 0 Z M-1 37.375 C-3.05301144 39.70602272 -3.05301144 39.70602272 -5.125 42.625 C-5.84945312 43.59953125 -6.57390625 44.5740625 -7.3203125 45.578125 C-9.34323191 48.40277223 -9.34323191 48.40277223 -9 52.375 C-7.25503776 55.25903711 -7.25503776 55.25903711 -5 58.125 C-3.88625 59.60226562 -3.88625 59.60226562 -2.75 61.109375 C-2.1725 61.85703125 -1.595 62.6046875 -1 63.375 C2.93677426 62.06274191 3.8271782 60.1788606 6.1875 56.8125 C6.90292969 55.80058594 7.61835938 54.78867187 8.35546875 53.74609375 C8.89816406 52.96363281 9.44085938 52.18117188 10 51.375 C8.45463516 48.06791925 6.57205999 45.12773101 4.5 42.125 C3.8915625 41.23296875 3.283125 40.3409375 2.65625 39.421875 C2.1096875 38.74640625 1.563125 38.0709375 1 37.375 C0.34 37.375 -0.32 37.375 -1 37.375 Z " fill="#fb000f" transform="translate(256,313.625)"/>
<path d="M0 0 C4.23119137 5.14534534 6.78452794 11.61239252 9.390625 17.6796875 C9.9757486 19.02064987 9.9757486 19.02064987 10.57269287 20.38870239 C11.80441834 23.21492179 13.02741473 26.04481642 14.25 28.875 C15.08534377 30.79713314 15.92127585 32.71901072 16.7578125 34.640625 C17.93087404 37.33533569 19.10305263 40.03039031 20.27056885 42.72750854 C20.61472839 43.52238678 20.95888794 44.31726501 21.31347656 45.13623047 C21.76717621 46.18591507 21.76717621 46.18591507 22.2300415 47.25680542 C22.78768752 48.51932218 23.38276137 49.76552274 24 51 C24.28406345 53.93532227 24.49465741 56.15009878 24 59 C21.875 61.5625 21.875 61.5625 19 63 C15.84179554 62.93683591 13.89835049 62.75420611 11.44763184 60.69671631 C9.86569674 58.84258807 8.95856093 57.13750629 7.96289062 54.91503906 C7.59240601 54.09698792 7.22192139 53.27893677 6.84020996 52.43609619 C6.44950317 51.5548407 6.05879639 50.67358521 5.65625 49.765625 C5.24588501 48.85423767 4.83552002 47.94285034 4.41271973 47.00384521 C3.10206074 44.08872876 1.80100137 41.16943745 0.5 38.25 C-0.37568923 36.29920395 -1.25198459 34.34867986 -2.12890625 32.3984375 C-4.43108232 27.27080383 -6.72563914 22.14003297 -9 17 C-9.30462158 16.3234436 -9.60924316 15.64688721 -9.9230957 14.9498291 C-11.64369696 11.0684195 -12.56990665 8.27429988 -12 4 C-9.10427638 -1.10198923 -5.44589975 -1.85160592 0 0 Z " fill="#fb000f" transform="translate(296,237)"/>
</svg>
