<?xml version="1.0" encoding="UTF-8"?>
<svg version="1.1" xmlns="http://www.w3.org/2000/svg" width="512" height="512">
<path d="M0 0 C0.76147842 -0.00846954 1.52295685 -0.01693909 2.30751038 -0.02566528 C4.82187661 -0.04904179 7.33563102 -0.05005723 9.85009766 -0.04882812 C11.60120895 -0.05593 13.35231791 -0.06362904 15.10342407 -0.07189941 C18.77360501 -0.08534619 22.44357085 -0.08691244 26.11376953 -0.08105469 C30.81047731 -0.07516234 35.50615004 -0.10572933 40.2026577 -0.14617157 C43.81958549 -0.17206014 47.43626458 -0.17492488 51.05327225 -0.17127991 C52.78439558 -0.17297049 54.51553049 -0.18260714 56.24656296 -0.20042419 C58.67158349 -0.22263515 61.09451604 -0.212903 63.51953125 -0.1953125 C64.23038376 -0.20857574 64.94123627 -0.22183899 65.67362976 -0.23550415 C71.29825939 -0.14100966 73.57590506 1.58245756 77.38916016 5.41992188 C79.66617499 9.38287406 79.62288852 12.95683948 79.58447266 17.47070312 C79.58022781 18.45891304 79.58022781 18.45891304 79.57589722 19.46708679 C79.5647694 21.55572249 79.53967963 23.64391744 79.51416016 25.73242188 C79.50412074 27.15494169 79.49499658 28.57746828 79.48681641 30 C79.46485463 33.47344869 79.43037662 36.9466422 79.38916016 40.41992188 C80.03353027 40.39373779 80.67790039 40.36755371 81.34179688 40.34057617 C84.31566095 40.23541267 87.28913238 40.17122455 90.26416016 40.10742188 C91.78396484 40.04458008 91.78396484 40.04458008 93.33447266 39.98046875 C101.66829299 39.84691394 108.299069 41.65372461 114.53491211 47.39575195 C121.4268055 54.70083966 123.05480344 60.98435726 122.79150391 70.91601562 C121.77295126 79.78632364 117.22238243 85.19085238 110.67041016 90.92382812 C108.38916016 92.41992188 108.38916016 92.41992188 103.38916016 93.41992188 C103.71916016 109.58992188 104.04916016 125.75992188 104.38916016 142.41992188 C107.02916016 143.73992187 109.66916016 145.05992187 112.38916016 146.41992188 C118.1248476 151.34347658 121.97169082 157.09911428 122.70166016 164.65429688 C123.01688471 173.83521188 121.58171448 180.38627323 116.07666016 187.73242188 C112.96586992 190.84321211 110.34457334 192.51546367 106.38916016 194.41992188 C105.39916016 194.41992188 104.40916016 194.41992188 103.38916016 194.41992188 C103.38916016 248.53992188 103.38916016 302.65992188 103.38916016 358.41992188 C105.03916016 358.74992187 106.68916016 359.07992188 108.38916016 359.41992188 C115.7885839 363.65013247 120.04583841 369.23312691 122.38916016 377.41992188 C123.39916104 386.39298236 122.85742767 394.02787832 117.38916016 401.41992188 C112.9729308 406.28956287 109.75605358 408.29762407 103.38916016 410.41992188 C103.38916016 426.58992188 103.38916016 442.75992188 103.38916016 459.41992188 C105.36916016 460.07992188 107.34916016 460.73992187 109.38916016 461.41992188 C115.81307824 465.50892579 120.22374126 471.11908294 122.38916016 478.41992188 C123.64017784 487.35136779 122.86890805 495.08822215 117.38916016 502.41992188 C112.35434924 507.91749115 107.6559856 512.02041558 99.94604146 512.60524058 C96.86863681 512.6843455 93.79710105 512.69597782 90.71867371 512.68734741 C89.53566706 512.69187853 88.35266042 512.69640964 87.1338051 512.70107806 C83.85823803 512.7115373 80.58280926 512.71304977 77.30723083 512.71068931 C73.77132785 512.71028068 70.23545745 512.72132468 66.6995697 512.73080444 C59.77510909 512.74740533 52.85068254 512.75291357 45.92620369 512.7540292 C40.29665134 512.7549801 34.66711021 512.75909247 29.03756142 512.76543045 C13.07071234 512.78304029 -2.89610986 512.79226971 -18.86296872 512.7907695 C-19.72344051 512.79068959 -20.58391229 512.79060968 -21.47045898 512.79052734 C-22.76274571 512.7904047 -22.76274571 512.7904047 -24.08113923 512.79027958 C-38.04242121 512.78946673 -52.00359528 512.80860484 -65.96484605 512.83680408 C-80.30607453 512.86554185 -94.6472504 512.87934388 -108.9885084 512.87761652 C-117.03766639 512.87695294 -125.08671125 512.88243154 -133.13584328 512.90397263 C-139.98916109 512.92219618 -146.84231451 512.92652217 -153.69564608 512.91295378 C-157.19050273 512.90643 -160.68504408 512.90628509 -164.17987061 512.92366028 C-167.97332952 512.93908499 -171.76596149 512.92982136 -175.55940247 512.91439819 C-176.65746918 512.92468532 -177.75553589 512.93497245 -178.88687736 512.9455713 C-186.97558115 512.87294703 -193.22716669 511.35243861 -199.42333984 505.98242188 C-200.14521484 505.13679688 -200.86708984 504.29117187 -201.61083984 503.41992188 C-202.33271484 502.61554688 -203.05458984 501.81117188 -203.79833984 500.98242188 C-208.57802887 494.2249305 -208.44464289 486.38054671 -207.61083984 478.41992188 C-205.48771259 471.12228912 -201.01401904 465.49572491 -194.61083984 461.41992188 C-192.63083984 460.75992187 -190.65083984 460.09992188 -188.61083984 459.41992188 C-188.61083984 443.24992187 -188.61083984 427.07992187 -188.61083984 410.41992188 C-190.59083984 409.75992187 -192.57083984 409.09992188 -194.61083984 408.41992188 C-200.95411001 404.13975414 -205.90145936 399.00459023 -207.61083984 391.41992188 C-208.73617632 381.20897406 -207.46839231 373.3409687 -201.29833984 365.10742188 C-198.18754961 361.99663164 -195.56625303 360.32438008 -191.61083984 358.41992188 C-190.62083984 358.41992188 -189.63083984 358.41992188 -188.61083984 358.41992188 C-188.61083984 304.29992187 -188.61083984 250.17992187 -188.61083984 194.41992188 C-190.26083984 194.08992187 -191.91083984 193.75992188 -193.61083984 193.41992188 C-200.03304582 189.90473716 -204.89719342 184.5940285 -207.21630859 177.59179688 C-208.73463292 169.23349663 -208.54658839 161.04492009 -204.23583984 153.61132812 C-200.16480668 148.12130504 -195.93911071 144.95123022 -189.61083984 142.41992188 C-189.28083984 126.24992187 -188.95083984 110.07992187 -188.61083984 93.41992188 C-190.59083984 92.75992188 -192.57083984 92.09992188 -194.61083984 91.41992188 C-201.03475793 87.33091796 -205.44542095 81.72076081 -207.61083984 74.41992188 C-208.86373052 65.475104 -208.05586574 57.78517429 -202.61083984 50.41992188 C-197.49060063 44.76409278 -191.76091252 40.85176474 -184.0633173 40.05077839 C-182.8013827 40.05354377 -181.53944811 40.05630915 -180.23927307 40.05915833 C-179.53092109 40.05659505 -178.82256911 40.05403178 -178.09275192 40.05139083 C-175.73729723 40.04647944 -173.38249448 40.06290124 -171.02709961 40.0793457 C-169.33150752 40.08019255 -167.63591433 40.07971571 -165.94032288 40.07801819 C-161.34987772 40.07715906 -156.75966875 40.09477144 -152.16927838 40.11574006 C-147.36733533 40.13452063 -142.56538659 40.13625839 -137.76341248 40.13981628 C-128.67585629 40.14913269 -119.58840865 40.17374102 -110.50090021 40.20386475 C-100.1527034 40.23742133 -89.80450135 40.25389794 -79.45626366 40.26895106 C-58.17439519 40.30029091 -36.89262436 40.35304357 -15.61083984 40.41992188 C-15.63178711 39.51226074 -15.65273438 38.60459961 -15.67431641 37.66943359 C-15.74274917 34.28114546 -15.7927628 30.89359837 -15.83056641 27.50488281 C-15.85060317 26.04219936 -15.87784088 24.57959522 -15.91259766 23.1171875 C-15.96147209 21.00696178 -15.98388644 18.89780052 -16.00146484 16.78710938 C-16.02241211 15.5197998 -16.04335938 14.25249023 -16.06494141 12.94677734 C-15.43264958 8.03597746 -13.20920532 5.08533837 -9.83651733 1.57116699 C-6.62026965 -0.09245654 -3.53805281 -0.01450359 0 0 Z M0.38916016 15.41992188 C0.38916016 23.66992188 0.38916016 31.91992188 0.38916016 40.41992188 C21.17916016 40.41992188 41.96916016 40.41992188 63.38916016 40.41992188 C63.38916016 32.16992188 63.38916016 23.91992188 63.38916016 15.41992188 C42.59916016 15.41992188 21.80916016 15.41992188 0.38916016 15.41992188 Z M-190.61083984 61.41992188 C-192.22513908 64.64852034 -192.20654641 67.92985841 -191.61083984 71.41992188 C-189.87481879 74.44500333 -187.77503847 76.83782256 -184.61083984 78.41992188 C-182.91173286 78.52056179 -181.20870823 78.55772372 -179.50663757 78.56468201 C-177.88521347 78.57502975 -177.88521347 78.57502975 -176.23103333 78.58558655 C-175.03983383 78.58819992 -173.84863434 78.59081329 -172.62133789 78.59350586 C-171.3708667 78.60019287 -170.12039551 78.60687988 -168.83203125 78.61376953 C-166.10865143 78.62784845 -163.38532552 78.64017064 -160.66193199 78.64971733 C-156.35472453 78.66515755 -152.04759082 78.68910729 -147.74043274 78.71461487 C-135.4913092 78.78584774 -123.2421432 78.84557514 -110.99291992 78.89672852 C-104.23029426 78.92504496 -97.46774178 78.9604345 -90.70519286 79.00338227 C-86.42477754 79.03013853 -82.144445 79.04805379 -77.86396253 79.05941951 C-74.57209303 79.07070103 -71.28033944 79.09482017 -67.98852539 79.11694336 C-66.80339859 79.1175325 -65.61827179 79.11812164 -64.39723206 79.11872864 C-63.30782318 79.12844696 -62.21841431 79.13816528 -61.09599304 79.1481781 C-59.67986741 79.15452601 -59.67986741 79.15452601 -58.23513317 79.16100216 C-55.34728571 79.44592482 -53.20301885 80.12596124 -50.61083984 81.41992188 C-49.11585072 84.40990013 -49.49506538 87.12034962 -49.61083984 90.41992188 C-49.94083984 91.40992188 -50.27083984 92.39992187 -50.61083984 93.41992188 C-90.87083984 93.74992187 -131.13083984 94.07992187 -172.61083984 94.41992188 C-172.61083984 109.92992188 -172.61083984 125.43992188 -172.61083984 141.41992188 C-86.81083984 141.41992188 -1.01083984 141.41992188 87.38916016 141.41992188 C87.38916016 125.90992187 87.38916016 110.39992187 87.38916016 94.41992188 C82.27806763 94.3980481 82.27806763 94.3980481 77.0637207 94.37573242 C65.8238846 94.32546566 54.58418322 94.25903607 43.34448528 94.18420696 C36.52776827 94.13922098 29.71110383 94.09981292 22.89428711 94.07348633 C16.31952701 94.04807896 9.7449822 94.0071933 3.17035866 93.95673561 C0.65809844 93.94001046 -1.85420221 93.92853151 -4.36651039 93.92230797 C-7.87699666 93.91272835 -11.38687806 93.88474225 -14.8972168 93.85229492 C-15.94306442 93.85373001 -16.98891205 93.8551651 -18.06645203 93.85664368 C-19.02137543 93.84410553 -19.97629883 93.83156738 -20.9601593 93.81864929 C-21.79069478 93.81404033 -22.62123026 93.80943136 -23.47693348 93.80468273 C-26.14079426 93.32436674 -27.02900322 92.59337003 -28.61083984 90.41992188 C-29.26128232 84.34912541 -29.26128232 84.34912541 -27.29833984 81.54492188 C-24.12446118 79.42900276 -21.35506932 79.29517642 -17.65885925 79.29534912 C-16.63687943 79.2927861 -15.6148996 79.29022308 -14.56195068 79.2875824 C-13.44137268 79.28968216 -12.32079468 79.29178192 -11.16625977 79.29394531 C-9.98552383 79.29207718 -8.8047879 79.29020905 -7.58827209 79.2882843 C-5.01989651 79.284276 -2.45151734 79.28220507 0.11686134 79.2818222 C4.18078785 79.28068119 8.24462364 79.26783776 12.30851746 79.2522583 C12.99465317 79.24968545 13.68078889 79.24711259 14.38771659 79.24446177 C15.79076965 79.23919523 17.19382263 79.23390975 18.59687555 79.22860575 C28.05702943 79.19351003 37.51707052 79.1669433 46.97729492 79.16943359 C53.35987272 79.17102341 59.74214105 79.15495863 66.12461966 79.11872697 C69.50076315 79.10028523 72.87639009 79.09090779 76.25257301 79.10320282 C80.02099726 79.11280121 83.78809233 79.09168313 87.55639648 79.06347656 C88.67090179 79.07367325 89.7854071 79.08386993 90.9336853 79.09437561 C97.47350017 79.04782038 97.47350017 79.04782038 103.06620789 76.00469971 C106.24826725 72.46398274 106.7835349 70.32910578 106.74853516 65.52539062 C106.11334202 61.80398735 104.04936999 60.01679338 101.38916016 57.41992188 C98.96641887 56.20855123 97.43227459 56.29025672 94.72449112 56.28290749 C93.73492487 56.27783294 92.74535862 56.2727584 91.72580552 56.26753008 C90.63069461 56.26703233 89.53558369 56.26653457 88.4072876 56.26602173 C87.25008327 56.26163947 86.09287895 56.25725722 84.90060782 56.25274217 C81.67865901 56.24166111 78.45673763 56.23512462 75.23477411 56.23056102 C71.76362275 56.22461083 68.29248936 56.21299954 64.8213501 56.20227051 C56.43351044 56.17773321 48.04566483 56.16311747 39.65780032 56.15021044 C37.28943539 56.1464995 34.92107106 56.14252619 32.55270672 56.13845778 C17.85139868 56.11322241 3.15008973 56.0911652 -11.5512352 56.07872963 C-14.95749668 56.07579984 -18.36375813 56.07283819 -21.77001953 56.06982422 C-22.61664926 56.06907817 -23.46327899 56.06833212 -24.33556417 56.06756346 C-38.05341613 56.05490724 -51.77113856 56.02168142 -65.48892996 55.98002239 C-79.56671761 55.9376199 -93.64443892 55.91403656 -107.72229028 55.90880907 C-115.62893124 55.90539304 -123.53536976 55.89361546 -131.44194794 55.86070633 C-138.17505495 55.83272773 -144.90791805 55.82169674 -151.64107868 55.83290179 C-155.07688294 55.83809419 -158.51217623 55.83516522 -161.94790649 55.81043625 C-165.67271196 55.78786873 -169.39622217 55.7959839 -173.12103271 55.81192017 C-174.75031476 55.79109703 -174.75031476 55.79109703 -176.41251159 55.76985323 C-182.93614512 55.83882089 -186.16691316 56.51610796 -190.61083984 61.41992188 Z M-189.61083984 161.41992188 C-192.08946436 165.13785865 -192.14186531 168.11271534 -191.61083984 172.41992188 C-190.28742498 175.72845903 -189.15406679 177.05655902 -186.20017147 179.03241062 C-181.18469243 180.97122105 -176.63972731 180.83763597 -171.30653381 180.80760193 C-170.16295156 180.81298747 -169.01936931 180.818373 -167.84113306 180.82392174 C-164.00652829 180.83823711 -160.17226698 180.83108852 -156.33764648 180.82397461 C-153.58952437 180.82803258 -150.84141984 180.83653903 -148.0933075 180.84477234 C-141.40211098 180.86196286 -134.71100835 180.86279986 -128.01979548 180.85755944 C-122.58091534 180.85351703 -117.14206294 180.85496212 -111.70318413 180.86030769 C-110.54178341 180.86143033 -110.54178341 180.86143033 -109.35692004 180.86257564 C-107.78396936 180.86410712 -106.21101868 180.86564547 -104.63806801 180.86719061 C-89.88941827 180.88091651 -75.14082158 180.87547728 -60.39217304 180.86400539 C-46.90158997 180.85407249 -33.41114404 180.86701448 -19.92058212 180.89093959 C-6.06526205 180.91532628 7.78999415 180.92493955 21.64533526 180.91828686 C29.42279172 180.91479373 37.2001427 180.91703286 44.97758293 180.93453789 C51.5982068 180.9492545 58.21865091 180.94990248 64.83927124 180.93246698 C68.21648608 180.92394989 71.5931158 180.92398891 74.97035599 180.93711853 C78.63316539 180.95027221 82.29509907 180.93882925 85.95787048 180.92112732 C87.0228534 180.93073233 88.08783631 180.94033733 89.18509144 180.9502334 C95.4666355 180.88768302 99.26087153 180.12614792 104.38916016 176.41992188 C106.81237272 173.46992397 106.80752192 170.14565532 106.70947266 166.38476562 C106.19303599 163.21686754 104.67669613 161.58037252 102.38916016 159.41992188 C99.33488935 157.56183485 97.06350938 157.16853044 93.5096302 157.16265297 C92.02975787 157.15297963 92.02975787 157.15297963 90.51998913 157.14311087 C88.89773413 157.14775668 88.89773413 157.14775668 87.2427063 157.15249634 C86.09196023 157.14796522 84.94121416 157.14343411 83.755597 157.13876569 C80.5609311 157.12828469 77.36640651 157.12679769 74.17172885 157.12915444 C70.72650965 157.12956228 67.28132414 157.11852671 63.83612061 157.10903931 C57.08618416 157.09242124 50.33628264 157.0869294 43.58632745 157.08581455 C38.1001987 157.08486449 32.61408149 157.08075629 27.12795639 157.0744133 C11.5767941 157.05679893 -3.97434058 157.04757477 -19.52551292 157.04907425 C-20.36400772 157.04915416 -21.20250252 157.04923407 -22.06640625 157.04931641 C-22.90592375 157.04939817 -23.74544124 157.04947993 -24.61039867 157.04956417 C-38.21817672 157.05037719 -51.82584412 157.03123588 -65.43359016 157.00303967 C-79.40296696 156.97432232 -93.37228978 156.96049873 -107.34169686 156.96222723 C-115.18566887 156.96289151 -123.02952486 156.95738238 -130.87347031 156.93587112 C-137.55162022 156.91767444 -144.22960154 156.91329947 -150.90776549 156.92688997 C-154.31515301 156.9334273 -157.72221694 156.9335098 -161.12957382 156.91618347 C-164.82348015 156.90081169 -168.51653157 156.90998695 -172.2104187 156.92544556 C-173.28746059 156.91515843 -174.36450248 156.9048713 -175.47418201 156.89427245 C-181.4947717 156.95010537 -185.056734 157.34884619 -189.61083984 161.41992188 Z M-172.61083984 196.41992188 C-172.61083984 249.21992188 -172.61083984 302.01992188 -172.61083984 356.41992188 C-86.81083984 356.41992188 -1.01083984 356.41992188 87.38916016 356.41992188 C87.38916016 303.61992187 87.38916016 250.81992187 87.38916016 196.41992188 C1.58916016 196.41992188 -84.21083984 196.41992188 -172.61083984 196.41992188 Z M-190.48583984 377.60742188 C-191.97407761 381.32801629 -192.33890209 384.46758395 -191.61083984 388.41992188 C-189.43685708 391.99146498 -187.4450558 393.85518302 -183.61083984 395.41992188 C-181.27042686 395.71936586 -181.27042686 395.71936586 -178.73130989 395.67719078 C-177.25143756 395.68686412 -177.25143756 395.68686412 -175.74166882 395.69673288 C-174.11941382 395.69208707 -174.11941382 395.69208707 -172.46438599 395.68734741 C-171.31363992 395.69187853 -170.16289385 395.69640964 -168.97727668 395.70107806 C-165.78261078 395.71155906 -162.5880862 395.71304606 -159.39340854 395.71068931 C-155.94818934 395.71028147 -152.50300383 395.72131704 -149.05780029 395.73080444 C-142.30786385 395.74742251 -135.55796233 395.75291435 -128.80800714 395.7540292 C-123.32187839 395.75497926 -117.83576118 395.75908746 -112.34963608 395.76543045 C-96.79847379 395.78304482 -81.24733911 395.79226898 -65.69616677 395.7907695 C-64.85767197 395.79068959 -64.01917717 395.79060968 -63.15527344 395.79052734 C-62.31575594 395.79044558 -61.47623844 395.79036382 -60.61128102 395.79027958 C-47.00350297 395.78946656 -33.39583557 395.80860787 -19.78808953 395.83680408 C-5.81871272 395.86552143 8.15061009 395.87934502 22.12001717 395.87761652 C29.96398918 395.87695224 37.80784518 395.88246137 45.65179062 395.90397263 C52.32994054 395.92216931 59.00792185 395.92654428 65.68608581 395.91295378 C69.09347333 395.90641645 72.50053725 395.90633395 75.90789413 395.92366028 C79.60180046 395.93903206 83.29485189 395.9298568 86.98873901 395.91439819 C88.06578091 395.92468532 89.1428228 395.93497245 90.25250232 395.9455713 C96.27309201 395.88973838 99.83505431 395.49099756 104.38916016 391.41992188 C106.86778467 387.7019851 106.92018562 384.72712841 106.38916016 380.41992188 C105.06584486 377.11163363 103.93216675 375.78329547 100.97891235 373.80701256 C95.96062633 371.86793225 91.41388023 372.00553346 86.078125 372.03897095 C84.93383718 372.03429098 83.78954937 372.029611 82.61058617 372.02478921 C78.77363901 372.01281669 74.93704751 372.02230563 71.10009766 372.03173828 C68.35035464 372.02932402 65.60062676 372.02244087 62.85089111 372.01580811 C56.15601311 372.00247124 49.46123603 372.00534828 42.76635408 372.01404603 C37.32508294 372.02082236 31.88384007 372.02173952 26.44256592 372.01847458 C25.66801005 372.01801488 24.89345418 372.01755518 24.09542692 372.01708155 C22.5219105 372.01612237 20.94839409 372.01514973 19.37487769 372.01416378 C4.62148571 372.00561002 -10.13185035 372.01544378 -24.88523316 372.03156488 C-37.54314569 372.04496805 -50.20097568 372.04263995 -62.85888672 372.02880859 C-77.55963945 372.01275252 -92.26034317 372.00643399 -106.96110344 372.01564538 C-108.52881749 372.01660103 -110.09653154 372.01754414 -111.66424561 372.01847458 C-112.43558228 372.01893741 -113.20691896 372.01940023 -114.00162947 372.01987708 C-119.43609585 372.02246689 -124.87053112 372.01809617 -130.30499268 372.01103592 C-136.92818551 372.00262042 -143.55127168 372.00490207 -150.1744523 372.02087815 C-153.55348307 372.02876035 -156.93218883 372.03023766 -160.31124115 372.02193069 C-163.97427403 372.01375475 -167.636804 372.0239898 -171.29980469 372.03897095 C-172.36770044 372.03227878 -173.4355962 372.02558662 -174.53585243 372.01869166 C-180.96303249 372.06981157 -186.0445562 372.42592429 -190.48583984 377.60742188 Z M-172.61083984 411.41992188 C-172.61083984 426.92992187 -172.61083984 442.43992187 -172.61083984 458.41992188 C-168.99139404 458.43450439 -165.37194824 458.44908691 -161.64282227 458.46411133 C-149.70449183 458.5143745 -137.76630326 458.58080331 -125.82810497 458.65563679 C-118.58764792 458.70062592 -111.3472404 458.74003327 -104.10668945 458.76635742 C-97.79671953 458.7893124 -91.48690594 458.82268211 -85.17705995 458.86862344 C-81.83519651 458.89258975 -78.49348822 458.91129603 -75.15154076 458.91753578 C-71.42313783 458.92711312 -67.69530496 458.95509666 -63.96704102 458.98754883 C-62.85573822 458.98611374 -61.74443542 458.98467865 -60.59945679 458.98320007 C-59.58563431 458.99573822 -58.57181183 459.00827637 -57.52726746 459.02119446 C-56.20403363 459.02810791 -56.20403363 459.02810791 -54.8540678 459.03516102 C-52.11432754 459.5050842 -51.22102014 460.17731464 -49.61083984 462.41992188 C-48.95644891 468.5275706 -48.95644891 468.5275706 -50.98583984 471.29492188 C-54.06670309 473.4278272 -56.02801184 473.54465739 -59.74627686 473.54449463 C-60.83419525 473.54705765 -61.92211365 473.54962067 -63.04299927 473.55226135 C-64.24197845 473.55016159 -65.44095764 473.54806183 -66.67626953 473.54589844 C-68.6083161 473.54876612 -70.54036268 473.5516417 -72.47240877 473.55481386 C-74.55306748 473.55749725 -76.63371803 473.55793887 -78.71437836 473.55802155 C-83.05126242 473.55916101 -87.38806117 473.57199349 -91.72491455 473.58758545 C-92.45665665 473.5901583 -93.18839876 473.59273116 -93.94231486 473.59538198 C-95.43884538 473.60064874 -96.93537584 473.60593422 -98.43190622 473.611238 C-108.52997526 473.64635122 -118.62793908 473.67290129 -128.72607422 473.67041016 C-135.53529898 473.66882066 -142.3442336 473.6848795 -149.15336537 473.72111678 C-152.7564327 473.73956674 -156.35901572 473.74892881 -159.96212006 473.73664093 C-163.98442448 473.72305703 -168.00560353 473.74815433 -172.02783203 473.77636719 C-173.21871429 473.7661705 -174.40959656 473.75597382 -175.63656616 473.74546814 C-182.46768006 473.73985712 -182.46768006 473.73985712 -188.33477783 476.83514404 C-191.45712033 480.38098841 -192.02405611 482.54255375 -191.95458984 487.31835938 C-191.34275332 491.0589054 -189.333698 492.93383399 -186.61083984 495.41992188 C-181.04397666 497.99356246 -175.46427955 497.70220171 -169.45838928 497.68061829 C-167.76751722 497.68635661 -167.76751722 497.68635661 -166.04248613 497.69221085 C-162.26322139 497.70253411 -158.48410876 497.69854992 -154.70483398 497.69458008 C-151.99612488 497.69783339 -149.28742426 497.70404544 -146.57872009 497.71006775 C-139.98379313 497.72281186 -133.3889069 497.72460882 -126.7939697 497.72226749 C-121.43327924 497.72048393 -116.07260114 497.72223476 -110.71191216 497.72649193 C-109.94874645 497.72708712 -109.18558075 497.72768231 -108.39928881 497.72829553 C-106.84888614 497.72950729 -105.29848346 497.73072142 -103.74808078 497.73193791 C-89.21118232 497.74281223 -74.67430706 497.7406514 -60.1374073 497.73455306 C-46.84084354 497.72938335 -33.54435303 497.74064097 -20.24780376 497.75965128 C-6.5913732 497.77902631 7.06502269 497.78728631 20.72146708 497.78352803 C28.38712478 497.78161556 36.05272013 497.78410807 43.71836662 497.79824257 C50.24380823 497.81015303 56.76914909 497.81156501 63.29459208 497.7994524 C66.62312172 497.7935614 69.95131597 497.79409599 73.27985764 497.8044548 C76.88998532 497.8148806 80.49961633 497.80685447 84.10972595 497.79414368 C85.68385463 497.8052051 85.68385463 497.8052051 87.2897839 497.81648999 C94.29771156 497.76451376 99.43204063 497.07374709 104.82666016 492.23242188 C106.85447658 488.58235232 107.32574353 485.44959154 106.38916016 481.41992188 C104.62767581 478.40394867 102.56175138 476.00621749 99.38916016 474.41992188 C97.7638227 474.31959175 96.13442816 474.28213659 94.50601196 474.27516174 C93.47410233 474.26826324 92.44219269 474.26136475 91.37901306 474.2542572 C90.24234695 474.25164383 89.10568085 474.24903046 87.93457031 474.24633789 C86.74101425 474.23965088 85.54745819 474.23296387 84.31773376 474.22607422 C81.03876695 474.20831355 77.75981085 474.19478115 74.48082018 474.18246198 C71.05134358 474.16803655 67.62191411 474.14651674 64.19247437 474.12522888 C52.50580731 474.05399196 40.81909595 473.99424327 29.13232422 473.94311523 C22.67990596 473.91481145 16.22756459 473.87942987 9.77522695 473.83646148 C6.36016432 473.81407791 2.94517293 473.79556416 -0.46995163 473.78601265 C-4.27923179 473.77389205 -8.0882603 473.74975542 -11.89746094 473.72290039 C-13.03007858 473.72231125 -14.16269623 473.72172211 -15.32963562 473.72111511 C-16.36718491 473.71139679 -17.40473419 473.70167847 -18.47372437 473.69166565 C-19.37448385 473.68743371 -20.27524334 473.68320177 -21.20329857 473.67884159 C-23.79810273 473.39978263 -25.41637429 472.81618965 -27.61083984 471.41992188 C-29.13575982 468.37008192 -28.84646532 465.77758498 -28.61083984 462.41992188 C-27.03664139 460.23815383 -26.1417151 459.51564305 -23.47693348 459.03516102 C-22.646398 459.03055205 -21.81586252 459.02594309 -20.9601593 459.02119446 C-20.0052359 459.00865631 -19.0503125 458.99611816 -18.06645203 458.98320007 C-17.0206044 458.98463516 -15.97475677 458.98607025 -14.8972168 458.98754883 C-13.24332947 458.97226135 -13.24332947 458.97226135 -11.55603027 458.95666504 C-7.90367631 458.92641843 -4.2515841 458.91725108 -0.59912109 458.90820312 C1.93008809 458.89136513 4.45928886 458.8732161 6.98847961 458.85380554 C12.97012976 458.81107201 18.95170405 458.78158371 24.93345052 458.75848216 C31.74362866 458.73144431 38.55366516 458.68753202 45.36374223 458.64219344 C59.3721544 458.54930992 73.38057034 458.47987399 87.38916016 458.41992188 C87.38916016 442.90992188 87.38916016 427.39992188 87.38916016 411.41992188 C1.58916016 411.41992188 -84.21083984 411.41992188 -172.61083984 411.41992188 Z " fill="#3e4097" transform="translate(298.61083984375,-0.419921875)"/>
<path d="M0 0 C3.87720895 2.74171789 6.3779978 5.62281579 9.00390625 9.55859375 C9.36413879 10.09544296 9.72437134 10.63229218 10.09552002 11.18540955 C11.26086036 12.92989868 12.41266133 14.68276085 13.5625 16.4375 C13.9585141 17.03725647 14.3545282 17.63701294 14.76254272 18.25494385 C45.64099989 65.06020056 45.64099989 65.06020056 40.31640625 91.37890625 C35.93156507 104.16954255 27.69682359 113.01322751 15.6875 118.95703125 C9.12745552 121.50286246 3.10032513 122.36405838 -3.875 122.3125 C-5.06017212 122.30512817 -5.06017212 122.30512817 -6.26928711 122.29760742 C-18.94312479 122.04358354 -29.52783613 117.07445913 -38.8515625 108.51953125 C-48.7259893 96.93952164 -50.08196446 83.59256944 -49 69 C-48.2104717 64.68022412 -46.82973521 60.9826715 -45 57 C-44.47535156 55.82953125 -43.95070312 54.6590625 -43.41015625 53.453125 C-36.32298968 38.26190378 -27.00935954 24.09694861 -17.4375 10.375 C-16.94926758 9.67060791 -16.46103516 8.96621582 -15.95800781 8.24047852 C-11.73861061 2.30961961 -7.93467776 -1.8765439 0 0 Z M-5 21 C-6.37160021 22.64220266 -6.37160021 22.64220266 -7.72265625 24.8125 C-8.25697266 25.63306885 -8.79128906 26.4536377 -9.34179688 27.29907227 C-9.90962891 28.19037842 -10.47746094 29.08168457 -11.0625 30 C-11.64451172 30.90613037 -12.22652344 31.81226074 -12.82617188 32.74584961 C-29.77834174 58.04402744 -29.77834174 58.04402744 -32.57421875 87.34765625 C-30.31304072 94.32540195 -25.29946997 100.08509201 -18.8125 103.4375 C-10.45532395 107.23312171 -0.16348257 107.55908111 8.4375 104.375 C15.8483934 100.90684792 20.46770544 96.33630409 24 89 C27.30412839 78.48483464 24.55179936 68.59689718 20 59 C19.21496094 57.34484375 19.21496094 57.34484375 18.4140625 55.65625 C14.1782964 47.29569857 9.20586903 39.43296038 4.125 31.5625 C3.45807129 30.52432129 2.79114258 29.48614258 2.10400391 28.41650391 C1.47413574 27.45534668 0.84426758 26.49418945 0.1953125 25.50390625 C-0.37171387 24.63580322 -0.93874023 23.7677002 -1.52294922 22.87329102 C-2.25408936 21.94601196 -2.25408936 21.94601196 -3 21 C-3.66 21 -4.32 21 -5 21 Z " fill="#3e4097" transform="translate(260,215)"/>
</svg>
