<?xml version="1.0" standalone="no"?>
<!DOCTYPE svg PUBLIC "-//W3C//DTD SVG 20010904//EN"
 "http://www.w3.org/TR/2001/REC-SVG-20010904/DTD/svg10.dtd">
<svg version="1.0" xmlns="http://www.w3.org/2000/svg"
 width="512.000000pt" height="512.000000pt" viewBox="0 0 512.000000 512.000000"
 preserveAspectRatio="xMidYMid meet">

<g transform="translate(0.000000,512.000000) scale(0.100000,-0.100000)"
fill="#3e4097" stroke="none">
<path d="M4499 4947 c-25 -7 -65 -25 -90 -39 -24 -15 -354 -338 -745 -730
l-701 -703 -43 -263 c-35 -212 -41 -267 -32 -287 23 -51 39 -51 324 -5 l263
42 707 707 c671 670 709 710 740 776 29 62 33 80 32 150 -1 147 -72 263 -198
325 -75 37 -182 48 -257 27z m187 -172 c85 -42 129 -135 105 -224 -23 -85 -21
-85 -173 66 -76 76 -138 141 -138 144 0 13 75 38 116 38 23 1 60 -9 90 -24z
m-281 -175 l40 -40 -583 -583 -582 -582 -42 43 -43 42 580 580 c319 319 582
580 585 580 3 0 24 -18 45 -40z m200 -200 l40 -40 -583 -583 -582 -582 -42 43
-43 42 580 580 c319 319 582 580 585 580 3 0 24 -18 45 -40z m-1401 -1318
c-75 -12 -138 -21 -141 -19 -2 2 7 66 19 141 l22 136 118 -117 118 -118 -136
-23z"/>
<path d="M630 4314 c-108 -21 -231 -85 -305 -159 -51 -52 -109 -143 -137 -218
l-23 -62 -3 -1595 c-2 -1121 0 -1614 8 -1660 15 -89 77 -213 139 -278 62 -64
151 -123 234 -154 l62 -23 2074 -3 c2342 -3 2135 -10 2214 78 24 26 49 66 55
88 18 58 17 3287 0 3346 -16 55 -99 138 -154 154 -23 7 -91 12 -152 12 -134 0
-157 -12 -157 -80 0 -68 24 -80 157 -80 102 0 110 -1 133 -25 l25 -24 0 -1631
0 -1631 -25 -25 -24 -24 -2063 2 -2063 3 -67 32 c-93 44 -151 100 -196 191
-35 72 -37 81 -37 172 0 91 2 100 38 172 61 124 160 198 295 221 223 39 438
-129 459 -358 5 -53 12 -74 29 -92 31 -31 78 -30 110 2 l24 24 -2 1593 -3
1593 -23 62 c-85 226 -277 369 -507 378 -49 2 -101 1 -115 -1z m254 -192 c91
-42 149 -100 194 -190 l37 -76 3 -1100 c1 -606 1 -1222 0 -1370 l-3 -269 -45
38 c-66 56 -176 104 -270 117 -151 22 -318 -23 -427 -116 -22 -20 -44 -36 -47
-36 -4 0 -5 615 -4 1367 l3 1368 32 67 c40 85 97 147 172 186 78 42 122 52
213 48 61 -3 92 -11 142 -34z"/>
<path d="M1473 3825 c-42 -30 -34 -121 12 -139 22 -8 1488 -8 1510 0 46 18 54
109 12 139 -32 23 -1502 23 -1534 0z"/>
<path d="M1625 3175 l-25 -24 0 -1231 0 -1231 25 -24 24 -25 1391 0 1391 0 24
25 25 24 0 1151 0 1151 -25 24 -24 25 -351 0 -351 0 -24 -25 c-16 -15 -25 -36
-25 -55 0 -19 9 -40 25 -55 l24 -25 296 0 295 0 0 -400 0 -400 -520 0 -520 0
0 215 c0 216 0 216 -25 240 -32 33 -78 33 -110 0 l-25 -24 0 -271 0 -271 25
-24 24 -25 576 0 575 0 0 -560 0 -560 -520 0 -520 0 0 375 0 376 -25 24 c-32
33 -78 33 -110 0 l-25 -24 0 -376 0 -375 -680 0 -680 0 0 560 0 560 440 0 440
0 0 -295 0 -296 25 -24 c32 -33 78 -33 110 0 l25 24 0 351 0 351 -25 24 c-22
23 -32 25 -120 25 l-95 0 0 295 0 296 -25 24 c-15 16 -36 25 -55 25 -19 0 -40
-9 -55 -25 l-25 -24 0 -296 0 -295 -320 0 -320 0 0 480 0 480 455 0 456 0 24
25 c16 15 25 36 25 55 0 19 -9 40 -25 55 l-24 25 -511 0 -511 0 -24 -25z"/>
</g>
</svg>
