<?xml version="1.0" encoding="UTF-8"?>
<svg version="1.1" xmlns="http://www.w3.org/2000/svg" width="512" height="512">
<path d="M0 0 C19.41513413 15.83036047 34.05409201 37.67987498 37 63 C39.00657074 91.37618281 34.15218075 116.91231191 15.43359375 139.08984375 C0.5027346 156.21206797 -17.78717192 167.09957036 -39.91796875 172.140625 C-40.69861694 172.32125488 -41.47926514 172.50188477 -42.28356934 172.68798828 C-44.18836447 173.12828536 -46.09408832 173.56456149 -48 174 C-47.6053656 175.83327347 -47.6053656 175.83327347 -47.20275879 177.70358276 C-44.68558639 189.42477871 -42.21502928 201.15503891 -39.78582001 212.89478874 C-38.53658737 218.92502293 -37.27310837 224.95139401 -35.97216797 230.97070312 C-30.79078378 254.99309785 -26.00074854 278.52858275 -26.09375 303.1953125 C-26.09432907 304.08960842 -26.09490814 304.98390434 -26.09550476 305.90530014 C-26.11183169 308.39216308 -26.16482774 310.87415193 -26.24023438 313.35986328 C-26.25300415 314.08272648 -26.26577393 314.80558968 -26.27893066 315.55035782 C-26.43438505 318.67187403 -26.74007731 320.64940168 -28.6196022 323.18461037 C-31.7946368 325.60602283 -33.73497474 325.49316521 -37.70709229 325.48101807 C-38.38021257 325.48443577 -39.05333286 325.48785347 -39.74685073 325.49137473 C-42.00126411 325.49796092 -44.25448549 325.4759674 -46.50878906 325.45410156 C-48.12512178 325.45297323 -49.74145656 325.45360666 -51.35778809 325.45587158 C-55.74602036 325.45702024 -60.13381616 325.43348655 -64.52194691 325.40557575 C-69.10768744 325.3805873 -73.69343773 325.37822212 -78.27923584 325.37347412 C-86.96319442 325.36103682 -95.64695181 325.32820501 -104.33082175 325.28807616 C-114.21703416 325.24338192 -124.10325612 325.22137732 -133.98954439 325.20129442 C-154.3265002 325.15947299 -174.66318017 325.08611122 -195 325 C-195 343.48 -195 361.96 -195 381 C-185.15774838 380.84243268 -185.15774838 380.84243268 -175.31640625 380.63964844 C-166.61663943 380.56948903 -160.58247223 380.98434925 -153.7578125 386.96484375 C-153.21898437 387.61582031 -152.68015625 388.26679688 -152.125 388.9375 C-151.57070313 389.58589844 -151.01640625 390.23429687 -150.4453125 390.90234375 C-146.01908298 397.32635795 -146.63289193 404.04544096 -146.625 411.5625 C-146.60050781 412.79419922 -146.57601563 414.02589844 -146.55078125 415.29492188 C-146.54691406 416.47763672 -146.54304688 417.66035156 -146.5390625 418.87890625 C-146.53084473 419.9572876 -146.52262695 421.03566895 -146.51416016 422.14672852 C-147.12910413 425.75821105 -148.16370288 426.73481328 -151 429 C-153.60498047 429.50336456 -153.60498047 429.50336456 -156.6171875 429.50793457 C-157.76123047 429.51921387 -158.90527344 429.53049316 -160.08398438 429.54211426 C-161.33501953 429.53401733 -162.58605469 429.52592041 -163.875 429.51757812 C-165.20899215 429.52299968 -166.5429783 429.53012254 -167.87695312 429.53881836 C-171.49685348 429.55705113 -175.11629774 429.54998474 -178.73620605 429.53730202 C-182.5246707 429.52717395 -186.31309632 429.53656715 -190.1015625 429.54284668 C-196.46361298 429.55012368 -202.82547772 429.54053413 -209.1875 429.52148438 C-216.54260137 429.49971536 -223.89725923 429.50676671 -231.25234985 429.52879 C-237.56755367 429.54694262 -243.88262398 429.54950305 -250.19784546 429.53903532 C-253.96953603 429.53279956 -257.74101814 429.53196682 -261.51269531 429.54518127 C-265.05872353 429.55673735 -268.60418003 429.54871944 -272.15014648 429.52560425 C-274.07209487 429.51779314 -275.99409162 429.52967522 -277.91601562 429.54211426 C-279.06005859 429.53083496 -280.20410156 429.51955566 -281.3828125 429.50793457 C-282.37684082 429.50642647 -283.37086914 429.50491837 -284.39501953 429.50336456 C-287.7346156 428.85804905 -288.92521017 427.64533632 -291 425 C-291.51757812 422.19433594 -291.51757812 422.19433594 -291.53125 418.984375 C-291.53898437 417.23060547 -291.53898437 417.23060547 -291.546875 415.44140625 C-291.53140625 414.22324219 -291.5159375 413.00507813 -291.5 411.75 C-291.52320313 409.94595703 -291.52320313 409.94595703 -291.546875 408.10546875 C-291.51045162 399.81004293 -290.55533997 394.05718716 -285.03515625 387.7578125 C-284.05869141 386.94957031 -284.05869141 386.94957031 -283.0625 386.125 C-282.41410156 385.57070313 -281.76570312 385.01640625 -281.09765625 384.4453125 C-276.38359874 381.19726543 -272.40333749 380.75799722 -266.73046875 380.8046875 C-265.48418701 380.80968262 -264.23790527 380.81467773 -262.95385742 380.81982422 C-261.38095947 380.83803223 -259.80806152 380.85624023 -258.1875 380.875 C-253.175625 380.91625 -248.16375 380.9575 -243 381 C-243 362.52 -243 344.04 -243 325 C-250.42064941 325.0314209 -250.42064941 325.0314209 -257.99121094 325.06347656 C-274.30796775 325.12965614 -290.62472974 325.1741028 -306.94158554 325.20724869 C-316.83775415 325.22788542 -326.73379573 325.25602721 -336.62988281 325.30175781 C-345.25400318 325.3415916 -353.87803157 325.36742473 -362.50224137 325.37635398 C-367.06992619 325.3815746 -371.63734784 325.39386791 -376.20494843 325.42292023 C-380.50264133 325.45003478 -384.79996223 325.45845308 -389.09773254 325.45243073 C-390.67637909 325.45353275 -392.25503786 325.46151038 -393.83361053 325.4768219 C-395.98716876 325.49668898 -398.13931771 325.4919527 -400.29290771 325.48101807 C-401.49861294 325.48470524 -402.70431816 325.48839241 -403.94655991 325.49219131 C-407.62279153 324.89961074 -408.79036084 323.9473305 -411 321 C-412.18091804 315.57429351 -412.09663656 309.95452567 -412.140625 304.4140625 C-412.14869423 303.52649891 -412.15676346 302.63893532 -412.16507721 301.72447586 C-412.16268474 271.38907827 -404.51373435 241.38434047 -398.31008959 211.84680581 C-396.72845832 204.3042925 -395.19777852 196.75185453 -393.67191696 189.19789696 C-392.19989955 181.91150694 -390.70786764 174.62923966 -389.21144199 167.34782839 C-388.73723618 165.0373779 -388.26534066 162.72646358 -387.79360199 160.41550827 C-387.05324654 156.79613191 -386.3004357 153.17955136 -385.53807259 149.56474876 C-385.13074589 147.6215855 -384.7342004 145.67617188 -384.33805847 143.73069763 C-382.59379162 135.54900152 -380.79071549 127.69409717 -374.0625 122.125 C-373.41410156 121.57070312 -372.76570313 121.01640625 -372.09765625 120.4453125 C-366.89865729 116.86313445 -362.269498 116.70728323 -356.16056824 116.7215271 C-355.27016525 116.7157347 -354.37976226 116.7099423 -353.46237737 116.70397437 C-350.47903193 116.68697014 -347.49584116 116.68409748 -344.51245117 116.68115234 C-342.37380595 116.67185447 -340.23516437 116.66168601 -338.0965271 116.65071106 C-332.28916487 116.62338121 -326.48182693 116.60825275 -320.67441726 116.59528303 C-314.60585854 116.5796656 -308.53734954 116.55287095 -302.46882629 116.5272522 C-290.9765301 116.48043986 -279.48422457 116.4437076 -267.99188167 116.41057932 C-254.90854981 116.37237531 -241.82526786 116.32296063 -228.74197805 116.27259517 C-201.82802234 116.16923879 -174.91403458 116.07999041 -148 116 C-148.34598236 114.97623764 -148.69196472 113.95247528 -149.0484314 112.89768982 C-149.50553084 111.5378648 -149.96252606 110.17800475 -150.41943359 108.81811523 C-150.76094704 107.80894169 -150.76094704 107.80894169 -151.10935974 106.7793808 C-159.12691306 82.8693868 -156.67499873 56.3282422 -145.9140625 33.72265625 C-133.57691653 9.07999801 -112.04956558 -7.46288735 -86.3203125 -16.2578125 C-57.00626596 -25.03278958 -24.09938499 -18.42691919 0 0 Z " fill="#000000" transform="translate(419,75)"/>
<path d="M0 0 C1.36089276 1.13783667 2.71565895 2.28306482 4.0625 3.4375 C4.65160156 3.88351563 5.24070312 4.32953125 5.84765625 4.7890625 C19.31061185 15.2772876 28.78027821 33.99045219 31.60546875 50.63671875 C34.25966723 72.70966854 30.10254578 94.59833965 16.375 112.5 C15.27979955 113.819991 14.17551566 115.13249562 13.0625 116.4375 C12.43730469 117.25347656 11.81210937 118.06945312 11.16796875 118.91015625 C0.83732511 131.31076188 -16.74404886 141.51151833 -32.9375 143.4375 C-35.93864975 143.49661064 -38.93622302 143.48115494 -41.9375 143.4375 C-42.06801758 142.77741943 -42.19853516 142.11733887 -42.33300781 141.43725586 C-42.93839136 138.41378381 -43.56276941 135.39453119 -44.1875 132.375 C-44.39246094 131.33666016 -44.59742188 130.29832031 -44.80859375 129.22851562 C-46.69461365 120.22705703 -49.07463138 113.88102443 -56.9375 108.4375 C-63.71556155 105.27097649 -69.67475425 104.96902987 -77.09375 104.92578125 C-78.23662476 104.90783005 -79.37949951 104.88987885 -80.55700684 104.87138367 C-84.1838011 104.81748553 -87.81046528 104.78344996 -91.4375 104.75 C-93.90626802 104.71680893 -96.37501892 104.68231763 -98.84375 104.64648438 C-104.87488331 104.56177077 -110.90603388 104.49333448 -116.9375 104.4375 C-118.05905609 102.25405514 -119.17384462 100.06755928 -120.28515625 97.87890625 C-120.59859985 97.2703479 -120.91204346 96.66178955 -121.23498535 96.03479004 C-129.80053077 79.0997712 -130.78290321 58.47119076 -124.9375 40.4375 C-121.35176825 30.38044764 -116.72060066 21.74505009 -109.9375 13.4375 C-109.44636719 12.79554687 -108.95523437 12.15359375 -108.44921875 11.4921875 C-97.28301911 -2.53633374 -79.09041005 -11.9877335 -61.609375 -15.16796875 C-39.40392344 -17.55387365 -18.07940748 -13.78783096 0 0 Z " fill="#FEC051" transform="translate(407.9375,87.5625)"/>
<path d="M0 0 C10.89171242 7.22858044 19.04402292 16.41260766 22.69873047 29.16381836 C23.92036992 35.77483963 23.78046685 42.48787846 23.74682617 49.19189453 C23.73823065 51.8123013 23.76729189 54.43058423 23.79882812 57.05078125 C23.80043839 58.72395769 23.79986595 60.39713796 23.796875 62.0703125 C23.80810898 62.84950043 23.81934296 63.62868835 23.83091736 64.43148804 C23.7877564 67.78191833 23.68388555 69.91919564 21.62049866 72.6266098 C18.74793465 74.84973154 17.28706999 74.92434251 13.68359375 74.92980957 C12.53955078 74.94108887 11.39550781 74.95236816 10.21679688 74.96398926 C8.96576172 74.95589233 7.71472656 74.94779541 6.42578125 74.93945312 C5.0917891 74.94487468 3.75780295 74.95199754 2.42382812 74.96069336 C-1.19607223 74.97892613 -4.81551649 74.97185974 -8.4354248 74.95917702 C-12.22388945 74.94904895 -16.01231507 74.95844215 -19.80078125 74.96472168 C-26.16283173 74.97199868 -32.52469647 74.96240913 -38.88671875 74.94335938 C-46.24182012 74.92159036 -53.59647798 74.92864171 -60.9515686 74.950665 C-67.26677242 74.96881762 -73.58184273 74.97137805 -79.89706421 74.96091032 C-83.66875478 74.95467456 -87.44023689 74.95384182 -91.21191406 74.96705627 C-94.75794228 74.97861235 -98.30339878 74.97059444 -101.84936523 74.94747925 C-103.77131362 74.93966814 -105.69331037 74.95155022 -107.61523438 74.96398926 C-109.33129883 74.94707031 -109.33129883 74.94707031 -111.08203125 74.92980957 C-112.07605957 74.92830147 -113.07008789 74.92679337 -114.09423828 74.92523956 C-117.43479323 74.27973876 -118.62460848 73.06887559 -120.69921875 70.421875 C-122.44576374 61.05988019 -120.13145989 51.97036844 -115.19140625 43.984375 C-108.84485703 35.24680026 -100.46036177 28.50589918 -89.69921875 26.421875 C-83.70056867 25.99842555 -77.70224188 26.18413151 -71.69921875 26.421875 C-71.32152344 25.61105469 -70.94382813 24.80023438 -70.5546875 23.96484375 C-63.45153949 9.67537269 -53.67831954 0.57788956 -38.4453125 -4.70703125 C-25.67742356 -7.67599812 -11.36726063 -6.64598161 0 0 Z " fill="#000000" transform="translate(128.69921875,85.578125)"/>
<path d="M0 0 C116.16 0 232.32 0 352 0 C352 5.28 352 10.56 352 16 C235.84 16 119.68 16 0 16 C0 10.72 0 5.44 0 0 Z " fill="#68696B" transform="translate(24,368)"/>
<path d="M0 0 C6.3141965 4.9777143 9.36482328 11.09446985 11.87109375 18.61328125 C11.87109375 26.20328125 11.87109375 33.79328125 11.87109375 41.61328125 C-24.42890625 41.61328125 -60.72890625 41.61328125 -98.12890625 41.61328125 C-96.65792649 35.72936221 -93.08643731 31.81309774 -88.23828125 28.20703125 C-81.607624 24.43348647 -74.65458908 24.71301041 -67.44140625 26.67578125 C-62.6587628 28.44586993 -59.1724903 31.55190704 -56.12890625 35.61328125 C-56.12890625 36.27328125 -56.12890625 36.93328125 -56.12890625 37.61328125 C-55.21367188 37.18015625 -54.2984375 36.74703125 -53.35546875 36.30078125 C-52.16695312 35.74390625 -50.9784375 35.18703125 -49.75390625 34.61328125 C-48.57054687 34.05640625 -47.3871875 33.49953125 -46.16796875 32.92578125 C-43.12890625 31.61328125 -43.12890625 31.61328125 -41.12890625 31.61328125 C-44.85110445 25.61262657 -44.85110445 25.61262657 -49.56640625 20.42578125 C-51.12890625 18.61328125 -51.12890625 18.61328125 -51.25390625 15.92578125 C-48.0732392 6.56048382 -41.66380068 0.39168729 -33.23046875 -4.484375 C-22.10987769 -9.52852495 -9.80206097 -6.38482871 0 0 Z " fill="#D3D4D6" transform="translate(124.12890625,102.38671875)"/>
<path d="M0 0 C21.78 0 43.56 0 66 0 C66 13.2 66 26.4 66 40 C42.57 40 19.14 40 -5 40 C-4.04264653 26.59705145 -2.04320702 13.28084563 0 0 Z " fill="#65C1EC" transform="translate(126,264)"/>
<path d="M0 0 C21.78 0 43.56 0 66 0 C67.32 9.57 68.64 19.14 70 29 C70.495 30.98 70.495 30.98 71 33 C71 35.31 71 37.62 71 40 C47.57 40 24.14 40 0 40 C0 26.8 0 13.6 0 0 Z " fill="#65C1EC" transform="translate(208,264)"/>
<path d="M0 0 C22.11 0 44.22 0 67 0 C74 32.66666667 74 32.66666667 74 40 C51.23 40 28.46 40 5 40 C4.34 34.39 3.68 28.78 3 23 C2.25352087 18.10795675 2.25352087 18.10795675 1.46484375 13.22265625 C0.83175051 8.83356444 0.44125085 4.41250854 0 0 Z " fill="#00A3EE" transform="translate(290,264)"/>
<path d="M0 0 C22.11 0 44.22 0 67 0 C65.25618459 13.3692515 63.34306058 26.72265671 61 40 C38.56 40 16.12 40 -7 40 C-7 34.75048279 -6.74568397 30.87459933 -5.72265625 25.859375 C-5.59185165 25.21051331 -5.46104706 24.56165161 -5.32627869 23.89312744 C-5.05116069 22.53455391 -4.77284795 21.17662368 -4.49145508 19.81933594 C-4.06102269 17.74287326 -3.64002349 15.66466986 -3.22070312 13.5859375 C-1.17305575 3.51916724 -1.17305575 3.51916724 0 0 Z " fill="#00A3EE" transform="translate(43,264)"/>
<path d="M0 0 C1.33805518 0.00933338 2.67612752 0.01644702 4.01420593 0.0214386 C7.52454361 0.04046806 11.03383573 0.08953072 14.54376221 0.1449585 C18.1299424 0.19624042 21.71629267 0.21897151 25.30273438 0.24414062 C32.33115685 0.29765576 39.35888751 0.38291754 46.38671875 0.48828125 C45.89341231 14.05420838 43.46822406 26.95849673 41.38671875 40.48828125 C19.60671875 40.48828125 -2.17328125 40.48828125 -24.61328125 40.48828125 C-23.88109051 32.43418308 -22.94716876 24.97369194 -21.36328125 17.11328125 C-21.17121094 16.06011719 -20.97914062 15.00695312 -20.78125 13.921875 C-20.57628906 12.90480469 -20.37132812 11.88773438 -20.16015625 10.83984375 C-19.98323242 9.93057129 -19.80630859 9.02129883 -19.62402344 8.08447266 C-15.96893366 -1.30398741 -8.76231266 -0.17575036 0 0 Z " fill="#65C0EB" transform="translate(71.61328125,207.51171875)"/>
<path d="M0 0 C7.62353043 -0.04636314 15.24704622 -0.08188943 22.87068558 -0.10362434 C26.41074864 -0.11405661 29.95071516 -0.12820554 33.49072266 -0.15087891 C37.56153281 -0.17678851 41.63224172 -0.18647738 45.703125 -0.1953125 C46.97303284 -0.20563507 48.24294067 -0.21595764 49.55133057 -0.22659302 C50.73225281 -0.22674408 51.91317505 -0.22689514 53.12988281 -0.22705078 C54.16912903 -0.231492 55.20837524 -0.23593323 56.27911377 -0.24050903 C59.0781647 0.00690926 60.67852127 0.44077162 63 2 C66.37945743 8.0663347 67.38439542 14.80289105 68.6875 21.5625 C69.02491211 23.22829102 69.02491211 23.22829102 69.36914062 24.92773438 C70.39940616 30.16048122 71 34.60730366 71 40 C49.22 40 27.44 40 5 40 C4.175 34.51375 3.35 29.0275 2.5 23.375 C2.23896484 21.65458496 1.97792969 19.93416992 1.70898438 18.16162109 C1.50356039 16.78227803 1.29846085 15.40288659 1.09375 14.0234375 C0.93181152 12.96829956 0.93181152 12.96829956 0.76660156 11.8918457 C0.17657374 7.883871 -0.0420111 4.04544561 0 0 Z " fill="#68C2EC" transform="translate(282,208)"/>
<path d="M0 0 C24.42 0 48.84 0 74 0 C74 10.56 74 21.12 74 32 C48.26 32 22.52 32 -4 32 C-4 21.250323 -1.76723601 10.60341607 0 0 Z " fill="#65C1EC" transform="translate(118,320)"/>
<path d="M0 0 C24.42 0 48.84 0 74 0 C77 17 77 17 78 32 C52.26 32 26.52 32 0 32 C0 21.44 0 10.88 0 0 Z " fill="#00A3EF" transform="translate(208,320)"/>
<path d="M0 0 C18.81 0 37.62 0 57 0 C58.17509523 5.28792853 59.28123622 10.32777572 60.0703125 15.64453125 C60.24433594 16.81564453 60.41835938 17.98675781 60.59765625 19.19335938 C60.77167969 20.38767578 60.94570313 21.58199219 61.125 22.8125 C61.30675781 24.02615234 61.48851562 25.23980469 61.67578125 26.49023438 C63 35.485961 63 35.485961 63 40 C42.21 40 21.42 40 0 40 C0 26.8 0 13.6 0 0 Z " fill="#01A4EF" transform="translate(208,208)"/>
<path d="M0 0 C18.81 0 37.62 0 57 0 C57 13.2 57 26.4 57 40 C36.21 40 15.42 40 -6 40 C-1.33333333 2.66666667 -1.33333333 2.66666667 0 0 Z " fill="#00A4EF" transform="translate(135,208)"/>
<path d="M0 0 C23.1 0 46.2 0 70 0 C73.44751381 13.79005525 73.44751381 13.79005525 74.6875 19.9375 C74.93886719 21.16339844 75.19023437 22.38929688 75.44921875 23.65234375 C76 27 76 27 76 32 C52.57 32 29.14 32 5 32 C2.75084402 23.0033761 2.75084402 23.0033761 2.40234375 19.74609375 C2.28342773 18.68165039 2.28342773 18.68165039 2.16210938 17.59570312 C2.08798828 16.88349609 2.01386719 16.17128906 1.9375 15.4375 C1.78078878 13.99860609 1.62324572 12.55980252 1.46484375 11.12109375 C1.399021 10.4964624 1.33319824 9.87183105 1.26538086 9.22827148 C0.89819405 6.14518595 0.43909549 3.07366845 0 0 Z " fill="#00A3EE" transform="translate(298,320)"/>
<path d="M0 0 C22.77 0 45.54 0 69 0 C68 14 68 14 65 32 C41.57 32 18.14 32 -6 32 C-4.87387387 20.73873874 -4.87387387 20.73873874 -4.0625 16.71875 C-3.88976562 15.85765625 -3.71703125 14.9965625 -3.5390625 14.109375 C-3.36117188 13.24828125 -3.18328125 12.3871875 -3 11.5 C-2.82210938 10.60796875 -2.64421875 9.7159375 -2.4609375 8.796875 C-1.13632015 2.27264031 -1.13632015 2.27264031 0 0 Z " fill="#65C1EC" transform="translate(32,320)"/>
<path d="M0 0 C0.9778093 -0.00554901 1.95561859 -0.01109802 2.96305847 -0.01681519 C6.19136748 -0.02861436 9.41827378 -0.00433254 12.64648438 0.02148438 C14.89180436 0.02319546 17.13712635 0.02312982 19.38244629 0.0213623 C24.08670174 0.02301571 28.79048076 0.04171827 33.49462891 0.07324219 C39.52404007 0.11291941 45.55282712 0.11728746 51.58234406 0.10977936 C56.2183402 0.10670954 60.85419609 0.11883071 65.49015808 0.13591003 C67.71330383 0.14294039 69.93646548 0.14606452 72.15962219 0.1452179 C75.26686319 0.14701597 78.37335698 0.16839946 81.48046875 0.1953125 C82.39906174 0.1923819 83.31765472 0.18945129 84.26408386 0.18643188 C89.05386571 0.25042776 92.37603763 0.45115905 96.24023438 3.61523438 C97.24023438 5.61523438 97.24023438 5.61523438 97.24023438 16.61523438 C60.28023437 16.61523438 23.32023437 16.61523438 -14.75976562 16.61523438 C-14.75976562 5.61523438 -14.75976562 5.61523438 -12.86975098 2.46618652 C-8.5073564 -0.13015484 -4.9936787 -0.07210199 0 0 Z " fill="#68696B" transform="translate(158.759765625,471.384765625)"/>
<path d="M0 0 C1.87848633 0.02018188 1.87848633 0.02018188 3.79492188 0.04077148 C4.80431824 0.04426857 4.80431824 0.04426857 5.83410645 0.0478363 C7.25297777 0.05755418 8.6718114 0.07929711 10.09033203 0.11230469 C12.25677209 0.16170789 14.4209381 0.17378616 16.58789062 0.17944336 C28.50768656 0.30099459 28.50768656 0.30099459 31.76367188 2.59936523 C35.83135833 10.28277299 36.72106331 18.99613941 35.76367188 27.59936523 C33.45383843 31.79128519 31.2364041 33.18013289 26.76367188 34.59936523 C16.95871816 35.48790688 8.69038435 35.46601531 0.84179688 29.02124023 C-3.89505252 24.67586599 -6.79362062 20.43985283 -7.54882812 13.88842773 C-7.86016124 6.63047457 -7.86016124 6.63047457 -5.64477539 2.96875 C-3.23632812 0.59936523 -3.23632812 0.59936523 0 0 Z " fill="#FDFEFE" transform="translate(313.236328125,207.400634765625)"/>
<path d="M0 0 C18.81 0 37.62 0 57 0 C57 2.64 57 5.28 57 8 C56.27748047 8.20568604 55.55496094 8.41137207 54.81054688 8.62329102 C51.37347544 9.60224843 47.93670093 10.58224269 44.5 11.5625 C43.24018311 11.92166504 41.98036621 12.28083008 40.68237305 12.65087891 C34.48641381 14.419521 28.29469133 16.20051552 22.11328125 18.01953125 C21.04851562 18.33269287 19.98375 18.64585449 18.88671875 18.96850586 C16.89245762 19.55655316 14.89892039 20.14706315 12.90625 20.74047852 C7.3053205 22.39174265 1.71472163 23.79751516 -4 25 C-3.52672581 21.20757331 -3.04538565 17.41621389 -2.5625 13.625 C-2.42779297 12.54476562 -2.29308594 11.46453125 -2.15429688 10.3515625 C-2.02216797 9.3203125 -1.89003906 8.2890625 -1.75390625 7.2265625 C-1.63345947 6.27346191 -1.5130127 5.32036133 -1.38891602 4.33837891 C-1 2 -1 2 0 0 Z " fill="#65C0EB" transform="translate(135,208)"/>
<path d="M0 0 C0.50484474 3.24926665 1.00302594 6.49952099 1.5 9.75 C1.64308594 10.67039063 1.78617187 11.59078125 1.93359375 12.5390625 C2.13662109 13.87324219 2.13662109 13.87324219 2.34375 15.234375 C2.46943359 16.05131836 2.59511719 16.86826172 2.72460938 17.70996094 C3 20 3 20 3 24 C-17.79 24 -38.58 24 -60 24 C-59.67 22.35 -59.34 20.7 -59 19 C-56.81864929 17.67741394 -56.81864929 17.67741394 -53.90112305 16.68823242 C-52.81296799 16.30821579 -51.72481293 15.92819916 -50.60368347 15.53666687 C-49.41833511 15.14687149 -48.23298676 14.75707611 -47.01171875 14.35546875 C-45.80183792 13.94081863 -44.59195709 13.52616852 -43.34541321 13.09895325 C-40.7829516 12.22164802 -38.21641882 11.35808465 -35.64575195 10.50512695 C-32.3540699 9.41277707 -29.07085454 8.29734094 -25.79004192 7.17281628 C-22.65833983 6.10054728 -19.52265306 5.04030244 -16.38671875 3.98046875 C-15.20744308 3.58055222 -14.02816742 3.18063568 -12.81315613 2.76860046 C-11.71554459 2.40434464 -10.61793304 2.04008881 -9.48706055 1.66479492 C-8.52189011 1.34234299 -7.55671967 1.01989105 -6.56230164 0.68766785 C-4 0 -4 0 0 0 Z " fill="#64C0EB" transform="translate(268,224)"/>
<path d="M0 0 C5.28 0 10.56 0 16 0 C16 18.48 16 36.96 16 56 C10.72 56 5.44 56 0 56 C0 37.52 0 19.04 0 0 Z " fill="#9C9D9E" transform="translate(192,400)"/>
<path d="M0 0 C0.99 0.495 0.99 0.495 2 1 C0.68 8.92 -0.64 16.84 -2 25 C-23.78 25 -45.56 25 -68 25 C-65.54149681 22.54149681 -63.54436859 21.9985468 -60.25268555 20.87695312 C-59.0477092 20.46312378 -57.84273285 20.04929443 -56.60124207 19.6229248 C-55.27976278 19.1756157 -53.95825428 18.72839289 -52.63671875 18.28125 C-51.28373262 17.81862303 -49.93093662 17.35543967 -48.57832336 16.89172363 C-45.01288305 15.6708679 -41.44515401 14.45684627 -37.87683105 13.2444458 C-32.85885459 11.53816593 -27.84395657 9.82285677 -22.82881165 8.10827637 C-20.15858207 7.19538314 -17.48746284 6.28516909 -14.81559753 5.3770752 C-13.6011647 4.96324585 -12.38673187 4.5494165 -11.13549805 4.12304688 C-10.06897507 3.76045776 -9.00245209 3.39786865 -7.90361023 3.02429199 C-5.99189054 2.34990424 -4.10162047 1.61074975 -2.24153137 0.80480957 C-1.50182602 0.53922241 -0.76212067 0.27363525 0 0 Z " fill="#64C1EC" transform="translate(106,279)"/>
<path d="M0 0 C1.11345005 3.36370926 0.82524323 5.57014809 0.0625 9 C-2.236354 21.84838946 -2.29493824 35.60324644 2 48 C2.4021875 49.25039062 2.804375 50.50078125 3.21875 51.7890625 C6.49641148 61.52002312 11.19974639 69.57436844 17 78 C17.495 78.99 17.495 78.99 18 80 C12.39 80 6.78 80 1 80 C-9.38074149 60.63592453 -13.52603788 41.19757272 -8.1328125 19.44140625 C-5.9279861 12.74329569 -3.01746046 6.36560151 0 0 Z " fill="#FAAD26" transform="translate(290,112)"/>
<path d="M0 0 C2.63116263 2.09716283 4.97894682 4.30309624 7 7 C7 7.66 7 8.32 7 9 C7.62648437 8.69964844 8.25296875 8.39929688 8.8984375 8.08984375 C9.71570313 7.70957031 10.53296875 7.32929688 11.375 6.9375 C12.18710938 6.55464844 12.99921875 6.17179688 13.8359375 5.77734375 C14.55007812 5.52082031 15.26421875 5.26429688 16 5 C16.66 5.33 17.32 5.66 18 6 C17.67 6.66 17.34 7.32 17 8 C17.94875 7.95875 18.8975 7.9175 19.875 7.875 C22.89454725 7.86897897 25.58772256 8.27685793 28.53125 8.9375 C34.20267499 10.11266013 39.85811958 10.65533417 45.625 11.125 C46.62917969 11.21136719 47.63335937 11.29773438 48.66796875 11.38671875 C51.11159966 11.59617283 53.55553841 11.80051757 56 12 C56 12.33 56 12.66 56 13 C25.97 13 -4.06 13 -35 13 C-33.52902024 7.11608096 -29.95753106 3.19981649 -25.109375 -0.40625 C-17.33735414 -4.8293513 -7.79409392 -4.14151116 0 0 Z " fill="#C0C1C3" transform="translate(61,131)"/>
<path d="M0 0 C5.37322976 4.51068498 10.48975137 9.21495634 15.5 14.125 C16.23992187 14.82753906 16.97984375 15.53007812 17.7421875 16.25390625 C18.43570312 16.93582031 19.12921875 17.61773437 19.84375 18.3203125 C20.47474609 18.93148926 21.10574219 19.54266602 21.75585938 20.17236328 C23 22 23 22 22.81762695 24.08032227 C21.62521789 26.87993781 19.81688762 28.65523169 17.6875 30.8125 C16.90761719 31.62332031 16.12773437 32.43414062 15.32421875 33.26953125 C13 35 13 35 11.16625977 34.90136719 C8.10411411 33.62722746 6.33518872 31.67058851 4.015625 29.30859375 C3.55516785 28.84389175 3.09471069 28.37918976 2.62030029 27.90040588 C1.15632189 26.41968181 -0.29686041 24.92885481 -1.75 23.4375 C-2.74279449 22.42965336 -3.7362767 21.42248367 -4.73046875 20.41601562 C-7.16166473 17.95180539 -9.58328868 15.47842671 -12 13 C-8.16171005 8.46548035 -4.25222428 4.15098084 0 0 Z " fill="#120D02" transform="translate(439,219)"/>
<path d="M0 0 C2.66509971 1.33665111 4.51954442 3.13748626 6.63696289 5.22753906 C7.4477832 6.00742187 8.25860352 6.78730469 9.09399414 7.59082031 C10.82446289 9.91503906 10.82446289 9.91503906 10.72583008 11.7487793 C9.45169035 14.81092495 7.4950514 16.57985035 5.13305664 18.89941406 C4.66835464 19.35987122 4.20365265 19.82032837 3.72486877 20.29473877 C2.2441447 21.75871718 0.7533177 23.21189947 -0.73803711 24.66503906 C-1.74588375 25.65783355 -2.75305344 26.65131576 -3.75952148 27.64550781 C-6.22373172 30.07670379 -8.6971104 32.49832774 -11.17553711 34.91503906 C-16.05603636 30.97309736 -20.23359541 26.79553831 -24.17553711 21.91503906 C-21.13163687 18.74766559 -18.07172735 15.59694872 -14.99584961 12.46069336 C-13.95156566 11.39124399 -12.91181042 10.31735311 -11.87670898 9.23901367 C-10.38901782 7.69076037 -8.88583484 6.15914771 -7.37866211 4.62988281 C-6.47792969 3.70296631 -5.57719727 2.7760498 -4.64916992 1.82104492 C-2.17553711 -0.08496094 -2.17553711 -0.08496094 0 0 Z " fill="#120D02" transform="translate(451.175537109375,50.0849609375)"/>
<path d="M0 0 C3.06214566 1.27413972 4.83107105 3.23077868 7.15063477 5.59277344 C7.8413205 6.28982643 7.8413205 6.28982643 8.54595947 7.0009613 C10.00993788 8.48168537 11.46312017 9.97251238 12.91625977 11.46386719 C13.90905426 12.47171383 14.90253647 13.47888352 15.89672852 14.48535156 C18.32792449 16.9495618 20.74954845 19.42294048 23.16625977 21.90136719 C19.22431807 26.78186643 15.04675901 30.95942549 10.16625977 34.90136719 C6.99888629 31.85746695 3.84816943 28.79755743 0.71191406 25.72167969 C-0.35753531 24.67739574 -1.43142619 23.6376405 -2.50976562 22.60253906 C-4.05801893 21.1148479 -5.58963159 19.61166492 -7.11889648 18.10449219 C-8.04581299 17.20375977 -8.97272949 16.30302734 -9.92773438 15.375 C-11.83374023 12.90136719 -11.83374023 12.90136719 -11.7487793 10.72583008 C-10.41212819 8.06073037 -8.61129303 6.20628565 -6.52124023 4.08886719 C-5.35141602 2.87263672 -5.35141602 2.87263672 -4.15795898 1.63183594 C-1.83374023 -0.09863281 -1.83374023 -0.09863281 0 0 Z " fill="#120C02" transform="translate(269.833740234375,50.0986328125)"/>
<path d="M0 0 C10.56 0 21.12 0 32 0 C32 5.61 32 11.22 32 17 C21.44 17 10.88 17 0 17 C0 11.39 0 5.78 0 0 Z " fill="#070300" transform="translate(464,143)"/>
<path d="M0 0 C10.56 0 21.12 0 32 0 C32 5.61 32 11.22 32 17 C21.44 17 10.88 17 0 17 C0 11.39 0 5.78 0 0 Z " fill="#070300" transform="translate(224,143)"/>
<path d="M0 0 C5.28 0 10.56 0 16 0 C16 10.89 16 21.78 16 33 C10.72 33 5.44 33 0 33 C0 22.11 0 11.22 0 0 Z " fill="#030100" transform="translate(352,15)"/>
<path d="M0 0 C2.64 0 5.28 0 8 0 C8.15855469 0.60328125 8.31710938 1.2065625 8.48046875 1.828125 C9.99192523 7.00548973 11.17105344 10.10263207 16 13 C19.12252306 14.04084102 21.29365831 14.1300472 24.5697279 14.1386652 C25.73567177 14.14413964 26.90161564 14.14961409 28.10289115 14.15525442 C29.38983841 14.15623253 30.67678566 14.15721064 32.00273132 14.15821838 C33.37888048 14.16278289 34.75502825 14.16778275 36.13117439 14.17318195 C39.92111739 14.18678516 43.7110514 14.19418772 47.50101244 14.20060861 C51.58485319 14.20860298 55.66867517 14.22230406 59.75250244 14.23532104 C66.83080649 14.25709748 73.90911242 14.2752377 80.98743248 14.29092598 C91.2215642 14.31361398 101.45567515 14.34175829 111.68978927 14.37124526 C128.29293955 14.41893429 144.8960983 14.46219492 161.49926758 14.50268555 C177.63013367 14.5420338 193.76099222 14.58345842 209.8918457 14.62768555 C210.88572706 14.63040982 211.87960842 14.63313409 212.90360739 14.63594092 C217.88949131 14.64962028 222.87537511 14.66334058 227.86125886 14.67708123 C269.24082354 14.79106661 310.62040447 14.8978714 352 15 C352 15.33 352 15.66 352 16 C235.84 16 119.68 16 0 16 C0 10.72 0 5.44 0 0 Z " fill="#5A5B5D" transform="translate(24,368)"/>
<path d="M0 0 C0.66 0.33 1.32 0.66 2 1 C1.9175 2.0725 1.835 3.145 1.75 4.25 C1.69136845 7.906752 1.69136845 7.906752 3.40777588 10.20025635 C7.35474644 12.94058082 11.02495062 12.57132296 15.72558594 12.54589844 C16.71128067 12.55623611 17.6969754 12.56657379 18.71253967 12.57722473 C21.96998358 12.60671797 25.2268079 12.60815332 28.484375 12.609375 C30.74311513 12.62435219 33.00184429 12.64107836 35.26055908 12.65948486 C41.20518489 12.70322201 47.14966295 12.72317171 53.09442139 12.73822021 C59.16069295 12.75776825 65.22680441 12.79974087 71.29296875 12.83984375 C83.1952632 12.91521494 95.09752193 12.96546467 107 13 C107 13.99 107 14.98 107 16 C70.04 16 33.08 16 -5 16 C-5 5 -5 5 -2.5 1.8125 C-1.675 1.214375 -0.85 0.61625 0 0 Z " fill="#595A5C" transform="translate(149,472)"/>
<path d="M0 0 C0 8.58 0 17.16 0 26 C-5.28 26 -10.56 26 -16 26 C-16 18.08 -16 10.16 -16 2 C-12.97265625 1.77213542 -9.9453125 1.54427083 -6.91796875 1.31640625 C-4.56830803 1.06162376 -2.29009862 0 0 0 Z " fill="#BCBCBD" transform="translate(208,430)"/>
<path d="M0 0 C9.57 0 19.14 0 29 0 C26.24701036 2.75298964 24.455906 4.52872055 21.3203125 6.47265625 C20.63839844 6.89740234 19.95648438 7.32214844 19.25390625 7.75976562 C18.55136719 8.18966797 17.84882813 8.61957031 17.125 9.0625 C16.43019531 9.49626953 15.73539062 9.93003906 15.01953125 10.37695312 C11.10277223 12.80003286 7.16064392 15.01097744 3 17 C1.07495547 11.09653012 0.64698858 6.46988576 0 0 Z " fill="#64C1EC" transform="translate(290,264)"/>
<path d="M0 0 C3.19508802 0.09822151 5.53006658 0.23171845 8.125 2.25 C10.28602559 5.00717058 11.18382451 6.4068487 10.9375 9.9375 C10.125 12.25 10.125 12.25 8.125 14.25 C1.19318182 14.93181818 1.19318182 14.93181818 -2.8125 12.375 C-5.36159268 9.74866209 -5.83333162 8.9166941 -6.0625 5.25 C-5.76819858 0.54117736 -4.62500634 0.29838751 0 0 Z " fill="#FAFDFE" transform="translate(299.875,231.75)"/>
<path d="M0 0 C7.92 0 15.84 0 24 0 C19.55040621 3.55967504 15.08286518 6.66686322 10.3125 9.75 C9.54099609 10.25660156 8.76949219 10.76320313 7.97460938 11.28515625 C7.23662109 11.76339844 6.49863281 12.24164063 5.73828125 12.734375 C4.73341675 13.38744629 4.73341675 13.38744629 3.70825195 14.05371094 C2 15 2 15 0 15 C0 10.05 0 5.1 0 0 Z " fill="#63C1ED" transform="translate(208,320)"/>
<path d="M0 0 C-0.33 3.3 -0.66 6.6 -1 10 C-10.9 10 -20.8 10 -31 10 C-28.59187546 7.59187546 -26.92177109 7.2324442 -23.66015625 6.30859375 C-22.59732422 6.00373047 -21.53449219 5.69886719 -20.43945312 5.38476562 C-19.32505859 5.07216797 -18.21066406 4.75957031 -17.0625 4.4375 C-14.86579656 3.81150964 -12.66917806 3.18522111 -10.47265625 2.55859375 C-9.00711304 2.14565063 -9.00711304 2.14565063 -7.51196289 1.72436523 C-1.53218739 0 -1.53218739 0 0 0 Z " fill="#04A2EC" transform="translate(114,238)"/>
<path d="M0 0 C-9.0642748 7.2804587 -20.67193494 9.35962111 -32 9 C-32.33 6.69 -32.66 4.38 -33 2 C-32.32420898 1.97494385 -31.64841797 1.9498877 -30.95214844 1.92407227 C-27.8845832 1.80789258 -24.81730842 1.68526563 -21.75 1.5625 C-20.68652344 1.52318359 -19.62304688 1.48386719 -18.52734375 1.44335938 C-16.99013672 1.38051758 -16.99013672 1.38051758 -15.421875 1.31640625 C-14.00793457 1.26141968 -14.00793457 1.26141968 -12.56542969 1.20532227 C-8.23304476 0.85858305 -4.4240582 -0.10054678 0 0 Z " fill="#F6AA25" transform="translate(398,222)"/>
<path d="M0 0 C9.24 0 18.48 0 28 0 C25.08816371 1.94122419 22.75892873 2.86215036 19.45703125 3.9453125 C18.38388672 4.29980469 17.31074219 4.65429688 16.20507812 5.01953125 C15.08552734 5.38433594 13.96597656 5.74914062 12.8125 6.125 C11.11577148 6.68380859 11.11577148 6.68380859 9.38476562 7.25390625 C6.59114719 8.17332497 3.79621484 9.08851441 1 10 C0.67 6.7 0.34 3.4 0 0 Z " fill="#01A4EF" transform="translate(282,208)"/>
<path d="M0 0 C2 1 2 1 2.625 2.625 C3.11277279 5.71422769 3 8.872501 3 12 C-3.93 12 -10.86 12 -18 12 C-14.19151558 8.95321247 -10.43740923 6.24279485 -6.3125 3.6875 C-5.73177734 3.31560547 -5.15105469 2.94371094 -4.55273438 2.56054688 C-3.07348 1.64221208 -1.53970802 0.81291542 0 0 Z " fill="#02A3ED" transform="translate(276,292)"/>
<path d="M0 0 C7.59 0 15.18 0 23 0 C20.25695523 1.82869652 18.20449662 2.71489201 15.11328125 3.7265625 C14.17548828 4.0359375 13.23769531 4.3453125 12.27148438 4.6640625 C11.29501953 4.98117187 10.31855469 5.29828125 9.3125 5.625 C8.32443359 5.94984375 7.33636719 6.2746875 6.31835938 6.609375 C3.88020584 7.41031432 1.44075067 8.20701751 -1 9 C-0.67 6.03 -0.34 3.06 0 0 Z " fill="#02A0EA" transform="translate(126,264)"/>
<path d="M0 0 C6.76532673 1.78529455 11.65460165 4.49937851 17 9 C16.67 9.99 16.34 10.98 16 12 C9.47626361 11.66256536 6.63140843 10.63140843 2 6 C0 3 0 3 0 0 Z " fill="#EFEFEF" transform="translate(111,97)"/>
<path d="M0 0 C8.15782012 0.34204696 8.15782012 0.34204696 11 2.5625 C12.42597132 6.03830509 12.68802353 9.25628235 13 13 C10.87653492 10.93324467 8.94994139 8.78295298 7.0625 6.5 C4.90323211 3.95303314 2.81584043 1.84112643 0 0 Z " fill="#63B6DD" transform="translate(335,208)"/>
<path d="M0 0 C5.02705917 0.12047418 8.09872551 0.24587237 12.0625 3.5625 C12.701875 4.366875 13.34125 5.17125 14 6 C12.22604492 5.57533503 10.45589369 5.1347591 8.6875 4.6875 C7.70136719 4.44386719 6.71523438 4.20023438 5.69921875 3.94921875 C2.99858988 2.99950411 1.79043784 2.18152323 0 0 Z " fill="#C8C9CB" transform="translate(50,129)"/>
<path d="M0 0 C0 1.98 0 3.96 0 6 C-2.97 6 -5.94 6 -9 6 C-3.4 0 -3.4 0 0 0 Z " fill="#04A5EF" transform="translate(192,346)"/>
<path d="M0 0 C0.33 0 0.66 0 1 0 C1 1.98 1 3.96 1 6 C-1.31 6 -3.62 6 -6 6 C-5.195625 5.38125 -4.39125 4.7625 -3.5625 4.125 C-0.96125481 2.25835959 -0.96125481 2.25835959 0 0 Z " fill="#079ADE" transform="translate(352,242)"/>
</svg>
