<?xml version="1.0" standalone="no"?>
<!DOCTYPE svg PUBLIC "-//W3C//DTD SVG 20010904//EN"
 "http://www.w3.org/TR/2001/REC-SVG-20010904/DTD/svg10.dtd">
<svg version="1.0" xmlns="http://www.w3.org/2000/svg"
 width="512.000000pt" height="512.000000pt" viewBox="0 0 512.000000 512.000000"
 preserveAspectRatio="xMidYMid meet">

<g transform="translate(0.000000,512.000000) scale(0.100000,-0.100000)"
fill="#3e4097" stroke="none">
<path d="M1272 5098 c-22 -13 -165 -150 -317 -305 -230 -235 -279 -289 -286
-320 -8 -39 -2 -760 7 -822 5 -29 51 -79 296 -320 159 -157 302 -291 316 -298
35 -16 807 -18 849 -3 32 12 587 561 609 602 11 22 14 100 14 438 0 338 -3
416 -14 438 -22 41 -577 590 -609 602 -18 6 -174 10 -426 10 -394 0 -398 0
-439 -22z m563 -600 c66 -17 131 -55 187 -110 65 -64 101 -126 122 -211 91
-361 -281 -668 -617 -509 -342 162 -342 643 1 805 96 45 195 53 307 25z"/>
<path d="M3485 3412 c-16 -10 -36 -26 -44 -36 -8 -9 -106 -176 -218 -369
l-204 -352 4 -55 c3 -50 19 -83 197 -390 106 -184 204 -350 218 -369 45 -61
48 -61 513 -61 406 0 423 1 458 21 45 25 40 16 272 419 181 313 194 338 194
385 0 47 -13 72 -210 413 -143 248 -220 371 -240 385 -29 22 -38 22 -470 25
-413 2 -442 1 -470 -16z m569 -532 c189 -71 248 -322 110 -470 -145 -155 -388
-121 -481 67 -36 75 -38 173 -4 248 64 143 226 210 375 155z"/>
<path d="M983 2574 c-17 -9 -43 -32 -56 -52 -54 -80 -671 -1159 -680 -1189 -7
-23 -7 -44 1 -72 14 -44 662 -1173 695 -1210 48 -52 36 -51 772 -51 736 0 725
-1 771 51 30 34 675 1156 691 1202 10 29 11 48 3 77 -12 43 -659 1171 -693
1208 -50 54 -23 52 -774 52 -613 0 -702 -2 -730 -16z m927 -680 c155 -52 285
-162 358 -302 53 -101 72 -179 72 -290 0 -119 -13 -179 -62 -282 -76 -160
-237 -290 -413 -335 -69 -18 -211 -20 -287 -4 -71 15 -202 79 -261 128 -152
127 -231 296 -229 496 1 212 99 395 278 514 161 108 361 136 544 75z"/>
</g>
</svg>
